<?xml version="1.0" encoding="UTF-8"?>
<!DOCTYPE svg PUBLIC "-//W3C//DTD SVG 1.1//EN" "http://www.w3.org/Graphics/SVG/1.1/DTD/svg11.dtd">
<!-- Creator: CorelDRAW X7 -->
<svg xmlns="http://www.w3.org/2000/svg" xml:space="preserve" width="500px" height="500px" version="1.1" style="shape-rendering:geometricPrecision; text-rendering:geometricPrecision; image-rendering:optimizeQuality; fill-rule:evenodd; clip-rule:evenodd"
viewBox="0 0 508 508"
 xmlns:xlink="http://www.w3.org/1999/xlink">
 <defs>
  <style type="text/css">
   <![CDATA[
    .str1 {stroke:#FEFEFE;stroke-width:0.846301}
    .str0 {stroke:#E8731D;stroke-width:0.846301}
    .fil2 {fill:none}
    .fil3 {fill:#FEFEFE}
    .fil0 {fill:#EF7F1A}
    .fil4 {fill:#EE751D}
    .fil1 {fill:#E8731D}
   ]]>
  </style>
 </defs>
 <g id="Слой_x0020_1">
  <metadata id="CorelCorpID_0Corel-Layer"/>
  <g id="_418388284976">
   <rect class="fil0" width="508" height="508"/>
   <path class="fil1" d="M508 280l-124 -119c17,24 27,53 27,84l24 0 -73 187 -215 0 78 76 283 0c0,0 0,-228 0,-228z"/>
   <line class="fil2 str0" x1="265" y1="250" x2="265" y2= "430" />
   <line class="fil2 str0" x1="265" y1="250" x2="265" y2= "430" />
   <line class="fil2 str0" x1="266" y1="250" x2="266" y2= "430" />
   <line class="fil2 str0" x1="266" y1="250" x2="266" y2= "430" />
   <line class="fil2 str0" x1="267" y1="250" x2="267" y2= "430" />
   <line class="fil2 str0" x1="267" y1="250" x2="267" y2= "430" />
   <line class="fil2 str0" x1="268" y1="250" x2="268" y2= "430" />
   <line class="fil2 str0" x1="268" y1="250" x2="268" y2= "430" />
   <line class="fil2 str0" x1="269" y1="250" x2="269" y2= "430" />
   <line class="fil2 str0" x1="269" y1="250" x2="269" y2= "430" />
   <line class="fil2 str0" x1="270" y1="250" x2="270" y2= "430" />
   <line class="fil2 str0" x1="270" y1="250" x2="270" y2= "430" />
   <line class="fil2 str0" x1="271" y1="250" x2="271" y2= "430" />
   <line class="fil2 str0" x1="271" y1="250" x2="271" y2= "430" />
   <line class="fil2 str0" x1="272" y1="250" x2="272" y2= "430" />
   <line class="fil2 str0" x1="272" y1="250" x2="273" y2= "430" />
   <line class="fil2 str0" x1="273" y1="250" x2="273" y2= "430" />
   <line class="fil2 str0" x1="244" y1="250" x2="244" y2= "430" />
   <line class="fil2 str0" x1="244" y1="250" x2="244" y2= "430" />
   <line class="fil2 str0" x1="245" y1="250" x2="245" y2= "430" />
   <line class="fil2 str0" x1="245" y1="250" x2="245" y2= "430" />
   <line class="fil2 str0" x1="246" y1="250" x2="246" y2= "430" />
   <line class="fil2 str0" x1="246" y1="250" x2="246" y2= "430" />
   <line class="fil2 str0" x1="247" y1="250" x2="247" y2= "430" />
   <line class="fil2 str0" x1="247" y1="250" x2="247" y2= "430" />
   <line class="fil2 str0" x1="248" y1="250" x2="248" y2= "430" />
   <line class="fil2 str0" x1="248" y1="250" x2="248" y2= "430" />
   <line class="fil2 str0" x1="249" y1="250" x2="249" y2= "430" />
   <line class="fil2 str0" x1="249" y1="250" x2="249" y2= "430" />
   <line class="fil2 str0" x1="250" y1="250" x2="250" y2= "430" />
   <line class="fil2 str0" x1="250" y1="250" x2="250" y2= "430" />
   <line class="fil2 str0" x1="251" y1="250" x2="251" y2= "430" />
   <line class="fil2 str0" x1="251" y1="250" x2="251" y2= "430" />
   <line class="fil2 str0" x1="252" y1="250" x2="252" y2= "430" />
   <line class="fil2 str0" x1="286" y1="250" x2="281" y2= "430" />
   <line class="fil2 str0" x1="286" y1="250" x2="281" y2= "430" />
   <line class="fil2 str0" x1="287" y1="250" x2="282" y2= "430" />
   <line class="fil2 str0" x1="287" y1="250" x2="282" y2= "430" />
   <line class="fil2 str0" x1="288" y1="250" x2="283" y2= "430" />
   <line class="fil2 str0" x1="288" y1="250" x2="283" y2= "430" />
   <line class="fil2 str0" x1="289" y1="250" x2="284" y2= "430" />
   <line class="fil2 str0" x1="289" y1="250" x2="284" y2= "430" />
   <line class="fil2 str0" x1="290" y1="250" x2="285" y2= "430" />
   <line class="fil2 str0" x1="290" y1="250" x2="285" y2= "430" />
   <line class="fil2 str0" x1="291" y1="250" x2="286" y2= "430" />
   <line class="fil2 str0" x1="292" y1="250" x2="286" y2= "430" />
   <line class="fil2 str0" x1="292" y1="250" x2="287" y2= "430" />
   <line class="fil2 str0" x1="293" y1="250" x2="288" y2= "430" />
   <line class="fil2 str0" x1="293" y1="250" x2="288" y2= "430" />
   <line class="fil2 str0" x1="294" y1="250" x2="289" y2= "430" />
   <line class="fil2 str0" x1="294" y1="250" x2="289" y2= "430" />
   <line class="fil2 str0" x1="222" y1="250" x2="227" y2= "430" />
   <line class="fil2 str0" x1="223" y1="250" x2="228" y2= "430" />
   <line class="fil2 str0" x1="223" y1="250" x2="229" y2= "430" />
   <line class="fil2 str0" x1="224" y1="250" x2="229" y2= "430" />
   <line class="fil2 str0" x1="225" y1="250" x2="230" y2= "430" />
   <line class="fil2 str0" x1="225" y1="250" x2="230" y2= "430" />
   <line class="fil2 str0" x1="226" y1="250" x2="231" y2= "430" />
   <line class="fil2 str0" x1="226" y1="250" x2="231" y2= "430" />
   <line class="fil2 str0" x1="227" y1="250" x2="232" y2= "430" />
   <line class="fil2 str0" x1="227" y1="250" x2="232" y2= "430" />
   <line class="fil2 str0" x1="228" y1="250" x2="233" y2= "430" />
   <line class="fil2 str0" x1="228" y1="250" x2="233" y2= "430" />
   <line class="fil2 str0" x1="229" y1="250" x2="234" y2= "430" />
   <line class="fil2 str0" x1="229" y1="250" x2="234" y2= "430" />
   <line class="fil2 str0" x1="230" y1="250" x2="235" y2= "430" />
   <line class="fil2 str0" x1="230" y1="250" x2="235" y2= "430" />
   <line class="fil2 str0" x1="231" y1="250" x2="236" y2= "430" />
   <line class="fil2 str0" x1="310" y1="250" x2="296" y2= "430" />
   <line class="fil2 str0" x1="310" y1="250" x2="297" y2= "430" />
   <line class="fil2 str0" x1="311" y1="250" x2="297" y2= "430" />
   <line class="fil2 str0" x1="311" y1="250" x2="298" y2= "430" />
   <line class="fil2 str0" x1="312" y1="250" x2="298" y2= "430" />
   <line class="fil2 str0" x1="312" y1="250" x2="299" y2= "430" />
   <line class="fil2 str0" x1="313" y1="250" x2="299" y2= "430" />
   <line class="fil2 str0" x1="313" y1="250" x2="300" y2= "430" />
   <line class="fil2 str0" x1="314" y1="250" x2="300" y2= "430" />
   <line class="fil2 str0" x1="314" y1="250" x2="301" y2= "430" />
   <line class="fil2 str0" x1="315" y1="250" x2="301" y2= "430" />
   <line class="fil2 str0" x1="315" y1="250" x2="302" y2= "430" />
   <line class="fil2 str0" x1="316" y1="250" x2="303" y2= "430" />
   <line class="fil2 str0" x1="316" y1="250" x2="303" y2= "430" />
   <line class="fil2 str0" x1="317" y1="250" x2="304" y2= "430" />
   <line class="fil2 str0" x1="317" y1="250" x2="304" y2= "430" />
   <line class="fil2 str0" x1="318" y1="250" x2="305" y2= "430" />
   <line class="fil2 str0" x1="199" y1="250" x2="212" y2= "430" />
   <line class="fil2 str0" x1="199" y1="250" x2="212" y2= "430" />
   <line class="fil2 str0" x1="200" y1="250" x2="213" y2= "430" />
   <line class="fil2 str0" x1="200" y1="250" x2="213" y2= "430" />
   <line class="fil2 str0" x1="201" y1="250" x2="214" y2= "430" />
   <line class="fil2 str0" x1="201" y1="250" x2="215" y2= "430" />
   <line class="fil2 str0" x1="202" y1="250" x2="215" y2= "430" />
   <line class="fil2 str0" x1="202" y1="250" x2="216" y2= "430" />
   <line class="fil2 str0" x1="203" y1="250" x2="216" y2= "430" />
   <line class="fil2 str0" x1="203" y1="250" x2="217" y2= "430" />
   <line class="fil2 str0" x1="204" y1="250" x2="217" y2= "430" />
   <line class="fil2 str0" x1="204" y1="250" x2="218" y2= "430" />
   <line class="fil2 str0" x1="205" y1="250" x2="218" y2= "430" />
   <line class="fil2 str0" x1="205" y1="250" x2="219" y2= "430" />
   <line class="fil2 str0" x1="206" y1="250" x2="219" y2= "430" />
   <line class="fil2 str0" x1="206" y1="250" x2="220" y2= "430" />
   <line class="fil2 str0" x1="207" y1="250" x2="220" y2= "430" />
   <line class="fil2 str0" x1="333" y1="250" x2="312" y2= "430" />
   <line class="fil2 str0" x1="334" y1="250" x2="312" y2= "430" />
   <line class="fil2 str0" x1="334" y1="250" x2="313" y2= "430" />
   <line class="fil2 str0" x1="335" y1="250" x2="313" y2= "430" />
   <line class="fil2 str0" x1="336" y1="250" x2="314" y2= "430" />
   <line class="fil2 str0" x1="336" y1="250" x2="314" y2= "430" />
   <line class="fil2 str0" x1="337" y1="250" x2="315" y2= "430" />
   <line class="fil2 str0" x1="337" y1="250" x2="315" y2= "430" />
   <line class="fil2 str0" x1="338" y1="250" x2="316" y2= "430" />
   <line class="fil2 str0" x1="338" y1="250" x2="317" y2= "430" />
   <line class="fil2 str0" x1="339" y1="250" x2="317" y2= "430" />
   <line class="fil2 str0" x1="339" y1="250" x2="318" y2= "430" />
   <line class="fil2 str0" x1="340" y1="250" x2="318" y2= "430" />
   <line class="fil2 str0" x1="340" y1="250" x2="319" y2= "430" />
   <line class="fil2 str0" x1="341" y1="250" x2="319" y2= "430" />
   <line class="fil2 str0" x1="341" y1="250" x2="320" y2= "430" />
   <line class="fil2 str0" x1="342" y1="250" x2="320" y2= "430" />
   <line class="fil2 str0" x1="175" y1="250" x2="196" y2= "430" />
   <line class="fil2 str0" x1="175" y1="250" x2="197" y2= "430" />
   <line class="fil2 str0" x1="176" y1="250" x2="197" y2= "430" />
   <line class="fil2 str0" x1="176" y1="250" x2="198" y2= "430" />
   <line class="fil2 str0" x1="177" y1="250" x2="198" y2= "430" />
   <line class="fil2 str0" x1="177" y1="250" x2="199" y2= "430" />
   <line class="fil2 str0" x1="178" y1="250" x2="200" y2= "430" />
   <line class="fil2 str0" x1="178" y1="250" x2="200" y2= "430" />
   <line class="fil2 str0" x1="179" y1="250" x2="201" y2= "430" />
   <line class="fil2 str0" x1="179" y1="250" x2="201" y2= "430" />
   <line class="fil2 str0" x1="180" y1="250" x2="202" y2= "430" />
   <line class="fil2 str0" x1="181" y1="250" x2="202" y2= "430" />
   <line class="fil2 str0" x1="181" y1="250" x2="203" y2= "430" />
   <line class="fil2 str0" x1="182" y1="250" x2="203" y2= "430" />
   <line class="fil2 str0" x1="182" y1="250" x2="204" y2= "430" />
   <line class="fil2 str0" x1="183" y1="250" x2="204" y2= "430" />
   <line class="fil2 str0" x1="183" y1="250" x2="205" y2= "430" />
   <line class="fil2 str0" x1="357" y1="250" x2="327" y2= "430" />
   <line class="fil2 str0" x1="358" y1="250" x2="328" y2= "430" />
   <line class="fil2 str0" x1="358" y1="250" x2="328" y2= "430" />
   <line class="fil2 str0" x1="359" y1="250" x2="329" y2= "430" />
   <line class="fil2 str0" x1="359" y1="250" x2="329" y2= "430" />
   <line class="fil2 str0" x1="360" y1="250" x2="330" y2= "430" />
   <line class="fil2 str0" x1="360" y1="250" x2="330" y2= "430" />
   <line class="fil2 str0" x1="361" y1="250" x2="331" y2= "430" />
   <line class="fil2 str0" x1="361" y1="250" x2="332" y2= "430" />
   <line class="fil2 str0" x1="362" y1="250" x2="332" y2= "430" />
   <line class="fil2 str0" x1="362" y1="250" x2="333" y2= "430" />
   <line class="fil2 str0" x1="363" y1="250" x2="333" y2= "430" />
   <line class="fil2 str0" x1="363" y1="250" x2="334" y2= "430" />
   <line class="fil2 str0" x1="364" y1="250" x2="334" y2= "430" />
   <line class="fil2 str0" x1="364" y1="250" x2="335" y2= "430" />
   <line class="fil2 str0" x1="365" y1="250" x2="335" y2= "430" />
   <line class="fil2 str0" x1="366" y1="250" x2="336" y2= "430" />
   <line class="fil2 str0" x1="151" y1="250" x2="181" y2= "430" />
   <line class="fil2 str0" x1="152" y1="250" x2="181" y2= "430" />
   <line class="fil2 str0" x1="152" y1="250" x2="182" y2= "430" />
   <line class="fil2 str0" x1="153" y1="250" x2="182" y2= "430" />
   <line class="fil2 str0" x1="153" y1="250" x2="183" y2= "430" />
   <line class="fil2 str0" x1="154" y1="250" x2="183" y2= "430" />
   <line class="fil2 str0" x1="154" y1="250" x2="184" y2= "430" />
   <line class="fil2 str0" x1="155" y1="250" x2="185" y2= "430" />
   <line class="fil2 str0" x1="155" y1="250" x2="185" y2= "430" />
   <line class="fil2 str0" x1="156" y1="250" x2="186" y2= "430" />
   <line class="fil2 str0" x1="156" y1="250" x2="186" y2= "430" />
   <line class="fil2 str0" x1="157" y1="250" x2="187" y2= "430" />
   <line class="fil2 str0" x1="157" y1="250" x2="187" y2= "430" />
   <line class="fil2 str0" x1="158" y1="250" x2="188" y2= "430" />
   <line class="fil2 str0" x1="158" y1="250" x2="188" y2= "430" />
   <line class="fil2 str0" x1="159" y1="250" x2="189" y2= "430" />
   <line class="fil2 str0" x1="159" y1="250" x2="189" y2= "430" />
   <line class="fil2 str0" x1="381" y1="250" x2="343" y2= "430" />
   <line class="fil2 str0" x1="382" y1="250" x2="343" y2= "430" />
   <line class="fil2 str0" x1="382" y1="250" x2="344" y2= "430" />
   <line class="fil2 str0" x1="383" y1="250" x2="344" y2= "430" />
   <line class="fil2 str0" x1="383" y1="250" x2="345" y2= "430" />
   <line class="fil2 str0" x1="384" y1="250" x2="345" y2= "430" />
   <line class="fil2 str0" x1="384" y1="250" x2="346" y2= "430" />
   <line class="fil2 str0" x1="385" y1="250" x2="347" y2= "430" />
   <line class="fil2 str0" x1="385" y1="250" x2="347" y2= "430" />
   <line class="fil2 str0" x1="386" y1="250" x2="348" y2= "430" />
   <line class="fil2 str0" x1="386" y1="250" x2="348" y2= "430" />
   <line class="fil2 str0" x1="387" y1="250" x2="349" y2= "430" />
   <line class="fil2 str0" x1="387" y1="250" x2="349" y2= "430" />
   <line class="fil2 str0" x1="388" y1="250" x2="350" y2= "430" />
   <line class="fil2 str0" x1="388" y1="250" x2="350" y2= "430" />
   <line class="fil2 str0" x1="389" y1="250" x2="351" y2= "430" />
   <line class="fil2 str0" x1="389" y1="250" x2="351" y2= "430" />
   <line class="fil2 str0" x1="127" y1="250" x2="165" y2= "430" />
   <line class="fil2 str0" x1="128" y1="250" x2="166" y2= "430" />
   <line class="fil2 str0" x1="128" y1="250" x2="166" y2= "430" />
   <line class="fil2 str0" x1="129" y1="250" x2="167" y2= "430" />
   <line class="fil2 str0" x1="129" y1="250" x2="167" y2= "430" />
   <line class="fil2 str0" x1="130" y1="250" x2="168" y2= "430" />
   <line class="fil2 str0" x1="130" y1="250" x2="168" y2= "430" />
   <line class="fil2 str0" x1="131" y1="250" x2="169" y2= "430" />
   <line class="fil2 str0" x1="131" y1="250" x2="169" y2= "430" />
   <line class="fil2 str0" x1="132" y1="250" x2="170" y2= "430" />
   <line class="fil2 str0" x1="132" y1="250" x2="171" y2= "430" />
   <line class="fil2 str0" x1="133" y1="250" x2="171" y2= "430" />
   <line class="fil2 str0" x1="133" y1="250" x2="172" y2= "430" />
   <line class="fil2 str0" x1="134" y1="250" x2="172" y2= "430" />
   <line class="fil2 str0" x1="134" y1="250" x2="173" y2= "430" />
   <line class="fil2 str0" x1="135" y1="250" x2="173" y2= "430" />
   <line class="fil2 str0" x1="135" y1="250" x2="174" y2= "430" />
   <line class="fil2 str0" x1="405" y1="250" x2="358" y2= "430" />
   <line class="fil2 str0" x1="405" y1="250" x2="359" y2= "430" />
   <line class="fil2 str0" x1="406" y1="250" x2="359" y2= "430" />
   <line class="fil2 str0" x1="406" y1="250" x2="360" y2= "430" />
   <line class="fil2 str0" x1="407" y1="250" x2="361" y2= "430" />
   <line class="fil2 str0" x1="407" y1="250" x2="361" y2= "430" />
   <line class="fil2 str0" x1="408" y1="250" x2="362" y2= "430" />
   <line class="fil2 str0" x1="408" y1="250" x2="362" y2= "430" />
   <line class="fil2 str0" x1="409" y1="250" x2="363" y2= "430" />
   <line class="fil2 str0" x1="410" y1="250" x2="363" y2= "430" />
   <line class="fil2 str0" x1="410" y1="250" x2="364" y2= "430" />
   <line class="fil2 str0" x1="411" y1="250" x2="364" y2= "430" />
   <line class="fil2 str0" x1="411" y1="250" x2="365" y2= "430" />
   <line class="fil2 str0" x1="412" y1="250" x2="365" y2= "430" />
   <line class="fil2 str0" x1="412" y1="250" x2="366" y2= "430" />
   <line class="fil2 str0" x1="413" y1="250" x2="366" y2= "430" />
   <line class="fil2 str0" x1="413" y1="250" x2="367" y2= "430" />
   <line class="fil2 str0" x1="103" y1="250" x2="150" y2= "430" />
   <line class="fil2 str0" x1="104" y1="250" x2="150" y2= "430" />
   <line class="fil2 str0" x1="104" y1="250" x2="151" y2= "430" />
   <line class="fil2 str0" x1="105" y1="250" x2="151" y2= "430" />
   <line class="fil2 str0" x1="105" y1="250" x2="152" y2= "430" />
   <line class="fil2 str0" x1="106" y1="250" x2="152" y2= "430" />
   <line class="fil2 str0" x1="106" y1="250" x2="153" y2= "430" />
   <line class="fil2 str0" x1="107" y1="250" x2="153" y2= "430" />
   <line class="fil2 str0" x1="108" y1="250" x2="154" y2= "430" />
   <line class="fil2 str0" x1="273" y1="250" x2="274" y2= "430" />
   <line class="fil2 str0" x1="252" y1="250" x2="252" y2= "430" />
   <line class="fil2 str0" x1="295" y1="250" x2="290" y2= "430" />
   <line class="fil2 str0" x1="231" y1="250" x2="236" y2= "430" />
   <line class="fil2 str0" x1="318" y1="250" x2="305" y2= "430" />
   <line class="fil2 str0" x1="207" y1="250" x2="221" y2= "430" />
   <line class="fil2 str0" x1="342" y1="250" x2="321" y2= "430" />
   <line class="fil2 str0" x1="184" y1="250" x2="205" y2= "430" />
   <line class="fil2 str0" x1="366" y1="250" x2="336" y2= "430" />
   <line class="fil2 str0" x1="160" y1="250" x2="190" y2= "430" />
   <line class="fil2 str0" x1="390" y1="250" x2="352" y2= "430" />
   <line class="fil2 str0" x1="136" y1="250" x2="174" y2= "430" />
   <line class="fil2 str0" x1="414" y1="250" x2="367" y2= "430" />
   <line class="fil2 str0" x1="112" y1="250" x2="159" y2= "430" />
   <line class="fil2 str0" x1="108" y1="250" x2="154" y2= "430" />
   <line class="fil2 str0" x1="109" y1="250" x2="155" y2= "430" />
   <line class="fil2 str0" x1="109" y1="250" x2="156" y2= "430" />
   <line class="fil2 str0" x1="110" y1="250" x2="156" y2= "430" />
   <line class="fil2 str0" x1="110" y1="250" x2="157" y2= "430" />
   <line class="fil2 str0" x1="111" y1="250" x2="157" y2= "430" />
   <line class="fil2 str0" x1="111" y1="250" x2="158" y2= "430" />
   <line class="fil2 str0" x1="112" y1="250" x2="158" y2= "430" />
   <line class="fil2 str1" x1="265" y1="250" x2="265" y2= "430" />
   <line class="fil2 str1" x1="244" y1="250" x2="244" y2= "430" />
   <line class="fil2 str1" x1="286" y1="250" x2="281" y2= "430" />
   <line class="fil2 str1" x1="223" y1="250" x2="228" y2= "430" />
   <line class="fil2 str1" x1="310" y1="250" x2="296" y2= "430" />
   <line class="fil2 str1" x1="199" y1="250" x2="212" y2= "430" />
   <line class="fil2 str1" x1="334" y1="250" x2="312" y2= "430" />
   <line class="fil2 str1" x1="175" y1="250" x2="197" y2= "430" />
   <line class="fil2 str1" x1="357" y1="250" x2="328" y2= "430" />
   <line class="fil2 str1" x1="151" y1="250" x2="181" y2= "430" />
   <line class="fil2 str1" x1="381" y1="250" x2="343" y2= "430" />
   <line class="fil2 str1" x1="127" y1="250" x2="165" y2= "430" />
   <line class="fil2 str1" x1="405" y1="250" x2="359" y2= "430" />
   <polygon class="fil1" points="154,437 157,432 88,256 86,250 82,252 "/>
   <path class="fil1" d="M152 434l2 -5 -67 -175c0,0 -1,-5 -1,-5 -2,0 -5,0 -7,0l73 185z"/>
   <line class="fil2 str1" x1="104" y1="250" x2="150" y2= "430" />
   <path class="fil3" d="M435 245l-362 0 73 187 216 0 73 -187zm-7 5l-348 0 70 180 208 0 70 -180z"/>
   <path class="fil4" d="M254 155c15,0 27,12 27,27 0,14 -12,26 -27,26 -15,0 -27,-12 -27,-26 0,-15 12,-27 27,-27zm0 4c13,0 23,10 23,23 0,12 -10,22 -23,22 -13,0 -24,-10 -24,-22 0,-13 11,-23 24,-23z"/>
   <path class="fil4" d="M254 156c15,0 28,12 28,26 0,15 -13,26 -28,26 -15,0 -27,-11 -27,-26 0,-14 12,-26 27,-26zm0 3c13,0 24,11 24,23 0,13 -11,23 -24,23 -13,0 -23,-10 -23,-23 0,-12 10,-23 23,-23z"/>
   <path class="fil4" d="M255 156c15,0 27,12 27,27 0,14 -12,26 -27,26 -15,0 -27,-12 -27,-26 0,-15 12,-27 27,-27zm0 4c13,0 23,10 23,23 0,12 -10,22 -23,22 -13,0 -24,-10 -24,-22 0,-13 11,-23 24,-23z"/>
   <path class="fil4" d="M255 157c15,0 28,12 28,26 0,15 -13,26 -28,26 -15,0 -27,-11 -27,-26 0,-14 12,-26 27,-26zm0 3c13,0 24,11 24,23 0,13 -11,23 -24,23 -13,0 -23,-10 -23,-23 0,-12 10,-23 23,-23z"/>
   <path class="fil4" d="M256 157c15,0 27,12 27,27 0,14 -12,26 -27,26 -15,0 -27,-12 -27,-26 0,-15 12,-27 27,-27zm0 4c13,0 23,10 23,23 0,12 -10,22 -23,22 -13,0 -24,-10 -24,-22 0,-13 11,-23 24,-23z"/>
   <path class="fil4" d="M256 158c16,0 28,12 28,26 0,15 -12,26 -28,26 -15,0 -27,-11 -27,-26 0,-14 12,-26 27,-26zm0 3c13,0 24,11 24,23 0,13 -11,23 -24,23 -13,0 -23,-10 -23,-23 0,-12 10,-23 23,-23z"/>
   <path class="fil4" d="M257 158c15,0 27,12 27,27 0,14 -12,26 -27,26 -15,0 -27,-12 -27,-26 0,-15 12,-27 27,-27zm0 4c13,0 23,10 23,23 0,12 -10,22 -23,22 -13,0 -24,-10 -24,-22 0,-13 11,-23 24,-23z"/>
   <path class="fil4" d="M257 159c16,0 28,12 28,26 0,15 -12,26 -28,26 -15,0 -27,-11 -27,-26 0,-14 12,-26 27,-26zm0 3c13,0 24,11 24,23 0,13 -11,23 -24,23 -13,0 -23,-10 -23,-23 0,-12 10,-23 23,-23z"/>
   <path class="fil4" d="M258 159c15,0 27,12 27,27 0,14 -12,26 -27,26 -15,0 -27,-12 -27,-26 0,-15 12,-27 27,-27zm0 4c13,0 24,10 24,23 0,12 -11,22 -24,22 -13,0 -24,-10 -24,-22 0,-13 11,-23 24,-23z"/>
   <path class="fil4" d="M259 160c15,0 27,12 27,26 0,15 -12,26 -27,26 -16,0 -28,-11 -28,-26 0,-14 12,-26 28,-26zm0 3c12,0 23,11 23,23 0,13 -11,23 -23,23 -13,0 -24,-10 -24,-23 0,-12 11,-23 24,-23z"/>
   <path class="fil4" d="M259 160c15,0 27,12 27,27 0,14 -12,26 -27,26 -15,0 -27,-12 -27,-26 0,-15 12,-27 27,-27zm0 4c13,0 24,10 24,23 0,12 -11,22 -24,22 -13,0 -24,-10 -24,-22 0,-13 11,-23 24,-23z"/>
   <path class="fil4" d="M260 161c15,0 27,12 27,26 0,15 -12,26 -27,26 -16,0 -28,-11 -28,-26 0,-14 12,-26 28,-26zm0 3c13,0 23,11 23,23 0,13 -10,23 -23,23 -13,0 -24,-10 -24,-23 0,-12 11,-23 24,-23z"/>
   <path class="fil4" d="M260 161c15,0 27,12 27,27 0,14 -12,26 -27,26 -15,0 -27,-12 -27,-26 0,-15 12,-27 27,-27zm0 4c13,0 24,10 24,23 0,12 -11,22 -24,22 -13,0 -23,-10 -23,-22 0,-13 10,-23 23,-23z"/>
   <path class="fil4" d="M261 162c15,0 27,12 27,26 0,15 -12,26 -27,26 -16,0 -28,-11 -28,-26 0,-14 12,-26 28,-26zm0 3c13,0 23,11 23,23 0,13 -10,23 -23,23 -13,0 -24,-10 -24,-23 0,-12 11,-23 24,-23z"/>
   <path class="fil4" d="M261 162c15,0 27,12 27,27 0,14 -12,26 -27,26 -15,0 -27,-12 -27,-26 0,-15 12,-27 27,-27zm0 4c13,0 24,10 24,23 0,12 -11,22 -24,22 -13,0 -23,-10 -23,-22 0,-13 10,-23 23,-23z"/>
   <path class="fil4" d="M262 163c15,0 27,12 27,26 0,15 -12,26 -27,26 -15,0 -28,-11 -28,-26 0,-14 13,-26 28,-26zm0 3c13,0 23,11 23,23 0,13 -10,23 -23,23 -13,0 -24,-10 -24,-23 0,-12 11,-23 24,-23z"/>
   <path class="fil4" d="M262 163c15,0 27,12 27,27 0,14 -12,26 -27,26 -15,0 -27,-12 -27,-26 0,-15 12,-27 27,-27zm0 4c13,0 24,10 24,23 0,12 -11,22 -24,22 -13,0 -23,-10 -23,-22 0,-13 10,-23 23,-23z"/>
   <path class="fil4" d="M263 164c15,0 27,12 27,26 0,15 -12,26 -27,26 -15,0 -28,-11 -28,-26 0,-14 13,-26 28,-26zm0 3c13,0 23,11 23,23 0,13 -10,23 -23,23 -13,0 -24,-10 -24,-23 0,-12 11,-23 24,-23z"/>
   <path class="fil4" d="M143 112c15,0 27,12 27,26 0,15 -12,27 -27,27 -15,0 -27,-12 -27,-27 0,-14 12,-26 27,-26zm0 4c13,0 23,10 23,22 0,13 -10,23 -23,23 -13,0 -24,-10 -24,-23 0,-12 11,-22 24,-22z"/>
   <path class="fil4" d="M143 112c15,0 28,12 28,27 0,14 -13,26 -28,26 -15,0 -27,-12 -27,-26 0,-15 12,-27 27,-27zm0 4c13,0 24,10 24,23 0,12 -11,22 -24,22 -13,0 -23,-10 -23,-22 0,-13 10,-23 23,-23z"/>
   <path class="fil4" d="M144 113c15,0 27,12 27,26 0,15 -12,27 -27,27 -15,0 -27,-12 -27,-27 0,-14 12,-26 27,-26zm0 4c13,0 23,10 23,22 0,13 -10,23 -23,23 -13,0 -24,-10 -24,-23 0,-12 11,-22 24,-22z"/>
   <path class="fil4" d="M144 113c15,0 28,12 28,27 0,14 -13,26 -28,26 -15,0 -27,-12 -27,-26 0,-15 12,-27 27,-27zm0 4c13,0 24,10 24,23 0,12 -11,22 -24,22 -13,0 -23,-10 -23,-22 0,-13 10,-23 23,-23z"/>
   <path class="fil4" d="M145 114c15,0 27,12 27,26 0,15 -12,27 -27,27 -15,0 -27,-12 -27,-27 0,-14 12,-26 27,-26zm0 4c13,0 23,10 23,22 0,13 -10,23 -23,23 -13,0 -24,-10 -24,-23 0,-12 11,-22 24,-22z"/>
   <path class="fil4" d="M145 114c16,0 28,12 28,27 0,14 -12,26 -28,26 -15,0 -27,-12 -27,-26 0,-15 12,-27 27,-27zm0 4c13,0 24,10 24,23 0,12 -11,22 -24,22 -13,0 -23,-10 -23,-22 0,-13 10,-23 23,-23z"/>
   <path class="fil4" d="M146 115c15,0 27,12 27,26 0,15 -12,27 -27,27 -15,0 -27,-12 -27,-27 0,-14 12,-26 27,-26zm0 4c13,0 23,10 23,22 0,13 -10,23 -23,23 -13,0 -24,-10 -24,-23 0,-12 11,-22 24,-22z"/>
   <path class="fil4" d="M146 115c16,0 28,12 28,27 0,14 -12,26 -28,26 -15,0 -27,-12 -27,-26 0,-15 12,-27 27,-27zm0 4c13,0 24,10 24,23 0,12 -11,22 -24,22 -13,0 -23,-10 -23,-22 0,-13 10,-23 23,-23z"/>
   <path class="fil4" d="M147 116c15,0 27,12 27,26 0,15 -12,27 -27,27 -15,0 -27,-12 -27,-27 0,-14 12,-26 27,-26zm0 4c13,0 24,10 24,22 0,13 -11,23 -24,23 -13,0 -24,-10 -24,-23 0,-12 11,-22 24,-22z"/>
   <path class="fil4" d="M148 116c15,0 27,12 27,27 0,14 -12,26 -27,26 -16,0 -28,-12 -28,-26 0,-15 12,-27 28,-27zm0 4c13,0 23,10 23,23 0,12 -10,22 -23,22 -13,0 -24,-10 -24,-22 0,-13 11,-23 24,-23z"/>
   <path class="fil4" d="M148 117c15,0 27,12 27,26 0,15 -12,27 -27,27 -15,0 -27,-12 -27,-27 0,-14 12,-26 27,-26zm0 4c13,0 24,10 24,22 0,13 -11,23 -24,23 -13,0 -23,-10 -23,-23 0,-12 10,-22 23,-22z"/>
   <path class="fil4" d="M149 117c15,0 27,12 27,27 0,14 -12,26 -27,26 -16,0 -28,-12 -28,-26 0,-15 12,-27 28,-27zm0 4c13,0 23,10 23,23 0,12 -10,22 -23,22 -13,0 -24,-10 -24,-22 0,-13 11,-23 24,-23z"/>
   <path class="fil4" d="M149 118c15,0 27,12 27,26 0,15 -12,27 -27,27 -15,0 -27,-12 -27,-27 0,-14 12,-26 27,-26zm0 4c13,0 24,10 24,22 0,13 -11,23 -24,23 -13,0 -23,-10 -23,-23 0,-12 10,-22 23,-22z"/>
   <path class="fil4" d="M150 118c15,0 27,12 27,27 0,14 -12,26 -27,26 -16,0 -28,-12 -28,-26 0,-15 12,-27 28,-27zm0 4c13,0 23,10 23,23 0,12 -10,22 -23,22 -13,0 -24,-10 -24,-22 0,-13 11,-23 24,-23z"/>
   <path class="fil4" d="M150 119c15,0 27,12 27,26 0,15 -12,27 -27,27 -15,0 -27,-12 -27,-27 0,-14 12,-26 27,-26zm0 4c13,0 24,10 24,22 0,13 -11,23 -24,23 -13,0 -23,-10 -23,-23 0,-12 10,-22 23,-22z"/>
   <path class="fil4" d="M151 119c15,0 27,12 27,27 0,14 -12,26 -27,26 -15,0 -28,-12 -28,-26 0,-15 13,-27 28,-27zm0 4c13,0 23,10 23,23 0,12 -10,22 -23,22 -13,0 -24,-10 -24,-22 0,-13 11,-23 24,-23z"/>
   <path class="fil4" d="M151 120c15,0 27,12 27,26 0,15 -12,27 -27,27 -15,0 -27,-12 -27,-27 0,-14 12,-26 27,-26zm0 4c13,0 24,10 24,22 0,13 -11,23 -24,23 -13,0 -23,-10 -23,-23 0,-12 10,-22 23,-22z"/>
   <path class="fil4" d="M152 120c15,0 27,12 27,27 0,14 -12,26 -27,26 -15,0 -28,-12 -28,-26 0,-15 13,-27 28,-27zm0 4c13,0 23,10 23,23 0,12 -10,22 -23,22 -13,0 -24,-10 -24,-22 0,-13 11,-23 24,-23z"/>
   <path class="fil4" d="M254 64c18,0 33,14 33,31 0,17 -15,31 -33,31 -17,0 -32,-14 -32,-31 0,-17 15,-31 32,-31zm0 4c16,0 28,12 28,27 0,15 -12,27 -28,27 -15,0 -27,-12 -27,-27 0,-15 12,-27 27,-27z"/>
   <path class="fil4" d="M255 64c18,0 32,14 32,31 0,18 -14,31 -32,31 -18,0 -32,-13 -32,-31 0,-17 14,-31 32,-31zm0 5c15,0 28,12 28,26 0,15 -13,27 -28,27 -15,0 -28,-12 -28,-27 0,-14 13,-26 28,-26z"/>
   <path class="fil4" d="M255 65c18,0 33,14 33,31 0,17 -15,31 -33,31 -17,0 -32,-14 -32,-31 0,-17 15,-31 32,-31zm0 4c16,0 28,12 28,27 0,15 -12,27 -28,27 -15,0 -27,-12 -27,-27 0,-15 12,-27 27,-27z"/>
   <path class="fil4" d="M256 65c18,0 32,14 32,31 0,18 -14,31 -32,31 -18,0 -32,-13 -32,-31 0,-17 14,-31 32,-31zm0 5c15,0 28,12 28,26 0,15 -13,27 -28,27 -15,0 -28,-12 -28,-27 0,-14 13,-26 28,-26z"/>
   <path class="fil4" d="M256 66c18,0 33,14 33,31 0,17 -15,31 -33,31 -17,0 -32,-14 -32,-31 0,-17 15,-31 32,-31zm0 4c16,0 28,12 28,27 0,15 -12,27 -28,27 -15,0 -27,-12 -27,-27 0,-15 12,-27 27,-27z"/>
   <path class="fil4" d="M257 66c18,0 32,14 32,31 0,18 -14,31 -32,31 -18,0 -32,-13 -32,-31 0,-17 14,-31 32,-31zm0 5c15,0 28,12 28,26 0,15 -13,27 -28,27 -15,0 -28,-12 -28,-27 0,-14 13,-26 28,-26z"/>
   <path class="fil4" d="M258 67c17,0 32,14 32,31 0,17 -15,31 -32,31 -18,0 -33,-14 -33,-31 0,-17 15,-31 33,-31zm0 4c15,0 27,12 27,27 0,15 -12,27 -27,27 -16,0 -28,-12 -28,-27 0,-15 12,-27 28,-27z"/>
   <path class="fil4" d="M258 67c18,0 32,14 32,31 0,18 -14,31 -32,31 -18,0 -32,-13 -32,-31 0,-17 14,-31 32,-31zm0 5c15,0 28,12 28,26 0,15 -13,27 -28,27 -15,0 -28,-12 -28,-27 0,-14 13,-26 28,-26z"/>
   <path class="fil4" d="M259 68c17,0 32,14 32,31 0,17 -15,31 -32,31 -18,0 -33,-14 -33,-31 0,-17 15,-31 33,-31zm0 4c15,0 27,12 27,27 0,15 -12,27 -27,27 -16,0 -28,-12 -28,-27 0,-15 12,-27 28,-27z"/>
   <path class="fil4" d="M259 68c18,0 32,14 32,31 0,18 -14,31 -32,31 -18,0 -32,-13 -32,-31 0,-17 14,-31 32,-31zm0 5c15,0 28,12 28,26 0,15 -13,27 -28,27 -15,0 -28,-12 -28,-27 0,-14 13,-26 28,-26z"/>
   <path class="fil4" d="M260 69c17,0 32,14 32,31 0,17 -15,31 -32,31 -18,0 -33,-14 -33,-31 0,-17 15,-31 33,-31zm0 4c15,0 27,12 27,27 0,15 -12,27 -27,27 -16,0 -28,-12 -28,-27 0,-15 12,-27 28,-27z"/>
   <path class="fil4" d="M260 69c18,0 32,14 32,31 0,18 -14,31 -32,31 -18,0 -32,-13 -32,-31 0,-17 14,-31 32,-31zm0 5c15,0 28,12 28,26 0,15 -13,27 -28,27 -15,0 -28,-12 -28,-27 0,-14 13,-26 28,-26z"/>
   <path class="fil4" d="M261 70c17,0 32,14 32,31 0,17 -15,31 -32,31 -18,0 -33,-14 -33,-31 0,-17 15,-31 33,-31zm0 4c15,0 27,12 27,27 0,15 -12,27 -27,27 -16,0 -28,-12 -28,-27 0,-15 12,-27 28,-27z"/>
   <path class="fil4" d="M261 70c18,0 32,14 32,31 0,18 -14,31 -32,31 -18,0 -32,-13 -32,-31 0,-17 14,-31 32,-31zm0 5c15,0 28,12 28,26 0,15 -13,27 -28,27 -15,0 -28,-12 -28,-27 0,-14 13,-26 28,-26z"/>
   <path class="fil4" d="M262 71c17,0 32,14 32,31 0,17 -15,31 -32,31 -18,0 -33,-14 -33,-31 0,-17 15,-31 33,-31zm0 4c15,0 27,12 27,27 0,15 -12,27 -27,27 -16,0 -28,-12 -28,-27 0,-15 12,-27 28,-27z"/>
   <path class="fil4" d="M262 71c18,0 32,14 32,31 0,18 -14,31 -32,31 -18,0 -32,-13 -32,-31 0,-17 14,-31 32,-31zm0 5c15,0 28,12 28,26 0,15 -13,27 -28,27 -15,0 -28,-12 -28,-27 0,-14 13,-26 28,-26z"/>
   <path class="fil4" d="M263 72c17,0 32,14 32,31 0,17 -15,31 -32,31 -18,0 -33,-14 -33,-31 0,-17 15,-31 33,-31zm0 4c15,0 27,12 27,27 0,15 -12,27 -27,27 -16,0 -28,-12 -28,-27 0,-15 12,-27 28,-27z"/>
   <path class="fil4" d="M263 72c18,0 32,14 32,31 0,18 -14,31 -32,31 -18,0 -32,-13 -32,-31 0,-17 14,-31 32,-31zm0 5c16,0 28,12 28,26 0,15 -12,27 -28,27 -15,0 -28,-12 -28,-27 0,-14 13,-26 28,-26z"/>
   <path class="fil4" d="M365 113c15,0 28,12 28,26 0,15 -13,27 -28,27 -15,0 -27,-12 -27,-27 0,-14 12,-26 27,-26zm0 4c13,0 24,10 24,22 0,13 -11,23 -24,23 -13,0 -23,-10 -23,-23 0,-12 10,-22 23,-22z"/>
   <path class="fil4" d="M366 113c15,0 27,12 27,27 0,14 -12,26 -27,26 -15,0 -27,-12 -27,-26 0,-15 12,-27 27,-27zm0 4c13,0 23,10 23,23 0,12 -10,22 -23,22 -13,0 -24,-10 -24,-22 0,-13 11,-23 24,-23z"/>
   <path class="fil4" d="M366 114c16,0 28,12 28,26 0,15 -12,27 -28,27 -15,0 -27,-12 -27,-27 0,-14 12,-26 27,-26zm0 4c13,0 24,10 24,22 0,13 -11,23 -24,23 -13,0 -23,-10 -23,-23 0,-12 10,-22 23,-22z"/>
   <path class="fil4" d="M367 114c15,0 27,12 27,27 0,14 -12,26 -27,26 -15,0 -27,-12 -27,-26 0,-15 12,-27 27,-27zm0 4c13,0 23,10 23,23 0,12 -10,22 -23,22 -13,0 -24,-10 -24,-22 0,-13 11,-23 24,-23z"/>
   <path class="fil4" d="M367 115c16,0 28,12 28,26 0,15 -12,27 -28,27 -15,0 -27,-12 -27,-27 0,-14 12,-26 27,-26zm0 4c13,0 24,10 24,22 0,13 -11,23 -24,23 -13,0 -23,-10 -23,-23 0,-12 10,-22 23,-22z"/>
   <path class="fil4" d="M368 115c15,0 27,12 27,27 0,14 -12,26 -27,26 -15,0 -27,-12 -27,-26 0,-15 12,-27 27,-27zm0 4c13,0 24,10 24,23 0,12 -11,22 -24,22 -13,0 -24,-10 -24,-22 0,-13 11,-23 24,-23z"/>
   <path class="fil4" d="M368 116c16,0 28,12 28,26 0,15 -12,27 -28,27 -15,0 -27,-12 -27,-27 0,-14 12,-26 27,-26zm0 4c13,0 24,10 24,22 0,13 -11,23 -24,23 -13,0 -23,-10 -23,-23 0,-12 10,-22 23,-22z"/>
   <path class="fil4" d="M369 116c15,0 27,12 27,27 0,14 -12,26 -27,26 -15,0 -27,-12 -27,-26 0,-15 12,-27 27,-27zm0 4c13,0 24,10 24,23 0,12 -11,22 -24,22 -13,0 -24,-10 -24,-22 0,-13 11,-23 24,-23z"/>
   <path class="fil4" d="M370 117c15,0 27,12 27,26 0,15 -12,27 -27,27 -16,0 -28,-12 -28,-27 0,-14 12,-26 28,-26zm0 4c13,0 23,10 23,22 0,13 -10,23 -23,23 -13,0 -24,-10 -24,-23 0,-12 11,-22 24,-22z"/>
   <path class="fil4" d="M370 117c15,0 27,12 27,27 0,14 -12,26 -27,26 -15,0 -27,-12 -27,-26 0,-15 12,-27 27,-27zm0 4c13,0 24,10 24,23 0,12 -11,22 -24,22 -13,0 -23,-10 -23,-22 0,-13 10,-23 23,-23z"/>
   <path class="fil4" d="M371 118c15,0 27,12 27,26 0,15 -12,27 -27,27 -16,0 -28,-12 -28,-27 0,-14 12,-26 28,-26zm0 4c13,0 23,10 23,22 0,13 -10,23 -23,23 -13,0 -24,-10 -24,-23 0,-12 11,-22 24,-22z"/>
   <path class="fil4" d="M371 118c15,0 27,12 27,27 0,14 -12,26 -27,26 -15,0 -27,-12 -27,-26 0,-15 12,-27 27,-27zm0 4c13,0 24,10 24,23 0,12 -11,22 -24,22 -13,0 -23,-10 -23,-22 0,-13 10,-23 23,-23z"/>
   <path class="fil4" d="M372 119c15,0 27,12 27,26 0,15 -12,27 -27,27 -15,0 -28,-12 -28,-27 0,-14 13,-26 28,-26zm0 4c13,0 23,10 23,22 0,13 -10,23 -23,23 -13,0 -24,-10 -24,-23 0,-12 11,-22 24,-22z"/>
   <path class="fil4" d="M372 119c15,0 27,12 27,27 0,14 -12,26 -27,26 -15,0 -27,-12 -27,-26 0,-15 12,-27 27,-27zm0 4c13,0 24,10 24,23 0,12 -11,22 -24,22 -13,0 -23,-10 -23,-22 0,-13 10,-23 23,-23z"/>
   <path class="fil4" d="M373 120c15,0 27,12 27,26 0,15 -12,27 -27,27 -15,0 -28,-12 -28,-27 0,-14 13,-26 28,-26zm0 4c13,0 23,10 23,22 0,13 -10,23 -23,23 -13,0 -24,-10 -24,-23 0,-12 11,-22 24,-22z"/>
   <path class="fil4" d="M373 120c15,0 27,12 27,27 0,14 -12,26 -27,26 -15,0 -27,-12 -27,-26 0,-15 12,-27 27,-27zm0 4c13,0 24,10 24,23 0,12 -11,22 -24,22 -13,0 -23,-10 -23,-22 0,-13 10,-23 23,-23z"/>
   <path class="fil4" d="M374 121c15,0 27,12 27,26 0,15 -12,27 -27,27 -15,0 -28,-12 -28,-27 0,-14 13,-26 28,-26zm0 4c13,0 23,10 23,22 0,13 -10,23 -23,23 -13,0 -24,-10 -24,-23 0,-12 11,-22 24,-22z"/>
   <path class="fil4" d="M374 121c15,0 28,12 28,27 0,14 -13,26 -28,26 -15,0 -27,-12 -27,-26 0,-15 12,-27 27,-27zm0 4c13,0 24,10 24,23 0,12 -11,22 -24,22 -13,0 -23,-10 -23,-22 0,-13 10,-23 23,-23z"/>
   <g>
    <path class="fil3" d="M104 245c0,-31 10,-59 27,-83 -2,-1 -4,-2 -6,-4 -18,25 -28,55 -28,87l7 0zm24 -89c1,1 3,2 5,3l-5 -3zm36 -27c-1,-2 -2,-4 -3,-6l3 6zm3 -3c17,-11 36,-19 56,-23 -1,-2 -1,-4 -1,-6 -21,4 -41,13 -58,24 1,2 2,4 3,5zm59 -30c0,2 1,4 1,6l-1 -6zm55 6c0,-2 0,-4 1,-6l-1 6zm4 0c20,4 39,12 56,23 1,-1 2,-2 3,-4 -17,-11 -37,-20 -58,-24 0,2 -1,4 -1,5zm62 21c-1,2 -2,3 -3,5l3 -5zm29 35c2,-1 3,-1 4,-2l-4 2zm2 3c18,24 28,53 28,84l5 0c0,-32 -11,-62 -29,-87 -1,1 -2,2 -4,3z"/>
   </g>
   <path class="fil3" d="M254 63c18,0 32,14 32,31 0,17 -14,31 -32,31 -18,0 -32,-14 -32,-31 0,-17 14,-31 32,-31zm0 4c15,0 28,12 28,27 0,15 -13,27 -28,27 -15,0 -28,-12 -28,-27 0,-15 13,-27 28,-27z"/>
   <path class="fil3" d="M254 63c18,0 32,14 32,31 0,17 -14,31 -32,31 -18,0 -32,-14 -32,-31 0,-17 14,-31 32,-31zm0 4c15,0 28,12 28,27 0,15 -13,27 -28,27 -15,0 -28,-12 -28,-27 0,-15 13,-27 28,-27z"/>
   <path class="fil3" d="M365 112c15,0 27,12 27,26 0,15 -12,27 -27,27 -15,0 -27,-12 -27,-27 0,-14 12,-26 27,-26zm0 4c13,0 23,10 23,22 0,13 -10,23 -23,23 -13,0 -24,-10 -24,-23 0,-12 11,-22 24,-22z"/>
   <path class="fil3" d="M365 112c15,0 27,12 27,26 0,15 -12,27 -27,27 -15,0 -27,-12 -27,-27 0,-14 12,-26 27,-26zm0 4c13,0 23,10 23,22 0,13 -10,23 -23,23 -13,0 -24,-10 -24,-23 0,-12 11,-22 24,-22z"/>
   <path class="fil3" d="M254 155c15,0 27,12 27,27 0,14 -12,26 -27,26 -15,0 -27,-12 -27,-26 0,-15 12,-27 27,-27zm0 4c13,0 23,10 23,23 0,12 -10,22 -23,22 -13,0 -24,-10 -24,-22 0,-13 11,-23 24,-23z"/>
   <path class="fil3" d="M254 155c15,0 27,12 27,27 0,14 -12,26 -27,26 -15,0 -27,-12 -27,-26 0,-15 12,-27 27,-27zm0 4c13,0 23,10 23,23 0,12 -10,22 -23,22 -13,0 -24,-10 -24,-22 0,-13 11,-23 24,-23z"/>
   <path class="fil3" d="M143 112c15,0 27,12 27,26 0,15 -12,27 -27,27 -15,0 -27,-12 -27,-27 0,-14 12,-26 27,-26zm0 4c13,0 23,10 23,22 0,13 -10,23 -23,23 -13,0 -24,-10 -24,-23 0,-12 11,-22 24,-22z"/>
   <path class="fil3" d="M143 112c15,0 27,12 27,26 0,15 -12,27 -27,27 -15,0 -27,-12 -27,-27 0,-14 12,-26 27,-26zm0 4c13,0 23,10 23,22 0,13 -10,23 -23,23 -13,0 -24,-10 -24,-23 0,-12 11,-22 24,-22z"/>
   <path class="fil0" d="M386 121c9,11 9,27 -4,37l10 10c2,0 4,1 5,0 7,-2 19,-3 24,-10 7,-11 3,-19 -5,-28 -5,-6 -23,-12 -30,-9z"/>
   <path class="fil0" d="M302 101c-7,-21 -15,-30 -25,-29 6,6 10,15 9,25 6,1 11,3 16,4z"/>
  </g>
 </g>
</svg>
