<?xml version="1.0" encoding="UTF-8"?>
<!DOCTYPE svg PUBLIC "-//W3C//DTD SVG 1.1//EN" "http://www.w3.org/Graphics/SVG/1.1/DTD/svg11.dtd">
<!-- Creator: CorelDRAW X7 -->
<svg xmlns="http://www.w3.org/2000/svg" xml:space="preserve" width="499px" height="312px" version="1.1" style="shape-rendering:geometricPrecision; text-rendering:geometricPrecision; image-rendering:optimizeQuality; fill-rule:evenodd; clip-rule:evenodd"
viewBox="0 0 110 69"
 xmlns:xlink="http://www.w3.org/1999/xlink">
 <defs>
  <style type="text/css">
   <![CDATA[
    .fil0 {fill:#010106}
    .fil1 {fill:#020C2B}
    .fil25 {fill:#041B45}
    .fil24 {fill:#130B13}
    .fil14 {fill:#193A66}
    .fil9 {fill:#241D34}
    .fil3 {fill:#272D53}
    .fil23 {fill:#351819}
    .fil8 {fill:#362838}
    .fil17 {fill:#3A5479}
    .fil19 {fill:#47353A}
    .fil4 {fill:#484A66}
    .fil20 {fill:#486896}
    .fil22 {fill:#57444A}
    .fil6 {fill:#665867}
    .fil5 {fill:#66657A}
    .fil16 {fill:#678AB4}
    .fil12 {fill:#687897}
    .fil15 {fill:#7896B8}
    .fil13 {fill:#7BA6C9}
    .fil11 {fill:#939BB4}
    .fil2 {fill:#9AB3CB}
    .fil18 {fill:#9AC2DC}
    .fil10 {fill:#B3D4EA}
    .fil26 {fill:#B5C6DB}
    .fil7 {fill:#D4E4EC}
    .fil21 {fill:#E8EBEC}
   ]]>
  </style>
 </defs>
 <g id="Слой_x0020_1">
  <metadata id="CorelCorpID_0Corel-Layer"/>
  <g id="_418656724848">
   <path class="fil0" d="M0 52c0,0 1,-1 1,-1l1 0c0,0 0,0 1,0 0,0 0,0 0,0 1,-1 4,-2 5,-2 1,0 4,-1 5,-2l1 0c1,0 1,-1 2,-1l4 -2c0,0 1,0 1,0l2 -1c1,-1 2,-1 2,-1 0,0 0,0 0,0 1,-1 0,-1 2,-1l2 -1c1,0 1,-1 1,-1 1,0 4,-1 5,-1l2 -1c1,0 1,0 1,0 0,0 -1,-1 -1,-1l0 0c0,0 0,0 0,-1 -1,0 -1,-1 -1,-1l0 0c0,0 0,0 0,0 1,0 1,0 1,1 0,0 0,0 0,1 1,0 1,0 1,0l0 0 1 0c0,0 0,0 0,0l0 0c0,0 0,0 0,0 0,0 0,0 0,0 1,0 3,0 4,0 0,0 0,0 -1,0 0,0 -1,0 -2,1 1,0 1,0 2,0 0,0 1,0 1,0 1,0 0,0 0,0 0,0 0,0 -1,1 0,0 -1,0 -1,0 -1,0 -1,0 -1,0 -3,1 -7,1 -9,2 -1,0 -1,0 -3,1l-1 0c0,0 0,0 0,0l-1 1c0,0 0,0 0,0l0 0c0,0 -1,2 -2,2 0,1 0,1 0,1 -1,1 -1,1 -1,1l0 0c0,0 0,0 0,0l0 -1c-1,0 -2,0 -2,1l0 0c-1,0 0,0 -1,0 0,0 0,0 0,1 0,0 -1,0 -1,0 0,0 0,0 0,0 0,0 0,0 0,0l0 0c-1,0 0,0 -1,0l0 0c0,0 0,0 0,0l-1 1c0,0 0,0 0,0 -1,0 -1,1 -1,1l0 0c0,0 0,0 0,0 -1,0 -1,0 -1,0 0,0 0,0 0,0 0,0 0,0 0,0 0,0 0,0 0,0 0,0 0,0 -1,1 0,0 0,0 0,0 0,0 0,0 0,0 0,0 0,0 -1,0l0 0c0,0 0,0 0,0l0 0c0,0 0,0 0,0l-1 0c0,0 0,0 0,0 0,0 0,0 0,0 0,0 0,0 -1,1 0,0 0,0 0,0l-1 0c0,0 0,0 0,0l-1 0c0,0 0,0 0,0 0,1 0,1 0,1 -1,0 -1,0 -2,0 0,0 -1,0 -1,0 0,0 0,0 -1,1 0,0 0,0 0,0 0,0 0,0 0,0l0 0c-1,0 -1,0 -1,0 0,0 0,0 0,0 -1,0 -4,0 -4,0l0 16 53 0c1,-1 0,-2 0,-2 1,0 1,0 1,0l0 -1c0,0 1,0 1,0 0,1 0,1 0,1 0,0 0,1 1,1 0,0 0,0 0,1l54 0 0 -69 -110 0 0 52z"/>
   <path class="fil1" d="M54 5c0,-1 0,-1 0,-1 0,0 0,0 0,0l0 0c0,0 0,0 0,1 0,0 0,0 0,1 0,0 1,0 0,0 1,0 1,0 1,0 0,0 0,0 0,0 1,0 0,0 0,0l1 0c0,-1 0,-1 0,-1 0,0 0,-1 0,-1 0,0 0,0 0,0l0 -1c1,1 0,6 0,6 1,1 0,0 1,1 0,0 0,-1 0,-1 0,1 0,1 0,1 0,0 0,0 0,0 0,0 0,0 0,0 1,0 1,0 1,0 0,0 0,0 0,0 0,0 1,1 1,0l0 0c1,0 0,0 1,0l2 0c0,-1 0,-1 0,-2l0 0c0,0 0,0 0,0l0 0c0,-1 0,-1 0,-1 0,0 1,0 1,0 0,0 0,0 0,-1 0,0 0,0 0,0 0,0 0,-1 0,-1l-1 -1c0,0 0,0 0,0l0 0c0,-1 0,-1 0,-1 0,0 0,0 0,0 0,0 0,0 0,0 0,-1 -1,-1 -1,-1 0,0 0,0 -1,0 0,0 0,0 0,0 -1,0 -2,-1 -3,-1 0,0 0,0 0,0 0,0 0,0 0,0 0,0 0,1 -1,1l0 -1c0,0 -2,0 -2,0 0,0 0,0 -1,0 -1,1 -3,1 -4,1 0,1 -1,1 -1,1 0,0 0,1 0,1 0,0 0,0 0,0l-1 1c0,0 0,0 0,1l0 0c0,0 0,0 0,1 0,0 0,0 0,1l0 0c1,0 0,0 1,0 0,0 0,1 0,1l0 0c0,0 0,0 0,0 0,0 0,0 0,0 0,1 0,1 0,1 1,0 2,0 3,0 0,0 0,0 0,0 1,0 1,0 2,0l0 0c0,0 0,-1 0,-1 0,0 0,0 0,0l0 0c0,0 0,0 0,0l0 -1 0 0c0,0 0,0 0,0 0,0 0,0 0,0 0,0 0,0 0,-1l0 0c0,0 0,0 0,1 0,-1 0,-1 0,-1l0 -1c1,-1 0,0 0,0 0,0 0,0 0,0 0,0 0,0 1,0 0,-1 0,-1 0,-1 0,0 0,0 0,0z"/>
   <path class="fil2" d="M47 40c1,1 2,2 2,3 -2,0 -2,0 -3,0 -1,0 -1,0 -2,0 0,0 -1,0 -1,1 0,0 0,0 0,0 1,0 0,0 1,0 0,0 0,0 0,0 0,0 1,-1 1,-1 1,0 1,0 1,0 0,1 0,1 0,1l0 0c0,0 0,0 0,0 0,0 0,0 0,0l0 1c-1,0 -1,0 -1,1 0,0 0,0 0,0 1,0 0,0 1,-1l0 0c0,-1 0,-1 1,-1l0 0c0,0 0,0 0,0 1,0 1,0 1,0 0,0 0,0 0,0 0,0 0,0 1,0 0,0 0,0 0,-1 0,0 0,0 0,0 0,0 0,0 0,0l0 1c0,0 0,0 0,0l0 0c0,0 0,0 0,0 0,1 0,0 0,0l0 0c0,0 0,0 0,0l0 0c1,0 0,0 1,0 0,0 0,0 0,0 0,0 0,-1 0,-1 0,1 0,1 0,1 0,0 0,0 1,-1 0,1 0,1 0,1l1 0c0,0 0,0 0,0l0 1c0,0 0,0 0,0 0,0 -1,0 -1,0 0,0 0,0 0,0 0,-1 0,-1 0,-1 0,1 0,1 0,1 -1,0 -1,0 -1,0l0 0c0,1 0,1 0,1l0 0c0,0 0,0 0,0 0,0 0,0 0,0 1,0 1,0 1,0 0,0 0,0 -1,1 0,0 0,0 0,0 0,0 0,0 0,0l0 0 2 -1c1,0 1,0 1,0 1,-1 1,-1 2,-1 0,0 0,0 -1,1 0,0 0,0 0,0 0,0 0,0 0,0 -1,0 -1,1 -1,0 -1,0 0,1 -1,1 0,0 0,-1 0,0l-1 0c0,0 0,1 0,1 -1,0 -1,0 -1,0 0,0 0,0 0,0 0,0 0,0 0,0 0,0 0,0 -1,0l0 0c-1,1 0,1 0,1 0,0 0,1 0,1 0,0 0,0 0,0 0,0 0,0 0,0 0,-1 0,0 0,0 0,-1 0,0 0,-1 0,1 0,1 0,1 0,-1 0,-1 0,-1 0,0 0,0 0,0l0 -1c1,1 0,0 1,1 0,0 0,0 0,0 0,0 0,0 0,1 0,0 0,0 0,-1 0,0 0,1 1,0 0,0 0,0 0,0 0,0 0,0 0,0l2 -1c-1,0 -1,0 -1,0 0,0 0,0 0,0 0,-1 1,-1 1,-1 0,-1 0,0 0,-1 1,0 1,0 1,0 0,0 0,0 0,0 0,0 0,0 0,0 1,0 0,0 0,0 0,0 1,0 1,0l0 0c0,0 0,0 0,0 1,0 1,0 1,-1 0,0 0,0 0,0 0,0 0,0 0,0 0,0 0,0 0,0 0,0 0,0 0,0 1,0 1,0 1,0 0,0 0,0 0,0l0 0c0,0 0,0 0,0 1,0 1,0 1,-1 0,0 0,0 0,0l0 0c0,0 0,0 1,0 0,0 0,0 0,0 0,0 0,0 0,1 0,0 0,0 0,0 0,0 0,0 1,0 -1,0 -1,0 -1,0l0 0c0,0 0,0 1,0 0,0 0,0 0,0 0,-1 0,-1 0,-1l0 0c0,0 0,0 0,0 0,0 0,0 0,0 0,-1 1,-1 1,-1 0,0 0,0 0,0 1,0 1,0 1,0 0,-1 0,0 1,0 1,-1 1,0 1,0 1,0 1,0 1,1 0,0 0,0 0,0 1,0 1,0 1,0 0,0 0,0 0,0 0,0 -1,0 -1,0 0,1 1,0 0,0l0 0c-1,1 -1,1 -2,1l0 0 -1 0c0,0 -1,0 -1,0 1,0 1,1 1,1 -1,0 -1,0 -1,0 0,0 1,0 1,0 0,-1 0,0 1,0 0,-1 0,-1 0,-1 0,0 1,0 2,0 -1,1 0,0 -1,1 0,0 0,0 -1,0 0,0 0,0 0,0 0,0 1,0 1,0 0,0 2,0 2,0 0,-1 0,0 0,-1 0,0 0,0 0,0l0 0c0,1 0,1 -1,1l0 0c0,1 0,0 1,1 0,0 0,0 0,0 0,0 0,0 0,0 0,1 0,0 0,1 1,-1 1,-1 2,-1 0,0 0,0 0,0 0,0 0,0 0,0 0,0 0,0 1,0 0,0 0,0 0,0l0 0 1 0c0,0 0,0 0,0l0 -1c0,0 0,1 0,1 1,0 0,-1 1,-1 0,0 0,0 1,0l-1 0c0,-1 0,-1 0,-2 0,0 0,0 0,1 0,-1 0,-1 0,-1 0,0 0,0 0,0 0,0 1,0 1,0l-1 0c1,0 1,0 1,0 0,0 0,0 1,0 0,0 0,0 0,0 0,0 0,0 1,0l0 0c0,0 0,0 0,0l0 0c0,0 0,0 0,0 0,0 0,0 0,0 1,0 1,0 1,0 0,0 0,0 0,0 0,-1 0,0 0,-1l0 0c1,0 0,0 1,0 0,0 0,0 0,0 1,0 0,1 1,0 0,0 0,0 0,0 0,0 0,0 0,0 0,0 0,0 0,0 0,0 0,-1 0,-1 1,0 1,0 1,1 0,0 0,1 0,1 0,0 0,0 0,0 0,0 0,0 0,0l0 0c0,0 0,0 0,0l0 0c1,1 1,1 1,2 0,0 0,0 -1,0 0,0 0,0 0,0 0,0 0,1 1,1 0,0 0,0 0,0 -1,0 -1,-1 -1,0 -1,0 -1,0 -1,0 0,0 0,0 0,0 0,0 0,0 0,0 0,0 0,0 0,1l-1 0c1,0 1,0 1,0 1,0 1,0 1,0 1,0 0,-1 0,0 0,0 1,0 1,0 0,0 0,0 0,0 0,0 0,0 0,0 0,-1 0,-1 0,-1 0,0 0,0 0,0 0,0 0,0 1,0 0,0 0,0 1,0l0 0c0,0 0,0 0,0 0,0 0,0 1,0 0,0 0,0 0,0 -1,-1 -1,-1 -1,-1 -2,0 -2,0 -2,0 0,-1 0,-2 0,-2 0,-1 0,-2 1,-2 0,0 0,0 0,0 0,0 0,0 0,0l0 0c0,0 -1,-1 -1,-1 -1,0 -1,0 -1,0 0,0 -1,0 -1,0 -1,0 -2,0 -3,-1 0,0 0,0 0,0 -1,0 -2,0 -2,0 0,1 -1,1 -1,1 0,1 -1,1 -1,1 0,1 0,1 -1,2 0,0 0,0 0,0 0,1 0,1 -1,1 0,-1 0,-1 0,-2 0,0 0,0 0,0 0,1 0,1 0,2l-2 0c-1,-1 0,-1 -1,-2 0,0 0,0 0,0 -1,0 -1,-1 -2,-1 0,0 -1,0 -1,0 0,0 1,-2 1,-2 0,0 2,-1 2,-1 0,0 -1,0 -1,0 -2,1 -2,1 -3,3 0,0 0,0 0,0 -1,0 -3,1 -4,1 0,-1 0,-3 0,-4l0 0c0,0 0,3 0,4 -1,0 -1,0 -1,1 -1,0 -1,0 -1,0l0 0c-1,0 -1,0 -2,0 1,0 0,-3 0,-3 0,-1 0,-2 0,-2 0,0 0,0 0,0 0,1 0,2 0,3 0,0 0,1 0,2 0,0 -1,-1 -1,-1 -1,0 -2,0 -3,0 0,0 0,-1 0,-1 0,0 0,0 0,-1 -1,-1 -2,-2 -3,-2 0,0 0,0 -1,0 0,0 -1,0 -1,0 0,0 1,0 2,0 0,1 1,1 1,1z"/>
   <path class="fil3" d="M37 36l0 0c1,0 1,0 1,0 1,1 0,1 0,1 0,0 0,0 0,0l2 0c0,0 -1,0 -1,0 0,0 0,0 0,0 0,0 0,0 0,0l1 0c0,1 0,1 0,1 -1,0 -1,0 -1,0 -1,0 -1,0 -1,0 -1,0 -1,0 -1,1 -1,0 -1,0 -2,0l-3 0c-1,0 -1,0 -2,1 0,-1 0,0 0,-1 0,0 0,1 -1,1l-2 1c-2,0 -1,0 -2,1 0,0 0,0 0,0 0,0 -1,0 -2,1l-2 1c0,0 -1,0 -1,0l-4 2c-1,0 -1,1 -2,1l-1 0c-1,1 -4,2 -5,2 -1,0 -4,1 -5,2 0,0 0,0 0,0 -1,0 -1,0 -1,0l-1 0c0,0 -1,1 -1,1l0 1c0,0 3,0 4,0 0,0 0,0 0,0 0,0 0,0 1,0l0 0c0,0 0,0 0,0 0,0 0,0 0,0 1,-1 1,-1 1,-1 0,0 1,0 1,0 1,0 1,0 2,0 0,0 0,0 0,-1 0,0 0,0 0,0l1 0c0,0 0,0 0,0l1 0c0,0 0,0 0,0 1,-1 1,-1 1,-1 0,0 0,0 0,0 0,0 0,0 0,0l1 0c0,0 0,0 0,0l0 0c0,0 0,0 0,0l0 0c1,0 1,0 1,0 0,0 0,0 0,0 0,0 0,0 0,0 1,-1 1,-1 1,-1 0,0 0,0 0,0 0,0 0,0 0,0 0,0 0,0 0,0 0,0 0,0 1,0 0,0 0,0 0,0l0 0c0,0 0,-1 1,-1 0,0 0,0 0,0l1 -1c0,0 0,0 0,0l0 0c1,0 0,0 1,0l0 0c0,0 0,0 0,0 0,0 0,0 0,0 0,0 1,0 1,0 0,-1 0,-1 0,-1 1,0 0,0 1,0l0 0c0,-1 1,-1 2,-1l0 1c0,0 0,0 0,0l0 0c0,0 0,0 1,-1 0,0 0,0 0,-1 1,0 2,-2 2,-2l0 0c0,0 0,0 0,0l1 -1c0,0 0,0 0,0l1 0c2,-1 2,-1 3,-1 2,-1 6,-1 9,-2 0,0 0,0 1,0 0,0 1,0 1,0 1,-1 1,-1 1,-1 0,0 1,0 0,0 0,0 -1,0 -1,0 -1,0 -1,0 -2,0 1,-1 2,-1 2,-1 1,0 1,0 1,0 -1,0 -3,0 -4,0 0,0 0,0 0,0 0,0 0,0 0,0l0 0c0,0 0,0 0,0l-1 0 0 0c0,0 0,0 -1,0 0,-1 0,-1 0,-1 0,-1 0,-1 -1,-1 0,0 0,0 0,0l0 0c0,0 0,1 1,1 0,1 0,1 0,1l0 0z"/>
   <path class="fil3" d="M43 47c0,0 0,0 0,0 0,0 0,0 0,0 0,0 0,0 0,0 1,0 1,1 1,1 -1,0 -1,0 -1,0 0,0 0,0 0,-1 0,0 0,0 -1,0 0,0 0,1 0,1 0,0 0,0 0,0 0,0 -1,0 -1,0l0 0c-1,0 0,0 -1,0 0,0 1,0 1,0 0,0 0,0 0,0 0,0 0,0 0,-1 0,1 0,0 -1,1 0,0 0,0 0,0 0,0 0,0 0,1 0,0 0,0 0,0 -1,1 -1,1 -1,1 0,0 0,0 0,-1 0,0 0,0 0,0l-1 0c0,1 0,0 0,1l0 0c0,1 0,1 0,1 0,0 0,0 0,0 -1,0 -1,0 -1,0 0,0 0,0 0,0 0,0 0,0 0,0l0 0c0,0 0,0 0,0l0 0c0,0 -1,0 0,0 0,0 0,0 0,0 0,0 0,0 0,0 0,0 0,0 0,1l-1 0c0,-1 0,0 0,0 0,0 0,0 0,0 0,0 0,0 0,0l1 0c0,1 0,0 0,1 0,0 0,0 0,0 0,0 0,0 0,0 0,0 0,0 0,0 0,0 0,0 1,0 0,0 0,0 0,0l0 -1c0,0 0,0 0,0 0,-1 0,-1 0,-1 0,0 0,-1 0,-1 0,0 0,0 1,0 0,0 0,0 0,0l0 0c0,1 0,0 0,0 0,1 0,1 0,1 0,0 0,0 0,0l-1 1c1,0 0,0 0,1 1,0 0,0 1,0 0,0 0,0 0,-1 0,1 0,1 0,1 1,-1 1,-1 1,-1l0 1c1,0 1,0 1,0l0 0c0,0 0,0 0,0 0,0 0,0 0,0 0,-1 0,0 0,-1 0,0 0,0 0,0 0,0 0,0 1,0l0 0c0,0 0,0 0,0 0,-1 0,0 0,-1 0,0 0,0 0,0 -1,0 -1,1 -1,1 0,0 0,-1 0,-1 -1,0 -1,1 -1,0 0,0 0,0 0,0l0 0c1,0 0,0 1,0l0 0c0,0 0,0 0,0 0,0 0,0 0,0 0,0 0,0 0,0l0 0 1 0 0 0 0 0c0,0 0,0 0,0 0,0 0,0 0,0 0,-1 0,-1 0,-1 0,0 0,0 0,0 0,0 0,0 0,0 0,0 0,0 0,0l1 -1c0,0 0,0 0,0 0,0 0,0 1,0 0,0 0,0 0,0 0,0 0,0 0,0l0 -1c0,0 0,0 1,0l0 0c0,0 0,0 0,0 0,0 0,0 0,0 0,1 -1,1 -1,1 0,0 0,0 1,0 0,0 0,0 0,0 0,0 0,0 0,0 -1,0 -1,0 -1,0 0,0 0,0 0,0l0 1c0,0 0,0 0,0 0,0 0,0 0,0l1 1c-1,0 -1,0 -1,0 0,0 0,1 0,1 0,0 0,0 0,0l1 0 -1 0c0,0 0,0 0,0 0,-1 1,-1 1,0 0,0 0,0 1,0l0 -1c0,0 -1,0 -1,-1 0,0 0,1 0,0 1,0 0,0 1,0l0 0c0,0 0,0 0,0 0,0 0,0 0,0 0,0 0,1 0,1 0,0 0,0 1,0 0,0 0,0 0,0l0 1c0,0 0,0 0,0 0,0 0,0 0,1 0,0 0,0 0,0l1 1c0,0 0,1 1,1l0 0c0,0 0,0 0,0 0,0 0,-1 0,-1l0 0c0,0 0,0 0,0 0,0 0,0 0,0 -1,0 -1,0 -1,-1 0,0 0,0 0,0 0,0 0,0 0,0 0,0 0,0 0,0 -1,-1 0,-2 -1,-2 0,0 0,-1 0,-1 -1,0 -1,-1 -1,-1 1,-1 0,0 1,-1 0,1 0,1 0,1 0,0 0,0 0,0 0,0 0,-1 0,-1 0,0 0,0 0,-1l0 0c0,1 0,1 -1,1 0,0 1,0 0,0 0,0 0,0 0,0 0,0 1,-1 1,-1 0,0 -1,0 -1,0 0,0 0,0 0,0 0,0 0,0 0,0 0,1 0,1 0,1 0,0 0,0 0,-1 0,1 0,1 0,1l-1 0c0,0 0,0 0,0 0,0 0,0 0,0 0,0 0,0 0,-1 0,0 0,0 0,0l0 0c1,0 1,0 1,-1 1,0 1,0 2,0 -1,0 -1,0 -1,0 0,0 1,-1 1,-1 0,0 0,0 0,0 0,-1 0,0 0,-1 0,0 0,0 -1,1 0,0 0,0 0,0 0,0 0,0 -1,0 0,0 0,0 0,0 0,1 -1,1 -1,2 0,-1 0,-1 0,-1 0,0 0,0 0,0l0 0c0,-1 0,-1 1,-1l0 -1c0,0 0,0 0,0 0,0 0,0 0,0l0 0c0,0 0,0 -1,0 0,0 -1,0 -1,0 0,0 0,0 0,0 0,1 0,1 0,1l0 0 1 0 0 0c0,-1 0,0 0,-1 0,0 0,0 0,0 0,1 0,1 0,1 0,0 0,0 0,0 0,0 0,1 0,1 0,1 0,1 0,1 0,0 -1,-1 -2,0l0 0z"/>
   <path class="fil4" d="M33 42l-1 0 1 1c0,0 0,0 0,0 -1,0 -1,0 -1,0 -1,0 -1,1 -1,1l1 0c0,0 -1,0 0,0 0,0 0,0 0,0 -1,0 -1,0 -1,1l-1 0 2 0c1,0 0,0 1,0 0,0 0,0 1,0 0,0 1,0 1,1 1,0 0,0 1,0 0,0 0,0 0,0 0,0 0,0 1,0 0,1 0,1 0,1 0,0 0,0 0,0 0,1 0,1 0,1 1,0 1,0 1,0 0,0 0,0 0,0 -1,1 -1,1 -1,1 0,0 0,0 0,0l0 0c0,0 0,0 0,0 0,0 -1,0 -1,0l0 0 0 0c0,0 0,0 0,0 0,0 -1,0 0,1 0,0 0,0 0,0l0 0c0,0 0,0 0,0 0,0 0,0 0,0 0,0 0,0 0,0 0,0 0,0 0,0 0,0 0,0 0,0l0 1c0,0 0,0 0,0 0,0 0,0 0,0l1 0 0 0c0,0 0,0 0,0l0 0c0,0 0,0 0,0 0,0 0,0 0,0 0,0 0,0 1,0 -1,-1 -1,-1 0,-1 -1,0 0,0 -1,0 0,0 0,0 0,0l0 1c-1,0 -1,0 -1,0l1 -1c0,0 0,0 0,0 0,0 0,-1 0,-1 1,0 1,0 1,0 0,-1 0,-1 0,-1 0,0 0,0 0,0 0,0 0,0 1,0 0,-1 1,-1 2,-1 0,0 0,0 0,0 1,0 1,-1 1,-2 0,1 0,0 0,1 0,0 0,0 0,0l0 0c0,0 -1,-1 -1,-1l-1 -3c0,0 0,0 0,0 -1,0 -1,-1 -1,-1 0,1 0,1 0,2 0,0 0,1 0,1l0 0c0,0 0,-1 0,-1 -1,0 0,0 -1,0l0 0c0,0 0,0 0,0l-1 0c0,0 0,0 0,0 0,0 0,0 0,0 -1,0 -1,0 -1,0 -1,0 -1,0 -1,0l-1 0c0,0 0,0 0,0l0 0c0,0 0,0 0,0l-1 0 0 -1z"/>
   <path class="fil5" d="M77 43c0,0 0,1 0,1 0,0 -1,1 -1,1 0,0 1,0 0,0 0,0 0,0 0,0 -1,0 -1,0 -1,0 0,0 0,0 0,0 0,0 0,0 0,0 0,0 0,0 0,0 -1,0 0,0 -1,0 0,0 0,0 0,0 -1,0 0,1 -1,0 0,0 0,0 0,1 0,0 0,0 0,0l0 0c0,0 0,-1 0,0 0,0 0,0 -1,0l1 1c-1,-1 -1,-1 -1,-1 0,0 0,0 0,0 0,1 1,1 1,1 0,0 0,0 0,0l0 0c1,1 1,1 1,1 0,0 0,0 0,0 0,0 0,1 0,1 0,0 0,0 1,0 0,0 0,-1 0,-1 0,0 1,-1 2,-1 0,0 0,0 0,0 0,0 0,1 -1,1 0,0 0,1 0,1 0,0 0,0 0,0 1,0 1,0 2,0 0,0 0,0 0,0l-1 0c0,1 0,1 0,1l-1 0c0,0 0,0 0,1 0,0 0,-1 0,0 0,0 0,0 0,0 0,0 0,0 0,0 0,0 0,0 0,0 0,0 0,0 0,0 0,0 0,0 0,1 0,0 0,0 0,0l0 0c0,0 0,0 0,0 0,0 0,0 0,0 0,0 0,0 0,0l0 0c0,0 0,0 0,0 0,0 0,0 0,0 1,0 1,0 1,0 0,0 0,0 -1,0 1,0 1,0 1,0 0,0 0,0 0,0 1,0 0,0 1,0l0 0c0,0 0,0 0,0l0 0c-1,0 0,0 -1,0l0 0c0,0 0,0 0,0l0 -1c-1,0 -1,0 -1,0 0,0 1,0 1,0l1 0c1,0 1,0 2,0 0,0 0,0 0,0l0 -1c0,0 0,0 0,0l1 0c1,0 1,0 1,0 -1,-1 -1,-1 -1,-1 0,0 0,0 -1,0 0,0 0,0 0,0 0,0 -1,0 -1,0 0,0 1,0 1,0l0 0c0,0 0,0 0,0l1 0 0 0c1,0 0,0 1,0 0,0 0,0 0,0l1 0c0,1 0,0 0,1 1,0 1,0 1,0l0 0c0,0 0,0 0,-1 0,0 0,1 0,0 1,0 1,0 1,0 -1,0 -1,0 -1,0 0,0 -1,0 -1,0 0,0 0,0 0,0l0 0 -1 0c0,0 0,0 0,0 0,0 0,0 0,0 0,-1 0,-1 0,0 1,0 1,0 1,0 0,-1 0,-1 0,-1 0,0 0,0 0,0l-1 0c0,0 0,0 0,0 0,0 0,0 0,0 0,0 0,0 0,0 0,0 0,0 0,0l0 0 0 0c0,-1 -1,-1 -1,-1 0,0 0,0 0,0l0 0c-1,0 -1,0 -1,0 -1,0 -1,0 -1,0 0,0 0,0 0,0 0,0 0,0 0,1 0,0 0,0 0,0 0,0 0,0 0,0 0,0 -1,0 -1,0 0,-1 1,0 0,0 0,0 0,0 -1,0 0,0 0,0 -1,0l1 0c0,-1 0,-1 0,-1 0,0 0,0 0,0 0,0 0,0 0,0 0,0 0,0 1,0 0,-1 0,0 1,0 0,0 0,0 0,0 -1,0 -1,-1 -1,-1 0,0 0,0 0,0 1,0 1,0 1,0 0,-1 0,-1 -1,-2l0 0c0,0 0,0 0,0l0 0c0,0 0,0 0,0 0,0 0,0 0,0 0,0 0,-1 0,-1 0,-1 0,-1 -1,-1 0,0 0,1 0,1z"/>
   <path class="fil6" d="M82 50c0,0 0,0 -1,0l-1 0c0,0 0,0 0,0l0 1c0,0 0,0 0,0 -1,0 -1,0 -2,0l-1 0c0,0 -1,0 -1,0 0,0 0,0 1,0l0 1c0,0 0,0 0,0l0 0c1,0 0,0 1,0l0 0c0,0 0,0 0,0l0 0c-1,0 0,0 -1,0 0,0 0,0 0,0 0,0 0,0 -1,0 1,0 1,0 1,0 0,0 0,0 -1,0 0,0 0,0 0,0 0,0 0,0 0,0 0,0 0,0 0,0l-1 0c0,0 -1,0 -1,0l-1 0c0,0 0,0 0,-1 0,0 0,0 0,0 0,0 0,0 0,0l0 0c0,0 0,0 0,0 0,0 0,0 0,0 0,0 0,0 0,0 0,0 0,0 0,0 0,1 0,1 0,1 -1,0 -1,0 0,0l-1 1c0,0 0,0 1,0l-1 0c0,0 0,0 0,0l1 0c0,0 0,0 0,0 -1,0 -1,0 -1,0l0 1c0,0 0,0 0,0 0,1 0,1 0,1 0,0 0,0 0,0l0 0c0,1 0,1 0,2 0,0 0,1 0,2l0 0c0,0 0,0 0,0 0,0 0,0 0,0 0,0 0,1 0,1l-1 1c0,0 0,0 0,0l0 0c0,0 0,0 0,0l0 0c0,1 0,1 0,1 0,0 0,0 0,0 0,0 0,0 0,0l0 0c0,0 0,0 0,0 0,1 0,1 0,1l0 0c0,0 0,0 0,0 0,1 0,1 0,1 -1,0 0,0 0,0 0,0 0,0 0,0 0,0 0,0 0,0 0,0 0,-1 0,-1 1,0 1,-1 1,-1 0,0 0,-1 0,-1l1 -3c0,-1 0,-1 0,-1l0 0c0,0 0,0 0,0l0 1c1,0 1,0 1,0 0,0 0,0 0,0l0 0c0,0 0,0 0,-1 0,0 0,0 0,0l0 0c0,0 1,0 1,0 0,0 0,0 0,0 1,1 0,0 1,0 0,0 0,1 0,1l0 -1c0,0 0,0 0,0 -1,0 -1,0 -1,0l0 0c0,0 -1,0 -1,0l-1 0 0 -2c0,0 0,0 0,0l1 0c0,0 0,0 0,1 0,0 0,0 1,0 0,-1 0,-1 0,-1 0,0 0,0 1,0l0 0c0,0 0,0 0,0l-1 -1c0,0 -1,0 -1,0l0 0c-1,0 0,0 -1,0 0,0 0,0 0,0l0 0c0,0 0,0 0,0l0 0c0,0 0,0 0,0l0 0c0,1 0,0 0,1 0,-1 0,-1 0,-1 0,0 0,0 0,0 0,-1 0,-1 0,-1 0,0 0,0 0,0 1,1 1,1 1,1 0,0 0,0 0,0 0,0 0,0 0,0 0,-1 -1,-1 -1,-2 0,0 0,0 0,-1 0,1 1,1 1,1 0,1 0,0 0,0 0,1 0,1 0,1 1,0 1,0 2,0 0,0 0,0 0,0 0,0 0,0 0,0 0,0 1,0 1,0 0,0 0,0 0,0 0,0 -1,0 0,0 0,0 0,0 0,0 0,0 0,0 0,0 0,0 0,0 0,0l1 0c0,1 0,0 0,1 0,-1 0,0 0,-1 0,0 0,0 0,0 1,0 1,0 1,0l0 0c0,0 1,0 1,0 0,0 0,0 0,0 0,0 0,0 0,0 0,0 0,0 1,0 0,0 0,0 0,0 0,0 0,0 0,0l-1 0c0,0 0,0 0,0 0,0 0,-1 0,-1 0,0 0,0 1,1l1 0c0,0 0,0 0,0 0,0 0,0 0,0 -1,-1 -1,-1 -1,-1 0,0 -1,0 -1,-1 1,0 1,1 1,1 0,0 0,0 1,0l0 1c1,0 1,1 1,1 1,0 0,0 0,0 0,-1 0,-1 0,-1 0,0 0,0 -1,0 0,-1 0,-1 0,-1 0,0 0,0 0,0 0,0 0,0 0,0 1,0 0,0 1,0 0,0 0,0 0,0 0,0 0,0 0,0l0 0c0,0 0,0 0,0 0,0 0,0 0,0 0,0 0,0 0,-1 1,0 1,1 1,1 0,0 0,-1 0,-1 -1,0 -1,0 -1,0 0,0 0,0 0,0 0,-1 -1,-1 -1,-1 0,0 0,0 0,0 0,0 0,0 0,0 0,0 0,0 0,0 -1,0 0,0 0,0z"/>
   <path class="fil7" d="M46 13l-1 0c1,0 1,-1 1,-1 0,0 0,0 0,0l0 0c0,0 0,0 0,0l0 0c0,0 0,0 0,0l0 -2c-1,0 0,-1 -1,-1l0 1c0,0 0,0 0,0 -1,1 0,2 -1,3 0,0 0,0 0,0l0 1c0,-1 0,-2 0,-3 0,-1 0,-1 0,-1 0,-1 0,-1 0,-2 0,0 0,0 0,0 0,0 1,0 1,-1 0,0 0,0 0,0l0 0c0,-1 0,-1 0,-1 1,-1 1,-2 2,-2 0,0 0,0 0,0l0 -1 0 0c-1,0 -1,1 -2,1 -1,2 -2,4 -2,5 0,3 0,5 -1,7 0,0 0,1 -1,2 0,2 -1,4 -2,7 0,1 -3,7 -3,7 1,-2 2,-4 3,-5 1,-2 1,-5 2,-7 1,-2 3,-5 5,-7z"/>
   <path class="fil0" d="M54 2c-1,0 -1,0 -1,0 -1,0 -1,0 -1,0l0 0c-2,1 -1,0 -2,1l-1 0c0,0 0,0 0,0l0 0c0,0 -1,0 -1,1 0,0 0,0 0,0 0,0 0,0 0,0l0 1c0,0 0,0 0,0 0,0 -1,1 0,1l0 1c0,0 0,0 0,0 0,0 0,0 0,0 0,0 0,1 0,1 0,0 0,0 1,0 0,0 0,0 0,0 0,0 0,0 0,1 0,0 0,-1 0,0 0,0 0,0 0,1l1 0c0,0 0,0 1,-1 0,0 0,0 0,0 0,0 0,0 0,0 0,0 0,0 0,-1l0 0c0,0 0,0 1,0 0,-1 0,-1 0,-1 0,0 0,0 0,0 0,0 0,0 0,0l0 0c0,-1 0,0 0,-1 0,0 1,0 1,0 0,-1 0,-1 0,-1l0 -1c0,0 0,0 0,0 1,0 1,0 1,-1l0 -1c0,0 0,0 0,-1 0,1 0,1 0,1z"/>
   <path class="fil6" d="M69 47c0,0 0,0 0,0 -1,0 -1,0 -1,0 0,0 0,0 0,0 0,0 0,0 0,0 -1,0 -1,0 -2,1 0,-1 0,0 0,-1l0 1c0,0 0,0 -1,0 0,-1 0,0 0,-1 0,0 0,0 0,0 0,0 -1,0 0,1 0,0 0,0 1,0 0,0 0,0 0,0 0,0 0,0 0,0l0 0c0,1 0,1 1,1 0,0 0,-1 1,0 0,0 0,0 0,0 0,0 0,-1 0,-1 1,0 1,0 1,1 0,0 0,0 0,0 -1,0 -1,0 -1,0 0,0 0,0 0,0 0,0 0,0 0,1 1,0 1,0 1,-1 0,0 0,0 0,0l0 0c0,0 0,-1 1,-1 0,0 0,0 0,0 0,0 -1,0 -1,-1 1,0 1,0 1,0 0,0 0,0 1,0 0,1 -1,0 -1,1l0 0c0,0 0,0 0,0l0 1c0,0 0,0 0,0l0 0c0,0 -1,0 0,1 0,0 0,0 0,0 0,-1 0,-1 0,-2 1,0 1,0 1,0 0,0 0,0 1,0 0,0 0,0 -1,1l0 0c0,0 0,0 0,0 0,0 0,0 0,0 0,0 0,0 0,1 0,0 0,0 1,0 -1,0 -1,0 -1,0 -1,0 -1,0 -1,0l0 0c0,0 -1,0 -2,0 -1,0 -1,0 -1,0 0,0 -1,0 -1,0 0,0 0,0 -1,0 -1,0 -1,0 -2,1l0 0c0,0 0,0 0,0 0,0 0,0 0,0 0,0 0,0 0,0 0,0 0,0 0,0 0,0 1,0 1,0 0,0 -1,0 -1,0 0,0 0,0 0,0 -1,0 0,0 -1,0 0,0 0,0 0,0 1,1 1,0 1,1 -1,0 -1,0 -1,0 0,0 0,0 0,1l0 0c0,1 0,0 0,0 0,0 0,0 0,0 0,0 0,0 0,0 0,0 0,0 0,-1 0,0 0,0 0,0l1 0c0,1 0,0 0,1 0,0 0,0 0,0l0 0c1,0 0,0 0,0l1 0c0,0 0,0 0,0l0 0c0,0 0,0 1,0 0,0 0,0 0,0l0 0c0,0 0,0 0,0 1,0 2,0 2,0l1 0c0,0 0,0 1,0 0,0 0,0 0,0l0 0c1,0 1,0 1,0 0,0 0,0 0,0 0,0 0,0 0,0l-1 0c0,0 0,0 0,0 0,0 0,0 0,0 0,-1 0,-1 0,-1 0,0 0,0 -1,1 0,0 0,-1 0,0 0,-1 0,-1 0,-1 0,0 0,0 0,0 0,0 0,0 0,0l0 0c-1,0 0,0 -1,0 0,0 0,0 1,0 0,0 0,0 -1,0l0 0c0,0 0,0 0,0l0 0c0,0 0,0 0,0l0 0c0,0 0,0 0,0 -1,0 -1,0 -1,0 0,0 0,0 0,0l0 0 0 0 0 0c0,0 0,0 0,0 0,-1 0,-1 0,-1 0,0 0,1 0,0 1,0 1,0 1,0 0,0 0,0 0,0l1 0c0,0 -1,0 -1,0 0,0 0,0 0,0 1,0 3,0 3,0 0,0 1,0 1,0 0,0 0,0 0,0l1 0c-1,0 0,0 -1,0 0,0 0,0 0,0 0,0 0,0 0,0 0,0 0,0 0,0 1,0 1,0 1,0 0,0 0,0 0,0 0,0 0,0 0,0 0,0 0,0 0,0 0,0 0,0 0,-1 0,0 0,0 1,0 -1,0 -1,-1 -1,-1 0,0 1,0 0,-1 0,0 0,0 0,0 0,0 0,0 0,0 0,0 0,0 0,-1l0 0c0,0 -1,0 -1,0 0,0 -1,0 -2,0 0,1 0,0 0,1l-1 -1c0,0 0,0 0,0 0,0 0,0 0,0l0 0c0,1 0,1 0,1 -1,0 -1,0 -1,0 -1,0 -1,0 -1,0 0,0 0,0 0,0 1,0 1,0 1,0 0,0 2,-1 2,-1 2,0 1,0 2,0l1 -1c-1,0 -1,0 -1,0 0,1 0,1 -1,1 -1,0 0,0 -1,0z"/>
   <path class="fil3" d="M48 27c0,0 1,-1 1,-1 0,1 0,1 1,1 -1,0 -1,0 -1,1 1,-1 0,0 1,0 -1,-1 0,0 0,-1 0,0 0,0 0,0 0,0 0,0 0,0 0,0 0,0 0,0 0,0 0,0 0,0 0,0 0,0 0,0 0,0 1,0 1,0l0 0c0,0 0,0 0,0 0,0 0,0 0,0 0,0 0,0 0,0 0,0 0,0 0,0 1,0 1,0 1,0 0,0 -1,0 -1,0 0,-1 0,-1 0,-1 0,-1 0,0 0,-1l0 1c1,0 1,0 1,0l0 0c1,-1 0,0 1,-2 0,1 0,1 0,1 0,1 0,1 0,1 0,0 0,0 0,0l0 0 0 -2c0,0 0,0 0,0l0 -1c0,0 -1,1 -1,1 0,1 0,1 0,1 0,0 0,0 0,0 -1,0 -1,0 -1,0 0,0 0,0 0,0 0,0 0,0 0,0 0,0 0,0 0,0 0,-1 0,0 0,-1 0,0 0,0 0,0l2 -2c0,-1 1,-2 1,-2 0,-1 0,-1 0,-1 0,0 0,-1 0,0l0 -1c0,0 0,0 0,0l0 0c0,0 0,0 0,0 1,0 2,0 2,0 1,1 0,1 0,2l2 2c0,0 0,0 0,0l1 2c0,0 0,0 0,1 0,0 0,0 1,0l0 2c0,0 0,0 0,0 0,0 0,0 0,0l0 0c0,0 1,-1 1,-1 0,0 1,1 1,1 0,0 0,0 0,0 0,0 0,0 0,0 0,-1 0,-1 0,-1 -1,0 0,0 -1,0 0,0 0,0 0,0l0 0c0,0 0,0 0,0 -1,0 0,0 -2,-1l0 -1c0,-1 0,-1 0,-1 0,0 0,0 0,0 0,0 0,0 0,0l0 0c0,0 0,0 0,0 0,0 0,0 0,0l0 -1c0,1 0,1 0,1 0,0 0,0 0,0l1 1c0,0 0,1 0,0 0,0 0,0 0,0 0,-1 -1,-1 -1,-2 0,0 0,0 0,0 1,0 0,0 1,0 0,0 0,0 0,1 0,-1 -1,-1 0,-1l1 0c0,0 0,0 0,0l0 -1c0,0 0,0 0,0l0 0c0,0 0,0 1,0 0,0 0,0 0,-1l-1 0c1,0 2,0 2,0 0,0 0,0 0,0 0,0 0,0 0,0 0,0 0,1 0,1 -1,1 -1,3 -1,4 0,0 0,0 0,-1l0 0c0,0 0,0 0,0l1 -3c0,0 0,-1 0,-1 0,0 -1,0 -1,0 0,0 0,0 0,-1 0,1 0,1 0,0 0,0 1,0 1,0 -1,-1 -2,-1 -3,-1 0,0 0,0 0,0 0,0 1,0 1,0 -1,0 -2,0 -3,0 0,0 0,0 -1,0 0,-1 0,-1 0,-1 0,1 0,1 1,1l1 1c0,0 0,0 0,0 0,0 0,0 0,0 0,0 1,0 1,0 0,0 0,0 0,0 0,0 0,0 0,0 0,0 0,0 0,0l0 0c0,1 0,2 0,3 -1,0 -1,-1 -2,-1 0,-1 0,-1 0,-1 -1,0 -1,0 -1,0 0,-1 0,0 0,-1l0 0c0,0 0,0 0,-1l0 0c0,0 0,0 0,0l0 0c0,0 0,0 -1,0l0 0c0,0 0,0 0,0l0 0c0,0 0,-1 -1,0 0,-1 0,0 0,-1 0,0 0,0 0,0 0,0 -1,0 -1,0l0 0 0 0c0,0 0,0 0,1 0,0 0,0 0,0 -1,0 0,0 -1,0l0 0c0,0 0,0 0,0 0,1 0,1 0,1 0,0 0,0 0,0l0 1c0,0 -1,2 -1,2l-1 2c0,0 0,1 -1,1l0 1c0,0 -1,0 -1,1 0,-1 0,0 0,-1 0,0 0,0 0,0 0,0 0,0 0,0l0 0c0,0 0,0 0,0 0,0 1,-1 1,-2l3 -3c0,-1 0,0 0,-1 0,0 0,0 -1,1 0,0 0,0 0,0l-3 4c0,0 0,1 0,1 -1,-1 -1,0 -1,0 0,0 0,0 0,1 0,0 0,0 0,0 0,0 0,0 0,0z"/>
   <path class="fil8" d="M69 53c0,0 0,0 -1,0 1,0 1,0 1,0l1 0c0,0 0,0 0,0 0,0 0,0 0,0 0,0 0,0 0,0 0,0 0,0 0,0 0,0 0,0 0,0 0,0 0,0 0,0 0,0 0,0 0,0 0,1 0,1 0,1l0 0c0,0 0,0 0,0 0,0 0,-1 0,0 0,0 0,0 0,0l0 0c0,0 0,0 0,0 0,0 1,0 1,0l0 0c0,0 0,0 0,0 0,0 0,0 0,0l-1 0c0,0 0,0 0,0 0,0 0,0 0,0 0,0 0,0 0,0l0 0c0,0 0,0 0,0 0,0 0,0 0,0l0 1 0 0c0,0 0,0 0,0 0,0 0,0 0,0l0 0c0,0 0,0 0,0 0,0 0,0 0,0l0 0c0,0 1,0 0,0 0,1 0,1 0,1 0,0 0,0 0,0 0,0 0,0 0,0 0,0 0,0 0,0 0,1 0,0 0,0l0 0c0,1 0,1 0,1 0,0 0,0 0,0 0,0 0,0 0,0 0,0 0,0 0,0l0 0c0,0 0,0 0,0 0,0 0,0 0,0 0,0 0,0 -1,0l-1 -1c0,0 0,0 0,0l0 -1c0,0 0,0 0,0l0 0c0,0 -1,0 -1,-1 0,0 0,0 -1,0 0,-1 -1,-1 -2,-1 0,0 1,0 0,0 0,0 0,0 -1,0l0 0c0,1 0,0 0,0 0,0 1,0 1,1l0 0c0,0 0,0 0,0 0,0 0,0 0,0l0 0c0,0 0,0 0,0l0 0c0,0 0,0 0,0 0,0 0,0 0,0 1,0 1,0 1,0 0,0 0,0 0,0 0,0 0,0 0,0 0,0 0,0 0,0 0,1 0,1 0,1 1,0 0,0 0,0 1,0 1,0 1,0 -1,0 -1,0 0,0l0 0c0,0 0,0 0,-1 0,0 0,0 0,1 0,0 0,0 0,0 0,0 0,0 0,0 0,0 0,0 0,0 0,0 0,0 0,0 0,0 0,0 0,0 0,0 0,0 1,0 0,0 0,0 0,0 0,0 0,0 0,0 -1,0 0,0 0,1 0,0 0,0 0,0l0 0c0,0 0,0 0,0l0 1c0,0 0,-1 0,-1 0,0 0,0 0,0 0,0 0,0 0,0 0,0 0,0 1,0 0,0 0,0 0,0 0,0 0,0 0,0l0 1c0,0 0,0 0,0 0,0 0,0 0,0 0,0 0,0 0,1l0 0c0,0 0,0 0,0 0,0 0,0 0,0l1 1c0,0 0,0 0,0 0,0 0,0 0,0l0 0c0,0 0,0 0,0 0,1 0,0 0,1 0,-1 0,-1 1,-1 0,1 -1,1 0,1l0 -1c0,0 0,0 0,0 0,1 0,1 0,1 0,0 0,0 0,0 0,0 0,0 0,0 0,0 0,0 0,0l1 0 0 0c0,0 0,0 0,0 0,0 0,0 0,0l0 1c0,0 0,-1 0,0 0,0 0,0 0,0 0,-1 0,0 0,-1 0,0 0,0 0,0l0 0c0,0 0,0 0,0l0 0c0,-1 0,-1 0,-1 0,-1 0,-1 0,-1l1 -1c0,0 0,-1 0,-1l0 -3c0,0 0,0 0,0 0,0 0,0 0,0 0,0 0,0 0,0l-1 0c0,0 0,0 0,0 0,0 1,0 1,0 0,0 0,-1 0,-1l0 0c0,0 0,0 0,-1l0 0c-1,1 0,1 -1,1 0,0 0,0 0,0 0,0 0,0 0,0 0,0 0,0 0,0 0,0 0,0 0,0 0,-1 -1,-1 -1,-1 0,0 0,0 0,0 0,0 -2,0 -3,0 0,0 0,0 0,0 0,0 1,0 1,0l-1 0c0,0 0,0 0,0 0,0 0,0 -1,0 0,1 0,0 0,0 0,0 0,0 0,1 0,0 0,0 0,0l0 0 0 0 0 0c0,0 0,0 0,0 0,0 0,0 1,0 0,0 0,0 0,0l0 0c0,0 0,0 0,0l0 0c0,0 0,0 0,0l0 0c1,0 1,0 1,0 -1,0 -1,0 -1,0 1,0 0,0 1,0l0 0c0,0 0,0 0,0 0,0 0,0 0,0 0,0 0,0 0,1 0,-1 0,0 0,0 1,-1 1,-1 1,-1 0,0 0,0 0,1 0,0 0,0 0,0 0,0 0,0 0,0l1 0c0,0 0,0 0,0 0,0 0,0 0,0 0,0 0,0 -1,0l0 0c0,0 0,0 0,0z"/>
   <path class="fil9" d="M88 50c0,0 0,0 0,0 0,0 -1,-1 -1,-1 0,0 -1,-1 -1,-1 0,0 0,0 0,0 0,1 0,1 0,1 0,0 0,0 0,0 0,0 0,0 0,0 0,0 0,0 0,0 0,0 0,0 0,0 0,0 1,0 1,1l0 0c1,1 0,0 1,1l0 0c0,0 1,0 1,1l0 0c0,0 0,0 0,1 0,-1 0,-1 0,-1 0,0 0,0 1,-1 0,1 0,1 0,1l0 0c0,0 0,1 0,1 0,0 1,0 1,0l0 1c1,0 0,0 1,0 0,0 0,0 0,0 0,0 0,1 0,1l1 1c0,-1 0,-1 0,-1 1,0 0,0 1,0l0 1c0,0 0,0 0,0l0 0c0,0 0,0 0,0 0,0 0,0 0,0 0,0 0,0 0,0 1,0 1,0 1,0 0,0 0,0 0,0 0,0 0,0 0,0 0,0 0,0 0,0 0,1 0,0 0,1 1,0 0,0 1,0 0,0 0,0 0,0 1,0 1,0 1,0l0 -1c0,0 0,0 0,0 0,0 0,0 0,0l0 0c0,0 0,0 -1,0l0 -1c0,0 0,0 0,0l-1 0c0,0 0,0 0,0 0,0 0,0 0,0 0,0 0,0 0,0 0,-1 0,-1 -1,-1 0,0 0,0 0,-1l-1 0c0,0 0,0 0,0l0 -1c0,0 0,0 0,0l-1 -1c0,0 -1,0 -1,0 0,0 0,-1 0,-1 0,0 0,0 0,0l0 0c0,0 0,0 0,0l-1 -1c0,0 0,0 0,0 0,0 0,0 0,0 -1,0 -1,0 -1,0 0,-1 -1,-1 -1,-2l-1 -3c-1,-1 -1,-1 -1,-1 -1,0 -1,-1 -1,-1 0,0 0,0 0,0l-1 0c-1,0 0,0 -1,0 -1,0 -1,0 -1,0 0,-1 0,-1 -1,-1 1,1 0,0 1,1 0,0 0,0 0,0 0,0 0,0 1,1 0,0 0,0 0,0l1 0c0,0 0,0 0,0l0 -1c0,0 0,1 0,0 0,0 0,1 0,1 0,0 1,0 1,0l0 0c1,1 1,1 1,2 0,0 1,0 1,0 0,0 0,0 0,0l1 2c0,0 0,0 0,0 0,0 0,1 0,1l0 1c1,0 1,0 1,0 0,1 0,0 0,1 0,0 0,0 0,0l0 0c-1,0 0,0 -1,0z"/>
   <path class="fil10" d="M62 12c1,0 3,2 4,3 3,3 5,12 6,13 0,0 0,0 0,1 0,0 1,1 1,2 1,0 0,0 0,0 0,0 0,-2 0,-2 -2,-4 -3,-8 -5,-12 0,-1 -1,-3 -1,-5l0 1c0,0 0,0 0,0 0,0 0,0 0,0 0,0 0,1 0,1 0,0 0,0 0,0 0,1 0,1 -1,1l0 0c0,-1 0,-1 0,-1 0,0 0,0 0,0 0,-1 0,-1 0,-2 0,-1 -1,0 -1,0l0 -2c0,-1 0,-1 0,-2l-1 0c0,0 0,0 0,0 0,0 0,0 0,0l0 0c0,0 0,0 0,0 0,0 0,0 0,0l-1 1c0,1 0,0 0,1 0,0 0,0 0,0 -1,0 -1,0 -1,1 0,0 0,0 0,0l0 0c0,1 0,0 0,0l0 1c0,0 0,0 0,0z"/>
   <path class="fil11" d="M81 47c0,0 1,0 1,1l0 0c0,-1 0,0 0,-1 0,0 0,0 0,0l1 1c0,0 0,0 0,0 0,0 0,0 0,0l0 0 0 0c1,0 1,0 1,0 0,0 0,0 0,0 0,0 0,0 0,0 1,0 1,0 1,0 0,0 0,0 0,0 0,0 0,0 0,0 0,0 0,0 0,0l1 0c0,1 0,0 0,1 0,0 0,-1 0,0 0,0 0,0 0,0 0,0 0,0 0,-1 0,0 0,0 0,0 0,0 1,1 1,1 0,0 1,1 1,1 0,0 0,0 0,0 0,0 0,-1 0,-1 -1,-1 -1,-1 -1,-2 -1,-1 -2,-1 -3,-3 -1,0 -3,-1 -4,-2l0 0c0,0 0,0 0,0 0,0 0,0 0,0 -1,0 -1,1 -1,2 0,0 0,1 0,2 0,0 0,0 2,0 0,0 0,0 1,1 0,0 0,0 0,0 -1,0 -1,0 -1,0z"/>
   <path class="fil11" d="M69 47c1,0 0,0 1,0 1,0 1,0 1,-1 0,0 0,0 1,0l-1 1c-1,0 0,0 -2,0 0,0 -2,1 -2,1 0,0 0,0 -1,0 0,0 0,0 0,0 0,0 0,0 1,0 0,0 0,0 1,0 0,0 0,0 0,-1l0 0c0,0 0,0 0,0 0,0 0,0 0,0l1 1c0,-1 0,0 0,-1 1,0 2,0 2,0 0,0 1,0 1,0l0 0c0,1 0,1 0,1 0,0 0,0 0,0 0,0 0,0 0,0 1,1 0,1 0,1 0,0 0,1 1,1l0 0c0,-1 0,-1 0,-1 0,0 0,0 0,0 1,1 1,1 1,0 0,1 0,1 0,1l0 0c0,0 0,1 -1,0l0 1c0,0 0,0 0,0l0 0c0,0 0,0 0,0l0 0c0,0 0,0 0,0 0,0 0,0 0,0 0,1 0,1 0,1l1 0c0,0 1,0 1,0l1 0c0,0 0,0 0,0l0 0c0,0 0,0 0,0 0,0 0,0 0,0 0,0 0,0 0,0l0 0c0,0 0,0 0,0 0,-1 0,-1 0,-1 0,0 0,0 0,0 0,0 0,0 0,0 0,0 0,0 0,0 0,0 0,0 0,0 0,-1 0,0 0,0 0,-1 0,-1 0,-1l1 0c0,0 0,0 0,-1l1 0c0,0 0,0 0,0 -1,0 -1,0 -2,0 0,0 0,1 -1,1 0,0 0,-1 -1,-1 0,0 0,-1 0,-1 0,0 0,0 0,0 0,0 0,0 -1,-1l0 0c0,0 0,0 0,0 0,0 -1,0 -1,-1 0,0 0,0 0,0 0,0 0,0 1,1l-1 -1c1,0 1,0 1,0 0,-1 0,0 0,0l0 0c0,0 0,0 0,0 0,-1 0,-1 0,-1 1,1 0,0 1,0 0,0 0,0 0,0 1,0 0,0 1,0 0,0 0,0 0,0 0,0 0,0 0,0 0,0 0,0 0,0 0,0 0,0 1,0 0,0 0,0 0,0 1,0 0,0 0,0 0,0 1,-1 1,-1 0,0 0,-1 0,-1 0,0 0,0 0,0 0,0 0,0 0,0 0,0 0,0 0,0 -1,1 0,0 -1,0 0,0 0,0 0,0 -1,0 0,0 -1,0l0 0c0,1 0,0 0,1 0,0 0,0 0,0 0,0 0,0 -1,0 0,0 0,0 0,0 0,0 0,0 0,0l0 0c0,0 0,0 0,0l0 0c-1,0 -1,0 -1,0 0,0 0,0 0,0 -1,0 -1,0 -1,0 0,0 0,0 -1,0l1 0c0,0 -1,0 -1,0 0,0 0,0 0,0 0,0 0,0 0,1 0,-1 0,-1 0,-1 0,1 0,1 0,2l1 0c-1,0 -1,0 -1,0 -1,0 0,1 -1,1 0,0 0,-1 0,-1l0 1c0,0 0,0 0,0l-1 0 0 0z"/>
   <path class="fil12" d="M30 42l-1 1c0,0 0,0 -1,0 -1,1 -4,4 -5,5l-2 3c0,0 0,0 0,0 0,1 -1,2 -1,2l1 0c0,0 0,0 0,0 0,-1 0,-2 1,-3 1,-1 1,-1 1,-1 1,-1 1,-1 2,-2 0,0 0,1 0,1 0,0 0,0 0,0 0,0 0,0 0,0 0,0 0,-1 0,-1l0 0c1,0 1,0 2,-1 0,0 0,0 0,0l1 0c0,-1 0,-1 1,0l0 -1c1,0 1,0 1,0l1 0c0,-1 0,-1 1,-1 0,0 0,0 0,0 -1,0 0,0 0,0l-1 0c0,0 0,-1 1,-1 0,0 0,0 1,0 0,0 0,0 0,0l-1 -1 1 0c-1,-1 -1,0 -1,0 -1,0 -1,0 -1,0 1,0 0,0 0,0 0,0 0,0 0,0 0,0 0,0 0,0 0,0 0,0 -1,0 0,0 0,0 0,0 0,0 0,0 0,0l0 0z"/>
   <path class="fil13" d="M59 12c1,-1 2,0 3,0 0,0 0,0 0,0l0 -1c0,0 0,1 0,0l0 0c0,0 0,0 0,0 0,-1 0,-1 1,-1 0,0 0,0 0,0 0,-1 0,0 0,-1l1 -1c0,0 0,0 0,0 0,0 0,0 0,0l0 0c0,0 0,0 0,0 0,0 0,0 0,0l1 0c0,1 0,1 0,2l0 2c0,0 1,-1 1,0 0,1 0,1 0,2 0,0 0,0 0,0 0,0 0,0 0,1l0 0c1,0 1,0 1,-1 0,0 0,0 0,0 0,0 0,-1 0,-1 0,0 0,0 0,0 0,0 0,0 0,0l0 -1c0,-3 -1,-5 -3,-8 0,0 -1,-1 -2,-1 0,0 0,0 0,0 1,0 0,0 1,1 0,0 0,0 0,0l1 1 0 2c-1,0 -1,0 -1,1 0,0 0,0 0,0l-1 0c0,1 0,1 0,1 0,0 0,0 0,0 0,0 0,0 0,0 0,0 0,0 0,0 0,1 0,0 0,1 0,0 0,0 0,0l0 0c0,0 -1,0 -1,0 0,0 0,0 0,0 0,0 0,0 0,0 0,1 0,1 0,1l0 1c0,0 -2,-1 -2,-1 0,0 0,0 0,1z"/>
   <path class="fil0" d="M57 3l-1 0c0,0 0,1 0,1 1,0 1,1 1,1l0 0c0,0 0,0 0,0 0,1 0,0 0,1 0,0 1,0 1,0 0,0 0,0 0,0l0 0c0,0 0,0 0,0l0 1c0,0 0,0 0,0l1 0 0 0c0,0 0,1 0,1 1,0 1,0 1,0l0 0c0,0 0,0 1,0 0,-1 0,0 0,-1 0,0 0,0 0,-1l0 0c1,0 1,0 1,0 0,-1 0,-1 0,-1 0,0 0,-1 0,-1l-1 0c0,0 0,0 0,0 0,0 0,0 0,0 0,0 0,0 0,0l0 -1c0,0 0,0 0,0 0,0 0,0 0,0 -1,0 0,0 -1,0l0 0c0,0 0,0 0,-1l-2 0c-1,1 -1,1 -1,1z"/>
   <path class="fil4" d="M58 45c0,0 -2,1 -2,1 -1,0 -3,2 -3,2l-2 1c0,0 0,0 0,0 0,0 0,0 0,0 -1,1 -1,0 -1,0 0,1 0,1 0,1 0,-1 0,-1 0,-1 0,0 0,0 0,0 -1,-1 0,0 -1,-1l0 1c0,0 0,0 0,0 0,0 0,0 0,1 0,0 0,0 0,-1 0,1 0,0 0,1 0,0 0,-1 0,0 0,0 0,0 0,0 0,0 0,0 0,0 0,0 0,-1 0,-1 0,0 -1,0 0,-1l0 0c1,0 1,0 1,0 0,0 0,0 0,0 0,0 0,0 0,0 0,0 0,0 1,0 0,0 0,-1 0,-1l1 0c0,-1 0,0 0,0 1,0 0,-1 1,-1 0,1 0,0 1,0 0,0 0,0 0,0 0,0 0,0 0,0 1,-1 1,-1 1,-1 -1,0 -1,0 -2,1 0,0 0,0 -1,0l-2 1c0,1 0,0 0,1l-2 0c0,0 0,0 0,1 0,-1 0,0 0,-1 0,0 0,0 0,0 1,0 0,0 1,0l1 -1c0,0 0,0 0,-1 0,0 0,0 0,0 -1,0 0,0 -1,0 0,0 0,0 0,0 0,0 0,0 0,0 0,0 1,0 1,0l0 0c0,-1 0,-1 0,-1 0,0 0,0 -1,0l-1 1 0 1c-1,0 -1,0 -1,0 0,0 0,0 0,0l0 0c0,1 0,1 0,1 0,0 0,1 0,1 0,1 0,1 0,2 0,0 0,0 0,0 1,0 0,0 1,1l0 0 0 -1c0,0 0,0 0,0 0,0 1,0 1,0 0,0 0,1 1,1 0,-1 0,0 -1,-1l0 0c0,0 0,0 0,0l2 0c0,0 0,0 0,0 0,0 0,0 0,0l0 0c0,0 0,0 0,0 0,-1 0,-1 0,-1 -1,0 0,0 -1,0 1,0 1,0 1,0 0,0 0,0 0,0l-1 0c0,0 0,0 0,0l0 0c0,0 0,0 0,0 0,0 0,0 0,0l0 0c0,0 0,0 0,0l3 -2c1,0 1,0 2,-1l1 -1c0,0 0,0 0,0 0,0 1,0 1,0 1,-1 0,0 1,0 0,0 0,-1 0,-1 0,0 0,1 0,0 0,0 0,0 0,0z"/>
   <path class="fil14" d="M48 3c0,0 0,0 0,0l-1 1c0,1 0,1 0,1 -1,0 -1,0 -1,1 0,1 0,2 0,2l1 1c0,0 0,0 0,1 0,1 0,0 1,0l0 0c0,0 0,0 0,0l0 1c0,0 0,0 0,0 0,0 0,0 0,0 0,1 0,1 0,1 0,0 0,0 0,0 0,0 0,0 0,0 0,0 0,0 0,0 0,0 0,0 0,0 0,0 0,0 1,0 0,0 0,0 1,0 1,-1 1,-1 2,0 0,-1 0,0 0,0 0,0 0,0 1,-1 0,0 0,0 0,0 0,0 0,0 0,0 0,0 0,0 0,0 0,0 1,1 1,1 0,-1 0,-1 0,-2 0,0 0,-1 0,-2 0,-1 0,-2 0,-3 0,0 0,0 0,0 0,0 0,0 0,1 -1,0 -1,0 -1,0 0,0 0,0 0,0 0,0 1,-1 0,0l0 1c0,0 0,0 0,1 0,-1 0,-1 0,-1l0 0c0,1 0,1 0,1 0,0 0,0 0,0 0,0 0,0 0,0l0 0 0 1c0,0 0,0 0,0l0 0c0,0 0,0 0,0 0,0 0,1 0,1l0 0c-1,0 -1,0 -2,0 0,0 0,0 0,0 -1,0 -2,0 -3,0 0,0 0,0 0,-1 0,0 0,0 0,0 0,0 0,0 0,0l0 0c0,0 0,-1 0,-1 -1,0 0,0 -1,0l0 0c0,-1 0,-1 0,-1 0,-1 0,-1 0,-1l0 0c0,-1 0,-1 0,-1l1 -1c0,0 0,0 0,0 0,0 0,-1 0,-1 0,0 1,0 1,-1 1,0 3,0 4,-1 1,0 1,0 1,0 0,0 2,0 2,0l0 1c1,0 1,-1 1,-1 0,0 0,0 0,0 0,0 0,0 0,0 -1,0 -1,0 -1,0 0,0 -2,0 -2,0 -1,0 0,0 -1,0 0,0 0,0 -1,0 -1,1 -3,1 -4,2 0,0 0,0 0,0l0 0z"/>
   <path class="fil2" d="M47 3l0 0 0 1c0,0 0,0 0,0 -1,0 -1,1 -2,2 0,0 0,0 0,1l0 0c0,0 0,0 0,0 0,1 -1,1 -1,1 0,0 0,0 0,0 0,1 0,1 0,2 0,0 0,0 0,1 0,1 0,2 0,3l0 -1c0,0 0,0 0,0 1,-1 0,-2 1,-3 0,0 0,0 0,0l0 -1c1,0 0,1 1,1l0 2c0,0 0,0 0,0l0 0c0,0 0,0 0,0l0 0c0,0 0,0 0,0 0,0 0,1 -1,1l1 0c0,0 1,-1 2,-1 0,0 0,0 0,0 0,0 0,0 0,0 0,0 0,0 0,0 0,0 0,0 0,0 0,0 0,0 0,-1 0,0 0,0 0,0 0,0 0,0 0,0l0 -1c0,0 0,0 0,0l0 0c-1,0 -1,1 -1,0 0,-1 0,-1 0,-1l-1 -1c0,0 0,-1 0,-2 0,-1 0,-1 1,-1 0,0 0,0 0,-1l1 -1c0,0 0,0 0,0 0,0 -1,0 -1,0 0,0 0,0 0,0 0,0 0,0 0,0z"/>
   <path class="fil2" d="M30 42l0 0c0,0 0,0 0,0 0,0 0,0 0,0 1,0 1,0 1,0 0,0 0,0 0,0 0,0 0,0 0,0 0,0 1,0 0,0 0,0 0,0 1,0 0,0 0,-1 1,0l0 1 1 0c0,0 0,0 0,0l0 0c0,0 0,0 0,0l1 0c0,0 0,0 1,0 0,0 0,0 1,0 0,0 0,0 0,0 0,0 0,0 0,0l1 0c0,0 0,0 0,0l0 0c1,0 0,0 1,0 0,0 0,1 0,1l0 0c0,0 0,-1 0,-1 0,-1 0,-1 0,-2 0,0 -1,0 -1,-1 0,0 -1,0 -2,0l0 0c-1,1 -2,1 -3,1 0,0 -1,0 -1,0 0,0 0,0 0,0 0,0 -1,0 -1,1 -1,0 -1,0 -1,0z"/>
   <path class="fil15" d="M58 45c0,0 0,0 0,0 0,1 0,0 0,0 0,0 0,1 0,1 -1,0 0,-1 -1,0 0,0 -1,0 -1,0 0,0 0,0 0,0l-1 1c-1,1 -1,1 -2,1l-3 2c0,0 0,0 0,0l0 0c0,0 0,0 0,0 0,0 0,0 0,0l0 0c0,0 0,0 0,0l1 0c0,0 0,0 0,0 1,0 1,0 2,0 0,0 0,0 0,0l2 -1c0,0 0,0 0,0 0,0 -2,1 -2,2 0,0 -1,0 -1,0l2 0c1,0 0,0 1,0 0,0 0,0 0,0 0,0 0,0 0,0 -1,0 -1,0 -1,0 0,0 0,0 0,0l0 0c0,0 0,0 0,-1 0,0 0,1 0,1 1,0 1,0 1,0 1,0 0,0 1,0 0,0 0,0 0,-1 0,1 0,1 0,1 1,-1 0,-1 1,-1 0,0 0,0 0,0 0,0 0,0 1,-1l0 0c0,0 0,0 0,0 0,0 0,0 0,0 0,-1 0,-1 1,-2 0,0 0,0 0,0 -1,0 -1,0 -1,0 0,0 0,0 0,0 0,0 0,0 0,0 0,0 0,0 0,0 0,1 0,1 0,1 0,0 0,0 0,0l0 0c0,0 0,1 -1,1 1,0 0,-1 1,0 0,0 0,0 0,0l-1 0c0,0 0,0 0,0 0,0 0,-1 0,-1 0,0 0,0 0,0 0,0 0,0 -1,0l-1 1c0,0 0,0 0,0 0,0 0,0 0,0 -1,0 -1,0 -2,0 0,0 0,0 0,0l0 0c0,-1 0,0 0,-1 0,0 0,0 0,0l1 0c0,0 0,0 0,0 0,0 0,0 0,0 0,0 0,0 1,-1 0,0 -1,0 0,0 0,1 0,1 0,1 0,-1 0,-1 0,-1 0,0 0,0 1,0 0,0 0,0 0,0 0,0 0,0 1,0 0,0 0,0 0,0l0 0c0,-1 0,-1 0,0 0,-1 0,-1 0,-1l0 0c1,0 0,0 1,0 0,0 0,0 0,0 -1,0 -1,0 -1,0l1 1c0,0 0,0 0,0l0 -1c0,0 0,0 0,0l0 0c0,0 0,0 0,0 0,0 0,0 0,0l0 0c0,0 0,0 0,0 0,-1 0,-1 1,-1 0,0 0,0 0,0 -1,0 0,0 -1,0 0,0 0,0 0,0 0,0 0,0 0,0z"/>
   <path class="fil2" d="M70 37c1,0 0,0 1,0 0,1 0,1 1,1 0,0 0,0 0,0 -1,0 -2,0 -3,0 0,0 2,1 2,1 1,0 2,0 2,0 1,0 1,0 1,0 2,0 2,0 4,0 1,0 1,1 2,2 0,-1 -1,-2 -2,-2 0,0 -1,-1 -2,-1l0 0c0,0 0,0 0,0 0,-1 0,0 0,-1 -1,0 -1,0 -1,0 -1,0 0,0 -1,0 0,-1 0,0 0,-1 0,0 0,0 0,0l-1 0c0,0 0,0 0,0 0,0 0,0 0,0 0,0 0,0 0,0 0,0 0,0 0,0l-1 0c0,0 0,0 0,0l0 0c0,1 0,1 -1,1 0,0 -1,-1 -1,-1 -1,0 0,0 0,1z"/>
   <path class="fil16" d="M54 5c0,1 0,2 0,3 0,1 0,2 0,2 0,1 0,1 0,2 0,0 -1,-1 -1,-1 0,0 0,0 0,0 0,0 0,0 0,0 0,0 0,0 0,0 -1,1 -1,1 -1,1 0,0 0,-1 0,0 0,0 1,0 2,0 0,1 0,0 0,1 0,-1 0,-1 0,-1 0,-1 0,-1 0,-1 0,-1 0,-3 0,-3l1 0c1,0 0,0 0,0 1,0 1,0 1,0 0,1 0,2 0,3 0,0 0,0 0,1 0,0 0,0 0,1 0,-1 0,0 0,-1 1,0 1,0 1,0 0,0 1,0 1,0 0,0 0,0 0,-1l-1 0c0,0 1,0 0,0 0,0 0,0 -1,1 0,-1 0,-1 0,-1l0 -2c0,0 1,-5 0,-6l0 1c0,0 0,0 0,0 0,0 0,1 0,1 0,0 0,0 0,1l-1 0c0,0 1,0 0,0 0,0 0,0 0,0 0,0 0,0 -1,0 1,0 0,0 0,0 0,-1 0,-1 0,-1 0,-1 0,-1 0,-1l0 0c0,0 0,0 0,0 0,0 0,0 0,1z"/>
   <path class="fil9" d="M68 43c0,0 0,0 0,0l1 -2c0,0 0,1 -1,1l0 0c0,0 0,0 0,0 0,0 0,0 0,0 -1,0 0,0 -1,0 0,0 0,0 0,0 0,0 0,0 0,0l0 0c0,0 0,-1 0,0l-1 0c0,0 0,0 0,0l0 0c0,-1 0,-1 0,-1 0,0 0,0 0,0l0 0c0,0 0,0 0,0 0,0 0,0 0,0l0 0c0,0 -1,0 -1,0 0,0 0,0 0,0 0,0 0,0 0,0 1,0 1,0 1,0 0,0 0,0 -1,0 0,0 0,0 0,0 0,0 0,0 0,0 0,0 0,0 0,0l0 0c-1,0 -1,0 -1,0 0,0 0,0 0,0 -1,0 -1,1 -1,0l0 -1c0,0 0,0 0,0 0,0 -1,2 -1,2 0,0 1,0 1,0 1,0 1,1 2,1 0,0 0,0 0,0 1,1 0,1 1,2l2 0c0,-1 0,-1 0,-2 0,0 0,0 0,0z"/>
   <path class="fil17" d="M53 39c0,0 0,0 0,0 0,0 0,1 0,2 0,0 1,3 0,3 1,0 1,0 2,0l0 0c0,0 0,0 1,0 0,-1 0,-1 1,-1 0,-1 0,-4 0,-4l0 0c0,0 0,0 0,0 0,0 0,-1 0,0 0,0 0,0 0,1l0 0c0,0 0,0 -1,0 0,0 0,0 0,0 0,0 0,0 0,0 0,0 0,0 -1,0 0,0 0,0 0,0 0,0 0,0 0,0 0,0 0,0 0,0 0,0 0,0 -1,0 0,0 1,0 0,0 0,0 0,0 0,0l0 0c0,0 0,0 0,0 0,0 0,0 0,0l0 0c-1,0 -1,0 -1,0 0,-1 0,-1 0,-2 0,0 0,0 0,1 0,0 0,0 0,0z"/>
   <path class="fil18" d="M53 48c0,0 2,-2 3,-2 0,0 2,-1 2,-1 0,0 0,0 0,0 0,0 0,0 0,0 1,0 0,0 1,0 0,0 0,0 0,0 -1,0 -1,0 -1,1 0,0 0,0 0,0l0 0c0,0 0,0 0,0 0,0 0,0 0,0l0 0c0,0 0,0 0,0l0 1c0,0 0,0 0,0l-1 -1c0,0 0,0 1,0 0,0 0,0 0,0 -1,0 0,0 -1,0l0 0c0,0 0,0 0,1 0,-1 0,-1 0,0l0 0c0,0 0,0 0,0 -1,0 -1,0 -1,0 0,0 0,0 0,0 -1,0 -1,0 -1,0 0,0 0,0 0,1 0,0 0,0 0,-1 -1,0 0,0 0,0 -1,1 -1,1 -1,1 0,0 0,0 0,0 0,0 0,0 0,0l-1 0c0,0 0,0 0,0 0,1 0,0 0,1l0 0c0,0 0,0 0,0 1,0 1,0 2,0 0,0 0,0 0,0 0,0 0,0 0,0l1 -1c1,0 1,0 1,0 0,0 0,0 0,0 0,0 0,1 0,1 0,0 0,0 0,0l1 0c0,0 0,0 0,0 -1,-1 0,0 -1,0 1,0 1,-1 1,-1l0 0c0,0 0,0 0,0 0,0 0,0 0,-1 0,0 0,0 0,0 0,0 -1,1 -1,1 0,0 1,-1 1,-1 1,0 1,0 1,-1l0 -1c0,0 0,0 1,0 -1,0 -1,0 -1,0 0,0 0,0 0,0 0,-1 0,-1 0,-1 0,0 0,0 0,0 -1,0 -1,0 -1,0l0 0c0,0 0,0 0,0 0,1 0,1 -1,1 0,0 0,0 0,0l0 0c0,0 0,0 0,0 0,0 0,0 -1,0 0,0 0,0 0,0 0,0 0,0 0,0 0,0 0,0 0,0 0,0 0,0 0,0 0,1 0,1 -1,1 0,0 0,0 0,0l0 0c0,0 -1,0 -1,0 0,0 1,0 0,0 0,0 0,0 0,0 0,0 0,0 0,0 0,0 0,0 -1,0 0,1 0,0 0,1 0,0 -1,0 -1,1 0,0 0,0 0,0 0,0 0,0 1,0z"/>
   <path class="fil8" d="M24 56c0,0 0,0 0,0l0 0c0,0 0,0 0,0 0,0 0,-1 0,-1 -1,1 0,0 -1,1 0,0 0,0 0,0 0,0 0,0 0,0 0,0 0,0 0,0 0,0 0,0 0,0 0,1 0,1 0,1 0,0 0,1 0,1l0 0c0,0 0,0 0,0 0,0 0,0 0,0 0,0 0,0 0,0 -1,0 -1,0 -1,1 0,0 0,0 0,0l0 0c0,0 0,0 0,0 0,0 0,0 -1,0 0,0 0,0 1,0 0,1 0,1 0,1 0,0 0,0 1,0 0,0 0,0 0,0 0,0 0,0 0,0l0 0c0,0 0,0 0,0 1,1 1,1 1,1 0,0 0,0 1,0 0,0 0,0 0,0l0 0c1,0 1,0 1,0 0,0 0,0 0,0 0,-1 0,-1 0,-1 0,0 0,0 0,0 0,0 0,0 0,0 0,0 0,0 0,0 0,0 0,0 0,0 0,0 0,0 -1,0 0,0 0,0 0,0 0,0 0,0 0,0 0,0 1,-1 1,-1 0,0 0,0 0,0 -1,0 -1,0 -1,0l0 0c0,0 0,0 0,0 0,0 0,0 0,0 0,-1 0,-1 0,-1 0,0 1,0 0,0l0 -1c0,0 0,0 0,0l0 -1c0,0 0,0 0,0 0,0 0,0 0,0l0 1c0,0 0,0 0,0 0,0 0,0 0,0 0,0 0,0 0,0l0 0c0,0 -1,0 0,0 -1,0 0,0 -1,-1 0,0 0,0 0,0l0 0c0,0 0,0 0,0 0,0 0,0 0,-1 0,0 0,1 0,1z"/>
   <path class="fil1" d="M42 45c1,-1 1,-1 1,-1 0,-1 1,-1 1,-1 1,0 1,0 2,0 1,0 1,0 3,0 0,-1 -1,-2 -2,-3l1 1c0,0 0,0 0,0 -1,1 -1,1 -1,0 0,0 0,0 0,0 0,0 0,0 0,0l-1 0c0,0 0,0 0,0 0,0 0,0 0,0 0,0 0,0 0,0l0 0c-1,-1 -1,0 -1,-1 0,0 0,0 0,0 0,0 0,0 0,0 0,0 0,0 0,0 0,0 0,0 0,0l-1 0c0,0 0,0 0,0 0,1 0,1 0,1 0,0 0,0 0,0 0,0 0,0 0,0l0 1c0,1 0,0 0,1 0,0 0,0 0,0 0,0 0,0 0,0 0,0 0,0 0,0 0,0 0,0 0,0 0,0 0,0 0,0l0 0c0,0 0,0 0,0 0,0 -1,0 -1,0 0,0 0,0 0,0 0,0 0,0 -1,0 0,0 0,0 0,0l0 0c1,0 1,0 1,0 -1,0 -1,0 -1,0 0,0 0,0 0,0 0,-1 0,-1 0,-1 0,1 0,1 0,2 0,0 0,0 0,1z"/>
   <path class="fil12" d="M45 46l0 0c0,0 0,0 0,0 0,0 0,0 0,1 0,-1 1,-1 1,-2 0,0 0,0 0,0 1,0 1,0 1,0 0,0 0,0 0,0 1,-1 1,-1 1,-1 0,1 0,0 0,1 0,0 0,0 0,0 0,0 -1,1 -1,1 0,0 0,0 1,0 -1,0 -1,0 -2,0 0,1 0,1 -1,1l0 0c0,0 0,0 0,0 0,1 0,1 0,1 0,0 0,0 0,0 0,0 0,0 0,0l1 0c0,0 0,0 0,-1 0,1 0,1 0,1 0,0 0,0 0,-1 0,0 0,0 0,0 0,0 0,0 0,0 0,0 1,0 1,0 0,0 -1,1 -1,1 0,0 0,0 0,0 1,0 0,0 0,0 1,0 1,0 1,-1 0,0 0,0 0,0 0,0 0,0 1,0l0 -1 1 -1c1,0 1,0 1,0 0,0 0,0 0,1l0 0c0,0 -1,0 -1,0 0,0 0,0 0,0 0,0 0,0 0,0 1,0 0,0 1,0 0,0 0,0 0,0 0,1 0,1 0,1l-1 1c-1,0 0,0 -1,0 0,0 0,0 0,0 0,1 0,0 0,1 0,-1 0,-1 0,-1l2 0c0,-1 0,0 0,-1l0 0c0,0 0,0 0,0 0,0 0,0 0,0 1,-1 1,-1 1,-1 0,0 0,0 -1,0 0,0 0,0 0,0 0,0 0,0 0,0l0 0c0,0 0,0 0,-1l0 0c0,0 0,0 1,0 0,0 0,0 0,-1 0,0 0,0 0,1 0,0 0,0 0,0 0,0 1,0 1,0 0,0 0,0 0,0l0 -1c0,0 0,0 0,0l-1 0c0,0 0,0 0,-1 -1,1 -1,1 -1,1 0,0 0,0 0,-1 0,0 0,1 0,1 0,0 0,0 0,0 -1,0 0,0 -1,0l0 0c0,0 0,0 0,0l0 0c0,0 0,1 0,0 0,0 0,0 0,0l0 0c0,0 0,0 0,0l0 -1c0,0 0,0 0,0 0,0 0,0 0,0 0,1 0,1 0,1 -1,0 -1,0 -1,0 0,0 0,0 0,0 0,0 0,0 -1,0 0,0 0,0 0,0l0 0c-1,0 -1,0 -1,1l0 0c-1,1 0,1 -1,1 0,0 0,0 0,0z"/>
   <path class="fil14" d="M56 9l0 2c0,0 0,0 0,1 1,-1 1,-1 1,-1 1,0 0,0 0,0l1 0c0,1 0,1 0,1 0,0 0,0 1,0 0,0 0,0 0,0 0,-1 0,-1 0,-1 0,0 2,1 2,1l0 -1c0,0 0,0 0,-1 0,0 0,0 0,0 0,0 0,0 0,0 0,0 1,0 1,0l0 0c0,0 0,0 0,0 0,-1 0,0 0,-1 0,0 0,0 0,0 0,0 0,0 0,0 0,0 0,0 0,0 0,0 0,0 0,-1l1 0c0,0 0,0 0,0 0,-1 0,-1 1,-1l0 -2 -1 -1c0,0 0,0 0,0 -1,-1 0,-1 -1,-1 0,0 0,0 0,0l0 0c0,0 0,0 0,0 0,0 0,0 0,0 0,0 0,0 0,1l0 0c0,0 0,0 0,0l1 1c0,0 0,1 0,1 0,0 0,0 0,0 0,1 0,1 0,1 0,0 -1,0 -1,0 0,0 0,0 0,1l0 0c0,0 0,0 0,0l0 0c0,1 0,1 0,2l-2 0c-1,0 0,0 -1,0l0 0c0,1 -1,0 -1,0 0,0 0,0 0,0 0,0 0,0 -1,0 0,0 0,0 0,0 0,0 0,0 0,0 0,0 0,0 0,-1 0,0 0,1 0,1 -1,-1 0,0 -1,-1z"/>
   <path class="fil11" d="M42 45c0,0 0,0 0,0 0,1 0,2 -1,2 0,0 0,0 0,0 -1,0 -2,0 -2,1 -1,0 -1,0 -1,0 0,0 0,0 0,0 0,0 0,0 0,1 0,0 0,0 -1,0 0,0 0,1 0,1 0,0 0,0 0,0l-1 1c0,0 0,0 1,0l0 -1c0,0 0,0 0,0 1,0 0,0 1,0 -1,0 -1,0 0,1 0,0 0,0 0,0 0,0 0,0 0,-1l0 0c0,-1 0,0 0,-1l1 0c0,0 0,0 0,0 0,1 0,1 0,1 0,0 0,0 1,-1 0,0 0,0 0,0 0,-1 0,-1 0,-1 0,0 0,0 0,0 1,-1 1,0 1,-1 0,1 0,1 0,1 0,0 0,0 0,0 0,0 -1,0 -1,0 1,0 0,0 1,0l0 0c0,0 1,0 1,0 0,0 0,0 0,0 0,0 0,-1 0,-1 1,0 1,0 1,0 0,1 0,1 0,1 0,0 0,0 1,0 0,0 0,-1 -1,-1 0,0 0,0 0,0 0,0 0,0 0,0 0,0 0,0 0,0 -1,0 -1,0 -1,0 0,0 0,0 0,0l0 0c0,-1 0,-1 0,-1 0,0 0,-1 1,-1 0,0 0,0 0,0 0,-1 0,-1 1,-1 0,0 0,0 0,0 0,0 0,0 0,0 -1,0 0,0 -1,0 0,0 0,0 0,0 0,0 0,0 -1,1z"/>
   <path class="fil7" d="M37 36c0,0 1,1 1,1 0,0 0,0 -1,0l-2 1c-1,0 -4,1 -5,1 0,1 0,0 0,1 1,-1 1,-1 2,-1l3 0c1,0 1,0 2,0 0,-1 0,-1 1,-1 0,0 0,0 1,0 0,0 0,0 1,0 0,0 0,0 0,-1l-1 0c0,0 0,0 0,0 0,0 0,0 0,0 0,0 1,0 1,0l-2 0c0,0 0,0 0,0 0,0 1,0 0,-1 0,0 0,0 -1,0l0 0z"/>
   <path class="fil19" d="M82 48l0 0c0,0 0,0 0,0 0,0 0,0 0,0 0,0 0,0 0,0 0,0 0,0 0,0l1 0c0,0 0,0 0,0 0,0 0,0 0,1 0,0 0,0 -1,0 0,-1 0,-1 0,0 0,0 0,0 0,0 0,0 0,0 0,0l1 0 0 0c0,0 0,0 0,0 0,0 1,0 1,0 0,0 0,0 1,0 0,0 0,0 -1,0 0,1 0,0 0,0 0,1 0,1 0,1l0 0c0,0 0,0 -1,0 0,-1 0,0 0,-1l-1 0c0,0 0,0 0,0 -1,0 0,0 -1,0l0 0 -1 0c0,0 0,0 0,0l0 0c0,0 -1,0 -1,0 0,0 1,0 1,0 0,0 0,0 0,0 1,0 1,0 1,0 0,0 1,0 1,0 1,1 1,0 1,1 0,0 0,0 1,0 0,0 0,0 0,0l1 0c-1,1 -1,0 -1,1 0,0 0,0 0,0 0,0 0,0 0,0 1,1 1,1 1,1 0,0 0,0 0,0 0,0 0,0 0,0 1,0 0,0 0,0 0,1 1,1 1,1 0,0 0,0 1,0 0,-1 0,-1 -1,-1 0,-1 0,0 0,-1 0,0 0,0 0,0 -1,0 -1,-1 -1,-1 0,0 0,0 0,0 0,0 0,0 0,0 0,0 0,0 0,0 1,0 1,0 1,1 0,0 0,0 0,0 1,0 1,0 1,0l0 0c0,0 0,0 0,0 0,0 0,0 0,0 0,0 0,0 0,0 0,-1 -1,-1 -1,-1 0,0 0,-1 0,-1 -1,0 0,0 -1,0 0,0 0,0 0,0l0 0c0,0 0,0 0,0 0,0 0,0 0,0l0 0c0,0 -1,0 -1,0 -1,0 0,0 -1,0 1,-1 1,0 1,0 0,0 1,0 1,-1 0,0 0,0 0,0 0,0 0,0 0,0 0,0 0,0 0,0 0,0 0,0 0,0 0,0 0,0 0,0 0,0 0,0 -1,0 0,0 0,0 0,0 0,0 0,0 0,0 0,0 0,0 -1,0l0 0 0 0c0,0 0,0 0,0 0,0 0,0 0,0l-1 -1c0,0 0,0 0,0 0,1 0,0 0,1z"/>
   <path class="fil20" d="M53 26l0 0c0,0 0,0 0,0 0,0 0,0 0,-1 0,0 0,0 0,-1 -1,2 0,1 -1,2l0 0c0,0 0,0 -1,0l0 -1c0,1 0,0 0,1 0,0 0,0 0,1 0,0 1,0 1,0 0,0 1,-1 2,0l1 -1c0,0 0,1 0,1 1,0 0,-1 1,-1 0,1 0,1 0,1 0,0 0,0 1,0 0,0 0,0 0,0 1,-1 2,0 2,0 0,-1 0,-1 0,-2l0 1 -1 0c0,0 0,-1 0,-1 0,0 -1,0 -1,0 0,0 0,0 0,0 0,-1 0,-1 0,-1l0 2c0,0 -1,0 -1,0 0,0 0,-2 0,-2 0,-1 0,-1 0,-1 -1,0 -1,3 -1,3 0,0 0,0 0,0 0,0 0,-1 0,-1 0,-1 0,-2 -1,-2 0,0 0,1 0,1 0,1 0,2 0,2l-1 0z"/>
   <path class="fil8" d="M65 48c-1,-1 0,-1 0,-1 0,0 0,0 0,0 0,1 0,0 0,1 1,0 1,0 1,0l0 -1c0,0 0,0 0,0 0,0 0,0 0,0 -1,-1 -1,0 -1,-1l0 0c1,0 1,0 1,-1l0 0c0,0 0,0 0,0 0,1 0,0 0,1 0,0 -2,0 -2,0 0,0 -1,0 -1,0 0,0 0,0 0,0 1,0 1,0 1,0 1,-1 0,0 1,-1 -1,0 -2,0 -2,0 0,0 0,0 0,1 -1,0 -1,-1 -1,0 0,0 -1,0 -1,0 0,0 0,0 1,0 0,0 0,-1 -1,-1 0,0 1,0 1,0l1 0 0 0 0 0c0,-1 0,-1 0,-1 0,0 -1,0 -1,0 0,0 0,0 -1,0 0,1 0,1 0,1 0,0 0,0 0,0 0,0 0,0 0,0l0 0c-1,1 0,0 -1,1 0,0 0,0 0,0 0,0 0,0 0,1 0,-1 0,-1 1,-1l0 1c0,0 0,0 0,0 1,0 1,0 1,0l0 0c0,0 0,-1 0,-1 0,1 0,1 0,1 1,0 1,0 2,0 0,0 0,0 0,0 0,0 0,0 0,1 0,0 0,0 0,-1l0 0c0,1 0,1 1,1z"/>
   <path class="fil9" d="M49 54c0,0 0,0 0,0 1,0 0,0 1,0 0,0 0,0 0,0 0,0 0,0 0,0 0,0 1,0 1,-1 0,0 0,0 0,0l0 0c0,0 0,0 0,0 0,0 1,0 1,0 0,1 0,0 0,0 0,0 0,0 0,0 0,0 0,0 0,0 0,0 0,0 0,0 1,0 1,0 1,1 -1,0 0,-1 0,0l-1 0c0,0 0,0 0,0 0,0 1,0 1,0 0,0 0,0 0,0l0 0c1,0 1,0 1,0 0,0 0,0 0,-1 0,0 0,0 0,0 0,0 0,1 -1,0 0,0 0,0 0,0 0,0 0,0 -1,0 0,0 0,0 0,0 0,0 0,0 0,-1 -1,0 0,0 0,0 0,0 1,1 1,1 0,0 0,-1 0,-1 1,0 1,0 1,0 0,0 0,0 0,0 -1,0 -1,0 -1,0l0 0c0,0 0,0 0,0l0 0c0,0 -1,0 0,0l0 0c0,0 0,0 0,0 0,0 0,0 0,0 -1,-1 -1,0 -2,0l0 0c0,0 0,0 -2,0 0,0 0,0 0,1 -1,0 -1,0 0,0l0 0c0,1 0,1 0,1z"/>
   <path class="fil21" d="M54 13c1,0 1,0 2,0 0,-1 0,-1 0,-1 0,-1 0,-1 0,-1 0,-1 0,-2 0,-3 0,0 0,0 -1,0 0,0 1,0 0,0l-1 0c0,0 0,2 0,3 0,0 0,0 0,1 0,0 0,0 0,1z"/>
   <path class="fil22" d="M70 57c0,0 0,0 0,-1l0 0c0,0 0,1 0,0 0,0 0,0 0,0 0,0 0,0 0,0 0,0 0,0 0,0 0,0 0,0 0,-1 1,0 0,0 0,0l0 0c0,0 0,0 0,0 0,0 0,0 0,0l0 0c0,0 0,0 0,0 0,0 0,0 0,0l0 0 0 -1c0,0 0,0 0,0 0,0 0,0 0,0l0 0c0,0 0,0 0,0 0,0 0,0 0,0 0,0 0,0 0,0l1 0c0,0 0,0 0,0 0,0 0,0 0,0l0 0c0,0 -1,0 -1,0 0,0 0,0 0,0l0 0c0,0 0,0 0,0 0,-1 0,0 0,0 0,0 0,0 0,0l0 0c0,0 0,0 0,-1 0,0 0,0 0,0 0,0 0,0 0,0 0,0 0,0 0,0 0,0 0,0 0,0 0,0 0,0 0,0 0,0 0,0 0,0 0,0 0,0 0,0l-1 0c0,0 0,0 -1,0 0,0 -1,0 -2,0l0 0c0,0 0,0 0,0 0,0 0,0 0,0 0,0 0,0 0,0 0,0 0,0 1,0l0 1c0,0 0,0 0,0 0,0 0,0 0,0 1,1 0,0 1,1l0 0c0,0 0,0 0,0 0,1 0,0 1,0 0,1 0,1 0,1l0 0c0,0 0,0 0,0 0,0 0,0 0,0 0,0 0,0 1,1 0,0 0,0 0,0z"/>
   <path class="fil23" d="M83 51c0,0 0,0 1,0 0,0 0,1 0,1 0,0 0,-1 -1,-1 0,1 0,1 0,1 0,0 0,0 0,0 0,0 0,0 0,0l0 0c0,0 0,0 0,0 0,0 0,0 0,0 -1,0 0,0 -1,0 0,0 0,0 0,0 0,0 0,0 0,0 0,0 0,0 0,1 1,0 1,0 1,0 0,0 0,0 0,1 0,0 1,0 0,0 0,0 0,1 0,1l1 0c0,0 0,1 0,1 1,0 0,-1 1,-1l0 1 0 -1c0,0 0,0 0,0 0,0 0,0 0,0l1 1c0,0 0,-1 0,-1 0,0 0,0 0,0 0,0 0,0 0,0 0,0 1,0 0,0 0,0 0,0 0,0 -1,0 -2,0 -2,0l0 0c0,0 -1,0 -1,0 1,-1 1,-1 1,-1 0,0 0,0 0,0 0,0 0,0 0,0 0,0 0,0 0,0 0,0 0,-1 1,-1 0,0 0,0 0,0l0 0c0,0 0,1 0,1 0,0 0,0 0,0 0,0 0,0 0,0 0,-1 1,-1 0,-1l0 -1c-1,0 -1,0 -1,0l-1 -1c0,0 1,0 0,0z"/>
   <path class="fil24" d="M44 44c0,0 0,0 0,0 -1,0 -1,0 -1,1 0,0 0,0 0,0 -1,0 -1,1 -1,1 0,0 0,0 0,1l0 0c0,0 0,0 0,0 0,0 0,0 1,0l0 0c1,-1 2,0 2,0 0,0 0,0 0,-1 0,0 0,-1 0,-1 0,0 0,0 0,0 0,0 0,0 0,-1 0,0 0,0 0,0 0,1 0,0 0,1l0 0 -1 0 0 0c0,0 0,0 0,-1 0,0 0,0 0,0 0,0 1,0 1,0 1,0 1,0 1,0 0,0 0,0 0,-1 0,0 0,0 -1,0 0,0 -1,1 -1,1z"/>
   <path class="fil2" d="M36 46c0,0 0,0 0,1 0,0 0,0 1,0 0,0 0,0 0,0 0,1 -1,1 -1,1 -1,0 -1,1 0,1 -1,-1 -1,-1 -1,0 0,0 0,0 0,0 -1,0 0,0 -1,1l1 0c0,0 0,0 0,0 1,0 1,0 1,0l-1 0c0,0 0,0 0,0 0,0 0,1 0,0 0,1 0,0 0,0 1,0 1,0 1,0 0,0 0,0 0,0 0,0 0,0 0,0l0 0c0,0 0,0 0,0 -1,-1 0,-1 0,-1 0,0 0,0 0,0l0 0 0 0c0,0 1,0 1,0 0,0 0,0 0,0l0 0c0,0 0,0 0,0 0,0 0,0 1,-1 0,0 0,0 0,0 0,0 0,0 -1,0 0,0 0,0 0,-1 0,0 0,0 0,0 0,0 0,0 0,-1 -1,0 -1,0 -1,0 0,0 0,0 0,0z"/>
   <path class="fil25" d="M53 69l3 0c0,-1 0,-1 0,-1 -1,0 -1,-1 -1,-1 0,0 0,0 0,-1 0,0 -1,0 -1,0l0 1c0,0 0,0 -1,0 0,0 1,1 0,2z"/>
   <path class="fil26" d="M32 51c0,0 0,0 1,0 0,-1 0,-1 0,-1 0,0 0,0 0,0 0,0 0,0 0,0 0,0 0,0 0,0l0 0c0,0 0,0 1,-1 0,0 0,0 0,0 0,0 0,0 0,0 0,0 0,0 0,0l1 0c0,-1 0,0 0,-1 0,0 0,1 1,0 0,0 0,0 0,0 0,-1 -1,-1 -2,0l0 0c0,0 0,0 -1,1l0 0c-1,0 0,0 -1,1 0,0 0,0 0,1 0,0 0,0 0,0z"/>
   <path class="fil16" d="M50 21l0 -2c0,0 0,0 1,0 1,0 0,1 0,2l0 0c1,0 1,0 0,0 1,0 1,0 1,-1l0 0c0,0 1,0 1,0 0,0 0,0 0,-1 0,0 0,0 0,0 -1,0 -1,0 -1,0 -1,0 0,0 -1,0 0,0 -2,0 -2,1 0,0 -1,0 0,0 1,-1 1,0 1,0l0 1c0,0 0,0 0,0z"/>
   <path class="fil7" d="M57 19l0 0c1,0 1,0 2,0l0 2c0,0 0,0 -1,0 0,0 0,0 0,0 1,0 1,1 2,1 0,-1 0,-2 0,-3l0 0c0,0 0,0 0,0 0,0 0,0 0,0 0,0 0,0 0,0 0,0 -1,0 -1,0l-1 0c1,0 1,0 1,0 -1,0 -1,0 -2,0z"/>
   <path class="fil26" d="M56 19c0,0 0,0 0,0l-1 0c0,0 0,0 0,0 -1,0 0,0 -1,0 0,0 0,0 0,1 0,0 0,1 1,1 0,0 1,0 1,-1 0,0 0,0 0,-1z"/>
   <path class="fil5" d="M23 58c0,0 0,0 0,0 0,1 0,1 0,1 1,1 0,1 1,1 0,0 0,1 0,1 1,0 0,0 1,-1 0,0 0,0 0,0 0,0 0,0 0,-1 0,0 0,0 -1,0l0 0c0,-1 0,-1 -1,-1z"/>
   <path class="fil12" d="M61 37c1,0 1,0 2,-1 0,0 1,0 1,0 0,0 -1,0 -1,0 0,-1 -1,-1 -1,-1 0,0 0,0 -1,0l0 1c0,0 0,0 0,0 0,0 0,0 0,0 0,0 0,0 0,0 -1,0 0,0 0,1z"/>
   <path class="fil24" d="M74 49c1,0 1,1 1,1 1,0 1,-1 1,-1 0,0 0,0 0,0 0,0 0,-1 0,-1 1,0 1,-1 1,-1 0,0 0,0 0,0 -1,0 -2,1 -2,1 0,0 0,1 0,1 -1,0 -1,0 -1,0z"/>
   <path class="fil15" d="M46 36c0,0 0,0 1,0 0,0 0,0 1,0 0,1 1,1 1,1 0,0 0,-1 0,-1l-1 -1c0,0 -2,1 -2,1z"/>
   <path class="fil21" d="M50 21c0,1 0,1 0,1 1,0 1,-1 1,-1 1,0 1,0 0,0l0 0c0,-1 1,-2 0,-2 -1,0 -1,0 -1,0l0 2z"/>
   <path class="fil20" d="M57 19c0,1 0,0 0,1 0,0 0,0 1,0 0,0 0,0 0,1 0,0 0,0 0,0 1,0 1,0 1,0l0 -2c-1,0 -1,0 -2,0z"/>
   <path class="fil12" d="M32 47c0,1 0,1 0,2 0,0 -1,0 -1,0 0,0 0,0 0,0 0,0 0,0 0,0l1 0c0,0 0,0 0,0 0,0 0,-1 1,-1l0 0 0 0c1,0 1,0 1,0 0,-1 0,-1 0,-1l-1 0c0,0 0,0 -1,0z"/>
   <path class="fil21" d="M48 27c0,0 0,0 0,1 1,-1 0,-1 1,-1l0 1c0,-1 0,-1 1,-1 -1,0 -1,0 -1,-1 0,0 -1,1 -1,1z"/>
   <path class="fil13" d="M54 17l0 0c0,0 1,0 1,0 0,0 0,0 0,0 1,0 0,0 1,1 0,-1 0,-1 -1,-2 0,0 -1,0 -1,1z"/>
   <path class="fil10" d="M60 27c1,0 1,0 1,1 0,0 0,0 0,-1 0,0 0,0 0,0 0,0 0,0 0,0l0 1c1,-1 0,0 1,-1 0,0 0,0 0,0 0,0 0,0 0,0 0,0 -1,-1 -1,-1 0,0 -1,1 -1,1z"/>
  </g>
 </g>
</svg>
