<?xml version="1.0" encoding="UTF-8"?>
<!DOCTYPE svg PUBLIC "-//W3C//DTD SVG 1.1//EN" "http://www.w3.org/Graphics/SVG/1.1/DTD/svg11.dtd">
<!-- Creator: CorelDRAW X7 -->
<svg xmlns="http://www.w3.org/2000/svg" xml:space="preserve" width="500px" height="406px" version="1.1" style="shape-rendering:geometricPrecision; text-rendering:geometricPrecision; image-rendering:optimizeQuality; fill-rule:evenodd; clip-rule:evenodd"
viewBox="0 0 501 407"
 xmlns:xlink="http://www.w3.org/1999/xlink">
 <defs>
  <style type="text/css">
   <![CDATA[
    .str3 {stroke:#2B2A29;stroke-width:1.38835}
    .str6 {stroke:#06CC06;stroke-width:2.7767}
    .str5 {stroke:#E80505;stroke-width:2.7767}
    .str2 {stroke:#2B2A29;stroke-width:0.555264}
    .str0 {stroke:#2B2A29;stroke-width:0.75804}
    .str1 {stroke:#2B2A29;stroke-width:0.37902}
    .str4 {stroke:#2B2A29;stroke-width:0.37902}
    .fil4 {fill:none}
    .fil1 {fill:#FEFEFE}
    .fil0 {fill:#7688A1}
    .fil25 {fill:black}
    .fil3 {fill:#00006B}
    .fil38 {fill:lime}
    .fil10 {fill:#0202AD}
    .fil2 {fill:#03038A}
    .fil31 {fill:#121212}
    .fil7 {fill:#187818}
    .fil27 {fill:#198581}
    .fil39 {fill:#1A1A1A}
    .fil5 {fill:#1E941E}
    .fil24 {fill:#1FA49F}
    .fil33 {fill:#22BAB5}
    .fil18 {fill:#2323B8}
    .fil17 {fill:#27C427}
    .fil34 {fill:#333333}
    .fil42 {fill:#474747}
    .fil15 {fill:#4D4D4D}
    .fil21 {fill:#542626}
    .fil23 {fill:#662C2C}
    .fil40 {fill:#666666}
    .fil9 {fill:#7D3737}
    .fil20 {fill:gray}
    .fil30 {fill:#823939}
    .fil28 {fill:#999999}
    .fil41 {fill:#B3B3B3}
    .fil35 {fill:#B72322}
    .fil26 {fill:#C25812}
    .fil37 {fill:#CCCCCC}
    .fil6 {fill:#D69778}
    .fil43 {fill:#DBDBDB}
    .fil29 {fill:#DE6616}
    .fil14 {fill:#E31E24}
    .fil19 {fill:#E73E41}
    .fil36 {fill:#E74040}
    .fil13 {fill:#F74545}
    .fil22 {fill:#F7751E}
    .fil16 {fill:#F7CAB4}
    .fil32 {fill:#FC8535}
    .fil12 {fill:red}
    .fil8 {fill:#FFB28C}
    .fil11 {fill:white}
   ]]>
  </style>
 </defs>
 <g id="Слой_x0020_1">
  <metadata id="CorelCorpID_0Corel-Layer"/>
  <g id="_978178556416">
   <path class="fil0 str0" d="M95 75c13,2 21,0 26,-4 2,-2 3,-4 3,-5 3,-8 -2,-19 -12,-24 0,0 1,-1 1,-1 -4,-2 -9,-4 -14,-5 0,0 -1,0 -1,-1 -36,-6 -44,28 -6,40 0,0 0,0 0,0l3 0c0,0 0,0 0,0zm-13 -26c6,-2 14,13 7,17 -7,3 -13,-15 -7,-17z"/>
   <path class="fil1 str0" d="M140 61l5 1 15 3c-2,-10 -10,-20 -23,-23l0 -1c-11,-4 -19,-3 -24,0 7,5 11,12 12,18l12 2 3 0zm-12 -8c5,-2 9,3 12,8l-13 -2c-1,-3 -1,-5 1,-6z"/>
   <path class="fil0 str0" d="M255 96c3,1 7,0 9,-3 4,-3 5,-9 5,-14 -8,0 -16,0 -23,-1 0,3 1,5 1,9 1,4 5,8 8,9zm9 -9c-2,0 -3,-2 -3,-4 0,-1 1,-3 3,-3 2,0 3,2 3,3 0,2 -1,4 -3,4z"/>
   <path class="fil1 str0" d="M230 86c7,0 13,1 17,1 -1,-2 -1,-4 -1,-5 -1,1 -2,1 -3,1 -2,0 -3,-1 -3,-3 0,-1 1,-3 3,-3l-12 0 -5 0 0 0c0,1 0,2 1,3 0,2 2,4 3,6z"/>
   <path class="fil1 str0" d="M65 396c7,0 11,0 12,-3 -1,-2 -5,-5 -9,-7 -3,3 -4,6 -3,10z"/>
   <path class="fil1 str0" d="M105 382c0,0 0,0 0,0 -3,1 -5,4 -5,7 0,0 0,0 0,0 0,-4 2,-6 5,-7zm-18 -7c0,0 0,0 0,0 0,0 0,0 0,0zm21 14c-1,0 -2,1 -5,0 3,0 4,0 5,0zm1 -2c0,-2 -2,-4 -5,-6 -1,-1 -2,-2 -3,-2 0,0 0,0 0,0 -5,2 2,0 -12,-2 -1,-1 -1,-1 -1,-2 0,0 0,0 0,0 0,0 -1,0 -1,0 0,0 0,0 0,0 -1,-1 -1,-2 -1,-3 -1,-3 0,-5 1,-7 0,0 1,-1 1,-1 0,0 0,0 -1,0 0,1 0,1 0,1 -3,1 -5,0 -8,-1l-1 0c1,0 2,1 4,1 0,0 0,0 0,0 -1,8 -3,13 -6,17 0,0 0,0 0,0 -1,0 -2,-1 -2,-2 0,0 0,1 0,1 0,1 1,1 2,2 0,0 -1,0 -1,1l-2 -2c1,7 35,12 36,8 1,-1 1,-2 0,-4 0,1 0,1 0,2 0,0 0,0 -1,1 1,-1 1,-1 1,-2z"/>
   <path class="fil1 str0" d="M88 373c0,0 0,1 -1,2 1,0 1,0 1,0 0,0 0,0 0,0 -1,-1 0,-2 0,-2zm13 6c-4,-3 -9,-5 -13,-6 0,0 0,-1 1,-2 0,0 0,0 0,0 1,-3 2,-6 3,-7 0,-1 0,-1 -1,-1 0,0 -1,1 -4,3 -1,2 -1,4 -1,5 1,2 1,3 1,4 0,0 0,0 0,0 0,0 0,0 0,0 0,0 0,0 0,0 0,0 1,0 1,0 0,0 0,0 0,1 0,0 0,0 0,0 0,0 0,-1 0,-1 0,1 0,1 0,1 1,0 1,0 1,0 0,0 0,0 0,1 14,2 7,4 12,2z"/>
   <path class="fil1 str0" d="M54 385c13,4 7,4 13,1 -4,-2 -10,-3 -13,-4 -1,0 -3,1 -2,2 0,0 0,0 0,0 0,0 1,1 2,1z"/>
   <path class="fil1 str0" d="M418 223c3,5 1,10 2,12 1,-1 2,-1 3,-2 2,-2 4,-5 4,-8 0,-3 -2,-3 -6,-3 -1,0 -2,1 -3,1z"/>
   <path class="fil1 str0" d="M411 225c2,3 2,9 2,12 0,0 0,0 0,0 3,0 5,-1 7,-2 -1,-2 1,-7 -2,-12 -2,0 -5,1 -7,2z"/>
   <path class="fil1 str0" d="M404 239c2,0 5,0 6,-1 1,0 2,0 3,0 0,-1 0,-1 0,-1 0,-3 0,-9 -2,-12 0,0 -1,1 -1,1 -2,0 -4,1 -5,2 -1,0 -1,1 -2,1 1,0 1,7 1,10z"/>
   <path class="fil1 str0" d="M397 237c2,1 3,1 4,1 1,1 2,1 3,1 0,-3 0,-10 -1,-10 -1,1 -2,1 -3,1 0,1 -1,1 -1,1 0,0 -1,1 -2,1 0,0 0,0 0,0 1,0 1,4 0,5z"/>
   <path class="fil1 str0" d="M394 236c1,0 2,0 3,1 1,-1 1,-5 0,-5 0,0 0,0 0,0 -2,1 -4,1 -6,1l3 3z"/>
   <path class="fil1 str0" d="M100 144c2,-2 3,-7 3,-9 -3,-1 -5,-1 -7,-2 -2,0 -4,0 -6,-1 -2,0 -5,-1 -8,-2 3,4 6,7 10,10 2,1 5,3 8,4z"/>
   <polygon class="fil1 str1" points="77,91 119,114 108,120 90,110 77,104 75,102 "/>
   <path class="fil2 str2" d="M103 294c-6,6 -26,8 -44,6 0,2 -1,4 -1,6 0,6 0,11 -1,14 -1,4 -26,2 -26,-3 0,6 -1,12 -2,13 -1,0 3,3 10,5 4,1 9,2 15,2 8,1 16,0 22,-2 0,-1 0,-3 0,-6 1,0 2,0 3,0 5,1 10,1 16,1 6,-1 11,-1 11,-2 0,-5 0,-10 -1,-15 0,-8 -1,-14 -2,-19l0 0z"/>
   <path class="fil3" d="M76 320c-1,2 -2,5 -6,7 -1,1 -20,2 -20,2 0,1 13,3 13,3 -8,3 -21,4 -22,3 4,1 9,2 13,2 8,1 16,0 22,-2 0,-1 0,-3 0,-6 0,-3 0,-7 0,-9l0 0z"/>
   <path class="fil4 str3" d="M30 291c0,4 2,37 -1,39 -4,2 30,12 47,5 0,-2 0,-14 0,-16 2,-1 9,-3 9,-6"/>
   <path class="fil2 str2" d="M57 320c1,-3 1,-8 1,-14 -1,1 -2,1 -4,2 0,0 0,2 0,2 2,5 -2,6 -4,2 0,0 0,-1 0,-1 -2,0 -2,0 -3,1 -2,1 -4,1 -5,1 -1,0 -10,-7 -11,-9 0,1 0,2 0,2 0,1 0,2 0,5 0,0 0,1 0,1 0,1 0,1 0,1 0,0 0,0 0,0 0,1 0,2 0,3 0,0 0,1 0,1 0,5 25,7 26,3l0 0z"/>
   <path class="fil2 str2" d="M54 308c2,-1 3,-1 4,-2 0,-2 1,-4 1,-6 -3,0 -5,-1 -7,-1 1,1 2,3 2,5 0,1 0,3 0,4l0 0z"/>
   <path class="fil2 str2" d="M31 301c0,0 0,0 0,0l0 0zm0 3c0,1 2,2 4,3 0,-5 -1,-5 -2,-5 0,-1 0,-1 0,-2 1,-1 2,-3 3,-5 0,0 0,0 0,0 0,0 0,-1 0,-1 -2,-1 -4,-2 -6,-3 0,-1 0,-1 0,-1 0,1 0,2 0,4 0,0 0,0 0,0l0 0 0 0 0 0 0 0 1 4c0,1 0,2 0,3 0,0 0,0 0,0 0,0 0,0 0,0 0,1 0,2 0,3 0,0 0,0 0,0l0 0z"/>
   <path class="fil5 str2" d="M90 190c-4,3 -24,4 -30,-2 0,0 0,0 0,1 -8,2 -32,33 -32,40 1,2 2,4 4,5 4,3 12,5 19,5 -6,8 -11,11 -12,11 9,11 -3,33 8,45 0,0 0,1 0,1 1,0 4,1 5,3 2,0 4,1 7,1 18,2 38,0 44,-6 1,-2 1,-4 1,-5 -1,-2 -1,-5 -2,-8 -3,-11 -7,-30 -11,-47 3,1 11,-1 15,-2l-1 -2c-1,-7 -7,-27 -11,-37 -2,-1 -3,-2 -4,-3 0,0 0,0 0,0l0 0z"/>
   <path class="fil6" d="M91 234c4,17 8,34 11,45l0 0c-1,-8 0,-19 -3,-27 -4,-9 3,-14 3,-19 -1,0 -2,0 -4,1 -2,0 -6,1 -7,0z"/>
   <path class="fil7" d="M89 191c0,-1 1,-1 1,-1 0,0 -1,0 -1,1zm2 -1c1,-5 -2,-11 -7,-8l-1 1c5,0 6,8 4,8 1,0 1,0 2,0 3,3 9,37 9,43 2,-1 3,-1 4,-1 2,-1 3,-1 4,-1l-1 -2c-1,-7 -7,-27 -11,-37 -2,-1 -3,-2 -4,-3l0 0c0,0 1,0 1,0z"/>
   <path class="fil5 str2" d="M36 293c-2,-4 -3,-12 -5,-18 -1,5 -2,15 -1,15 0,0 0,0 0,1 2,1 4,2 6,3 0,0 0,0 0,0 0,0 0,-1 0,-1 0,0 0,0 0,0z"/>
   <path class="fil7" d="M59 238c-1,1 -4,2 -8,1 -6,8 -11,11 -12,11 6,8 2,22 3,33 0,0 2,1 3,1 0,0 0,0 0,0 0,0 0,0 0,0 -1,-5 -1,-8 -1,-13 0,-3 1,-12 0,-15 -1,-2 -1,-1 -1,-3 1,-1 7,-8 7,-4 0,3 18,14 20,12 0,0 0,0 0,0 -3,-1 -18,-16 -13,-18 3,-2 5,-5 5,-7 0,-1 0,-1 1,-2 2,-5 11,-11 10,-10 -11,3 -8,-6 -8,-12 0,6 -5,22 -6,26l0 0z"/>
   <path class="fil7" d="M51 239c4,1 7,0 8,-1 1,-4 6,-20 6,-26 0,-1 0,-1 -1,-2 0,0 0,0 0,0 -1,7 -10,27 -13,29l0 0z"/>
   <path class="fil4 str3" d="M60 189c-8,2 -32,33 -32,40 1,9 28,14 31,9 2,-5 8,-26 5,-28"/>
   <path class="fil8" d="M128 117c19,-9 46,-24 76,-45l-44 -6 -20 -5 -13 -1 -2 -1c1,11 -7,19 -30,16 -1,0 -1,0 -3,0 -17,-5 -26,-16 -26,-24l-30 -5 -9 -1 -4 4c5,3 14,21 22,42 -17,0 -10,28 8,19 7,22 13,47 14,69 0,1 0,2 0,2 3,1 6,2 9,2 2,0 5,0 7,0 0,-1 0,-1 1,-1 5,-10 18,-28 26,-35 -13,-3 -23,-9 -29,-18 -1,-3 -2,-5 -3,-8 -3,-9 -4,-20 -1,-30 3,7 26,18 41,23 4,2 8,3 10,3l0 0zm-94 -60c1,0 2,1 1,1 -1,0 -2,0 -1,-1zm-4 -6c1,0 4,2 2,2 -2,0 -3,-2 -2,-2zm11 2c0,-2 5,1 3,1 -1,1 -4,0 -3,-1zm5 46c1,0 1,1 0,0z"/>
   <path class="fil4 str3" d="M27 45c-2,1 -3,3 -4,4"/>
   <path class="fil4 str3" d="M83 183c5,-10 19,-29 27,-36 -30,-6 -40,-31 -33,-56 4,9 44,25 51,26 19,-9 46,-24 76,-45 0,0 0,0 0,0m-137 109c0,0 0,0 0,-1 -1,-22 -7,-48 -14,-70m-8 -19c0,0 0,-1 -1,-1 -8,-22 -16,-38 -21,-41"/>
   <path class="fil4 str3" d="M23 49l4 -4 39 6m59 8l79 13"/>
   <path class="fil1 str3" d="M99 36c28,3 43,45 -4,39 -1,0 -1,0 -3,0 -38,-11 -30,-46 6,-40 0,1 1,1 1,1z"/>
   <path class="fil4 str3" d="M117 74c13,-6 9,-24 -4,-33 5,-3 13,-4 25,-1 0,0 0,1 0,1 12,4 21,14 23,24"/>
   <path class="fil4 str3" d="M99 144c3,-2 4,-7 4,-9 -11,-2 -14,-2 -22,-6"/>
   <path class="fil4 str3" d="M105 117c-9,4 -9,15 -9,17"/>
   <path class="fil4 str3" d="M83 183c-2,0 -5,0 -7,0 -3,0 -6,-1 -9,-2"/>
   <path class="fil4 str3" d="M78 121c5,1 11,3 12,12"/>
   <path class="fil4 str3" d="M56 93c-32,-13 -23,33 1,13"/>
   <path class="fil4 str3" d="M51 97c-3,-4 -9,-5 -5,2 1,2 1,-1 -3,0 -3,2 4,4 2,5 -3,2 5,4 7,-1"/>
   <path class="fil9" d="M41 53c0,-2 5,1 3,1 -1,1 -4,0 -3,-1z"/>
   <path class="fil9" d="M30 51c1,0 4,2 2,2 -2,0 -3,-2 -2,-2z"/>
   <path class="fil9" d="M34 57c1,0 2,1 1,1 -1,0 -2,0 -1,-1z"/>
   <path class="fil4 str3" d="M31 275c-1,5 -2,15 -1,15 2,2 4,3 6,4m16 5c23,4 54,1 52,-10"/>
   <path class="fil4 str3" d="M83 182c6,-3 9,3 7,8"/>
   <path class="fil4 str3" d="M88 211c2,22 12,65 16,78"/>
   <path class="fil4 str3" d="M67 179c-8,-2 -9,6 -7,10"/>
   <path class="fil3" d="M92 299c2,8 -4,12 -7,15 0,0 0,0 0,0 -1,2 -7,4 -9,5 0,1 0,6 0,10 1,0 2,0 3,0 5,1 10,1 16,1 6,-1 11,-1 11,-2 0,-5 0,-10 -1,-15 0,-8 -1,-14 -2,-19 -4,3 -4,3 -11,5l0 0z"/>
   <path class="fil4 str3" d="M76 329c13,1 30,1 30,-1 0,-10 -1,-25 -3,-34"/>
   <path class="fil4 str3" d="M59 300c-1,5 -1,15 -2,20 -1,4 -27,2 -26,-4 0,-1 0,-2 0,-4 0,-1 0,-4 0,-6 0,-3 0,-8 -1,-12 0,-1 0,-3 0,-4"/>
   <path class="fil3" d="M57 307c-1,0 -2,1 -3,1 0,0 0,2 0,2 1,3 1,4 0,5 0,2 4,2 3,-2 0,-2 0,-5 0,-6z"/>
   <path class="fil3" d="M54 308c1,0 2,-1 3,-1 0,-1 0,-2 0,-4 0,-1 -1,-3 -1,-3 -1,0 -3,-1 -4,-1 1,2 2,3 2,5 0,1 0,3 0,4z"/>
   <path class="fil4 str3" d="M58 306c-1,1 -2,1 -4,2m-4 3c-4,1 -7,2 -8,2 -1,0 -10,-7 -11,-9"/>
   <path class="fil4 str3" d="M51 239c-6,8 -11,11 -12,11"/>
   <path class="fil4 str3" d="M54 304c0,2 0,4 0,6 2,5 -2,6 -4,2 -2,-1 -2,-4 -2,-4 0,2 0,3 -1,4"/>
   <path class="fil4 str3" d="M35 307c0,-5 -1,-5 -2,-5 0,-1 0,-3 3,-7 0,0 0,0 0,0 0,0 0,-1 0,-1 0,0 0,0 0,0 0,0 0,-1 0,-1 0,0 0,0 0,0 -6,-13 -6,-40 -9,-45 0,-1 2,-10 5,-14"/>
   <path class="fil4 str3" d="M54 304c0,-4 -4,-7 -7,-8 0,0 0,-1 0,-1 -11,-12 1,-34 -8,-45"/>
   <path class="fil4 str3" d="M102 233c0,4 -6,10 -3,19 3,8 3,21 3,29"/>
   <path class="fil4 str3" d="M90 190c1,1 2,2 4,3 4,10 10,30 11,37 0,0 1,1 1,2"/>
   <path class="fil4 str3" d="M91 234c3,1 11,-1 15,-2"/>
   <path class="fil4 str3" d="M39 345c-7,10 -4,16 -2,25"/>
   <path class="fil4 str3" d="M85 341c-12,7 -3,16 -6,23"/>
   <path class="fil4 str3" d="M53 346c-2,6 -7,16 -7,23m2 6c0,0 0,0 0,0"/>
   <path class="fil4 str4" d="M54 382c8,2 26,7 23,14 -1,5 -40,3 -41,-6"/>
   <path class="fil4 str4" d="M88 373c9,2 23,10 21,17 -1,4 -35,-1 -36,-8"/>
   <path class="fil4 str3" d="M39 345c1,-1 1,-9 0,-10"/>
   <path class="fil4 str3" d="M85 341c-2,-2 -5,-11 -6,-12"/>
   <path class="fil4 str3" d="M53 346c3,-1 1,-6 1,-8l0 -1"/>
   <path class="fil4 str3" d="M96 344c4,-1 -2,-11 -1,-14"/>
   <path class="fil4 str3" d="M36 390c1,-2 1,-18 0,-20 4,1 7,2 11,-2 0,1 0,3 1,5m0 2c0,0 0,0 0,0"/>
   <path class="fil4 str3" d="M73 382c1,-2 5,-16 5,-18 3,1 7,3 11,-1"/>
   <path class="fil4 str3" d="M54 372c2,-4 -19,5 -2,12 2,1 -9,-4 -5,-9 12,-9 6,2 7,7 -1,0 -4,2 0,3 13,4 7,4 13,1"/>
   <path class="fil4 str3" d="M91 363c3,-4 -10,3 -4,12 2,3 -3,-6 0,-9 10,-9 1,3 1,7 0,0 -2,2 1,4 14,2 7,4 12,2"/>
   <path class="fil4 str3" d="M37 389c4,6 43,12 40,3"/>
   <path class="fil4 str3" d="M74 380c3,6 38,14 35,6"/>
   <path class="fil4 str3" d="M79 363c-1,0 -1,1 -1,1"/>
   <path class="fil4 str3" d="M46 367c1,0 1,1 1,1"/>
   <path class="fil4 str3" d="M68 386c-3,2 -4,6 -3,10"/>
   <path class="fil4 str3" d="M105 382c-3,1 -5,4 -5,8"/>
   <path class="fil4 str3" d="M52 384c-1,-1 -8,0 -8,2"/>
   <path class="fil4 str3" d="M87 375c-1,-1 -5,0 -6,2"/>
   <path class="fil4 str3" d="M96 344c-2,5 -6,7 -7,20"/>
   <path class="fil4 str3" d="M101 295c1,3 1,17 3,18 0,1 1,0 1,0"/>
   <path class="fil10" d="M89 66c7,-4 -1,-19 -7,-17 -6,2 0,20 7,17z"/>
   <path class="fil10" d="M128 53c-2,1 -2,3 -1,6l13 2c-3,-5 -7,-10 -12,-8z"/>
   <path class="fil11" d="M87 54c1,0 -1,-5 -3,-4 -1,1 1,6 3,4z"/>
   <path class="fil11" d="M134 58c2,-1 -1,-5 -3,-4 -1,1 2,6 3,4z"/>
   <path class="fil12 str5" d="M36 46l-9 -1 -4 4 5 5c-6,5 -3,17 -4,21 -2,-4 -6,-11 -7,-19 -2,3 -5,13 -4,18 -7,-18 -2,-26 -3,-27 -4,-1 -5,3 -9,7 0,-7 7,-16 10,-16 -1,-5 4,-19 11,-21 -3,3 -6,18 -4,18 2,-10 26,-25 37,-23 -14,7 -27,20 -25,29 2,-4 8,-8 18,-9 -8,5 -10,7 -12,14l0 0z"/>
   <path class="fil13" d="M76 101c-1,8 0,13 2,19 5,2 12,4 13,12 1,1 3,1 5,1 -1,-2 0,-11 7,-16 -9,-4 -26,-14 -27,-16l0 0z"/>
   <path class="fil12" d="M90 132c-1,-7 -6,-9 -12,-10 1,2 2,4 4,6 3,3 5,3 8,4z"/>
   <path class="fil4 str2" d="M60 188c6,6 28,5 31,2"/>
   <path class="fil5 str2" d="M60 188c6,6 26,5 30,2 0,0 1,0 1,0 1,-5 -2,-11 -7,-8l-1 1c-2,0 -5,0 -7,0 -3,0 -6,-1 -9,-2l0 -2c0,0 0,0 0,0 -8,-1 -9,5 -7,9l0 0z"/>
   <path class="fil4 str2" d="M33 300c1,-1 2,-3 3,-5 0,0 0,0 0,0 0,0 0,-1 0,-1 -2,-1 -4,-2 -6,-3 0,-1 0,-1 0,-1 0,1 0,2 0,4 0,0 0,0 0,0 0,1 1,3 1,4"/>
   <path class="fil4 str2" d="M31 298c0,1 0,2 0,3 0,1 0,2 0,3 0,1 2,2 4,3 0,-5 -1,-5 -2,-5 0,-1 0,-1 0,-2"/>
   <path class="fil8 str2" d="M34 299c0,1 0,1 -1,1 0,1 0,1 0,2 0,-1 0,-2 1,-3l0 0zm-3 -24c2,6 3,14 5,18 0,0 0,0 0,0 0,0 0,1 0,1 0,0 0,0 0,0 0,0 0,0 0,0 0,0 0,1 0,1 0,0 0,0 0,0 -1,2 -2,3 -2,4 0,1 0,1 -1,1 0,1 0,1 0,2 1,0 2,0 2,5 3,4 6,6 7,6 1,0 3,-1 5,-1 1,-1 1,-2 1,-4 0,0 0,2 2,3l0 1c2,4 6,3 4,-2 0,0 0,-2 0,-2 0,-1 0,-3 0,-4 0,-2 -1,-4 -2,-5 -1,-2 -4,-3 -5,-3 0,0 0,-1 0,-1 -11,-12 1,-34 -8,-45 1,0 6,-3 12,-11 -7,0 -15,-2 -19,-5 -3,4 -5,13 -5,14 2,3 3,15 4,27l0 0z"/>
   <path class="fil8 str2" d="M95 330c-6,0 -11,0 -16,-1 1,1 4,10 6,12 -12,7 -3,16 -6,23 3,1 6,2 9,0 0,-1 0,-1 1,-1 0,0 0,-1 0,-1 1,-12 5,-13 7,-18 4,-1 -2,-11 -1,-14l0 0z"/>
   <path class="fil8 str2" d="M46 367c1,-7 5,-16 7,-21 3,-1 1,-6 1,-8l0 -1c-6,0 -11,-1 -15,-2 1,1 1,9 0,10 0,0 0,1 0,1 -6,9 -4,15 -3,23 0,1 0,1 1,1 3,1 6,2 10,-2 0,0 0,0 0,0 0,0 0,-1 -1,-1l0 0z"/>
   <path class="fil14 str4" d="M51 384c-8,-4 -7,-9 -4,-11 0,-2 0,-4 0,-5 0,0 0,0 0,0 -4,4 -7,3 -10,2 -1,0 -1,0 -1,0 1,2 1,14 1,19 2,4 18,7 28,7 -1,-4 0,-8 3,-10 0,0 0,0 -1,0 -6,3 0,3 -13,-1 -4,-1 -1,-3 0,-3 -1,-3 1,-9 0,-10 0,-1 -2,0 -6,3l0 0 0 0c-1,0 -1,0 -1,0 -3,4 3,7 5,9 0,0 0,0 0,0 0,0 0,0 0,0 0,0 0,0 0,0 -1,0 -1,0 -1,0l0 0z"/>
   <path class="fil14 str2" d="M47 375c0,0 0,0 1,0l0 0c0,0 0,0 0,0 4,-3 6,-4 6,-3 1,-2 -3,-1 -7,1 -3,2 -4,7 4,11 0,0 0,0 1,0 -2,-2 -8,-5 -5,-9z"/>
   <path class="fil14 str2" d="M88 364c-3,2 -4,6 -1,11 0,0 0,0 0,0 0,-2 -2,-6 0,-9 3,-2 4,-3 4,-3 1,-2 0,-2 -2,-1 0,0 0,1 0,1 -1,0 -1,0 -1,1l0 0z"/>
   <path class="fil14 str2" d="M87 366c-2,3 0,7 0,9 0,0 0,0 0,0 0,-1 1,-2 1,-2 0,-3 4,-9 3,-10 0,0 -1,1 -4,3l0 0z"/>
   <path class="fil14 str2" d="M87 375c-3,-5 -2,-9 1,-11 -3,2 -6,1 -9,0 0,0 -1,0 -1,0 0,0 0,0 0,0 0,1 -3,13 -4,17 3,3 16,7 26,8 0,-3 2,-6 5,-7 -1,-1 -2,-2 -4,-3 -5,2 2,0 -12,-2 -1,-2 -1,-2 -2,-2l0 0c0,0 0,0 0,0 0,0 0,0 0,0l0 0z"/>
   <path class="fil15 str2" d="M100 389c-10,-1 -23,-5 -26,-8 0,0 -1,1 -1,1 1,7 35,12 36,8 1,-1 1,-2 0,-4 1,3 -3,4 -9,3z"/>
   <path class="fil15 str2" d="M65 396c-10,0 -26,-3 -28,-7 0,1 -1,1 -1,1 1,9 40,11 41,6 1,-2 0,-3 0,-4 1,3 -4,4 -12,4z"/>
   <path class="fil16" d="M68 181c2,-31 1,-37 -11,-73 -1,0 -3,2 -4,2 8,23 13,47 14,71 1,0 1,0 1,0l0 0z"/>
   <path class="fil16" d="M45 91c2,0 7,0 9,1 -7,-14 -19,-31 -25,-38 4,8 11,21 16,37z"/>
   <path class="fil16" d="M45 92c-16,0 -9,26 7,18 1,-1 2,-1 3,-2 1,-2 1,-2 2,-3 -20,15 -32,-18 -1,-11 -3,-1 -8,-2 -11,-2l0 0z"/>
   <path class="fil16" d="M38 47c15,3 26,8 30,12 -1,-2 -2,-5 -2,-8l-28 -4z"/>
   <path class="fil16" d="M126 62c19,5 60,12 73,12 1,0 2,-1 3,-2l-42 -6 -20 -4 -12 -2 -3 0c1,1 1,1 1,2z"/>
   <path class="fil16" d="M34 299l-1 1c0,1 0,1 0,2 0,-1 0,-2 1,-3l0 0zm2 -15c-2,-13 -5,-33 -7,-36 0,0 0,0 0,0 0,-4 2,-10 5,-12 0,-1 -2,-1 -2,-2 -3,4 -5,13 -5,14 2,3 3,15 4,27 2,6 3,14 5,18 1,0 1,0 1,0 0,1 0,1 0,1 0,0 0,0 0,0 0,0 0,0 0,0 0,1 -1,1 -1,1 0,0 0,0 0,0 -1,2 -2,3 -2,4 -1,1 -1,2 -1,3 1,0 2,0 2,5 0,0 1,1 2,3 0,-4 -1,-8 0,-10 0,-1 2,-3 2,-4 1,-2 -3,-8 -3,-12l0 0z"/>
   <path class="fil16" d="M39 346c-6,9 -4,15 -3,23 1,0 1,1 1,1 0,0 0,0 0,0l0 0c0,0 1,0 1,0 0,0 0,0 0,0 -5,-15 2,-23 3,-25 2,-2 1,-7 1,-9 -1,-1 -2,-1 -3,-1 1,1 1,10 0,10 0,0 0,1 0,1l0 0z"/>
   <path class="fil16" d="M85 341c-12,7 -3,16 -6,23 1,0 2,0 2,0 1,-1 0,-6 0,-8 -1,-5 -2,-9 4,-13 3,-2 -1,-9 -2,-13 -1,0 -2,0 -3,0 0,0 3,9 5,11l0 0z"/>
   <path class="fil17" d="M67 179c-8,-1 -9,5 -7,9 1,0 1,1 2,1 -2,-4 -2,-9 5,-9 0,0 0,0 0,-1 0,0 0,0 0,0z"/>
   <path class="fil17" d="M60 189c-8,4 -29,29 -31,40 0,2 1,3 3,5 1,0 2,1 4,2 4,-16 21,-44 26,-46 0,0 0,0 0,0 0,0 -2,-1 -2,-1l0 0z"/>
   <path class="fil17" d="M31 276c-1,6 -1,13 0,14l0 0c2,2 3,2 5,4 0,0 -4,-11 -5,-18z"/>
   <path class="fil18" d="M36 294c-7,-3 -5,-2 0,0 0,0 0,0 0,0zm-5 7l0 0 0 0zm2 1c-1,-2 2,-6 2,-7 1,0 1,0 1,0 0,-1 0,-1 0,-1 -2,-1 -3,-1 -5,-2 0,-1 0,-1 0,-1 0,4 0,6 0,10 0,0 0,0 0,0l0 0c0,0 0,0 0,0 0,0 0,0 0,0 0,0 0,0 0,0 0,1 0,2 0,3 0,0 1,1 3,2 0,-4 -1,-3 -1,-4l0 0z"/>
   <path class="fil18" d="M34 308c-1,-2 -2,-2 -3,-3 0,1 0,1 0,1 0,5 0,8 0,11 0,1 2,2 3,2 1,1 1,1 2,1 0,0 0,0 0,0 0,-3 0,-9 0,-10 0,0 -1,-2 -2,-2l0 0z"/>
   <path class="fil18" d="M31 319c0,6 0,10 -1,10 -1,1 1,3 6,5 0,-4 -1,-7 0,-13 0,0 0,0 0,0 -2,-1 -3,0 -5,-2l0 0z"/>
   <path class="fil19" d="M40 391c1,-5 1,-13 -1,-20 0,0 0,0 0,0 -1,0 -1,0 -2,0l0 0 -1 0c1,2 1,13 1,18 0,0 1,1 3,2l0 0z"/>
   <path class="fil19" d="M78 364c1,2 -3,13 -4,16 0,1 1,2 2,2 3,-4 5,-9 6,-17 -2,0 -3,-1 -4,-1l0 0z"/>
   <path class="fil20" d="M39 391c-1,-1 -2,-1 -2,-2 0,1 0,1 0,1 0,2 1,2 2,3 0,0 0,-1 0,-2l0 0z"/>
   <path class="fil20" d="M73 382c1,1 1,1 2,2 0,-1 1,-1 1,-1 -1,-1 -2,-1 -2,-2 0,0 0,0 0,0 0,1 0,1 -1,1z"/>
   <path class="fil7" d="M101 281c-2,-11 -6,-30 -10,-47 -1,-8 -2,-16 -3,-22 1,12 1,43 -2,54 -1,3 2,8 1,10 -3,4 -26,-4 -26,-2 -1,1 17,11 21,8 4,-3 3,2 1,3 -3,3 -36,2 -40,-2 0,5 1,8 4,12 0,0 0,0 1,1 2,0 3,1 4,2 2,1 5,1 7,2 18,2 38,0 43,-6 1,-2 2,-3 1,-5 0,-2 -1,-5 -1,-8 0,0 0,0 -1,0z"/>
   <path class="fil7" d="M90 190c2,-4 -1,-11 -6,-8l-1 1c1,0 2,0 3,1 0,0 0,0 0,0 3,3 2,6 2,7 0,0 0,0 0,0 1,0 2,-1 2,-1z"/>
   <path class="fil6" d="M46 367c1,-7 5,-16 7,-21 3,-1 1,-6 1,-8l0 -1c-1,0 -3,0 -3,0 0,2 2,9 -3,8 -1,0 -1,0 -1,0 0,0 3,2 1,3 0,0 -7,18 -4,22 1,-1 2,-2 3,-2 0,0 0,-1 -1,-1l0 0z"/>
   <path class="fil6" d="M89 330c0,3 8,13 3,12 -2,0 -3,0 -3,0 0,0 0,2 2,2 4,0 -2,6 -2,9 -1,3 -2,9 -1,10 0,0 0,0 0,0 0,0 1,-1 1,-1 1,-12 5,-13 7,-18 4,-1 -2,-11 -1,-14 -1,0 -5,0 -6,0l0 0z"/>
   <path class="fil6" d="M42 283c-1,-11 3,-25 -3,-33 1,0 6,-3 11,-10 -2,-1 -4,-1 -6,-1 0,2 -5,8 -9,8 -2,0 1,1 2,3 5,7 0,34 6,43 1,1 2,3 3,4 1,1 6,4 6,10 1,4 2,7 2,7 1,0 1,-2 0,-4 0,0 0,-2 0,-2 0,-1 0,-3 0,-4 0,-2 -1,-3 -2,-5 0,0 0,0 0,0 -1,-2 -4,-3 -5,-3 0,0 0,-1 0,-1 -3,-3 -4,-7 -5,-12l0 0z"/>
   <g>
    <path class="fil21" d="M438 185c0,0 1,0 0,0zm-5 -1c-3,2 -7,5 -10,7 0,0 0,0 0,0 -6,4 -10,8 -18,10 4,-1 3,-1 6,-1 5,-2 13,-7 20,-11 0,0 0,0 0,0 2,-1 5,-3 7,-4 1,2 1,4 1,5 13,2 31,-2 27,-12 -2,-13 -13,-9 -24,-1 -1,0 -2,1 -3,2 0,0 0,0 0,0 -2,1 -4,3 -6,5l0 0z"/>
    <path class="fil4 str2" d="M466 178c-4,-18 -26,-2 -38,9 -6,6 -15,12 -25,14 5,0 18,-5 28,-12 11,-7 24,-10 23,-5"/>
    <path class="fil22 str2" d="M446 285c0,0 1,-1 1,-1 -1,-1 -3,-1 -4,-1 1,2 1,5 1,7 0,-1 1,-2 2,-5l0 0z"/>
    <path class="fil22 str2" d="M454 247c1,-1 3,-1 6,-1 1,-3 2,-6 3,-8 -3,0 -6,0 -9,0 0,2 0,6 0,9z"/>
    <path class="fil22 str2" d="M475 240c-2,1 -4,5 -5,9 5,1 8,3 8,4 3,-7 2,-10 -3,-13l0 0z"/>
    <path class="fil22 str2" d="M473 258l0 0c0,0 0,0 0,0zm5 -5c0,-1 -3,-3 -8,-4 -2,3 -4,7 -5,10 1,1 2,1 2,2 2,-1 4,-2 6,-3 0,0 0,0 0,0 0,0 0,0 2,0 1,-2 2,-4 3,-5l0 0z"/>
    <path class="fil22 str2" d="M465 259c1,-3 3,-7 5,-10 -4,-1 -7,-2 -10,-3 -1,4 -2,8 -3,11 2,0 5,1 8,2l0 0z"/>
    <path class="fil22 str2" d="M460 246c3,1 6,2 10,3 1,-4 3,-8 5,-9 -3,-1 -7,-2 -12,-2 -1,2 -2,5 -3,8l0 0z"/>
    <path class="fil22 str2" d="M457 257c1,-3 2,-7 3,-11 -3,0 -5,0 -6,1 0,3 0,7 0,10 1,0 2,0 3,0l0 0z"/>
    <path class="fil22 str2" d="M457 257c-1,0 -2,0 -3,0 0,5 0,10 0,13 0,-1 0,-1 0,-2 1,-3 2,-7 3,-11z"/>
    <path class="fil22 str2" d="M457 257c-1,4 -2,8 -3,11 1,0 2,0 2,1 2,-2 4,-3 7,-6 0,0 1,-2 2,-4 -3,-1 -6,-2 -8,-2l0 0z"/>
    <path class="fil22 str2" d="M465 259c-1,2 -2,4 -2,4 1,0 3,-1 4,-2 0,-1 -1,-1 -2,-2l0 0z"/>
    <path class="fil22 str2" d="M456 269c0,-1 -1,-1 -2,-1 0,1 0,1 0,2 0,0 0,0 0,0 0,0 1,-1 2,-1z"/>
    <path class="fil22 str2" d="M468 273c-3,2 -5,4 -7,6 1,0 3,1 4,1 1,-3 2,-6 3,-7l0 0z"/>
    <path class="fil22 str2" d="M465 280c-1,0 -3,-1 -4,-1 -1,1 -3,2 -4,3 0,0 -1,0 -1,0 -1,2 -1,3 -2,6 2,1 4,3 6,4 1,-4 3,-9 5,-12l0 0z"/>
    <path class="fil22 str2" d="M454 288c1,-3 1,-4 2,-6 -3,2 -7,2 -9,2 0,0 -1,1 -1,1 2,2 4,2 8,3l0 0z"/>
    <path class="fil22 str2" d="M447 302c2,1 6,3 7,4 1,-3 2,-5 3,-8 -1,-1 -4,-2 -7,-3 -1,2 -2,5 -3,7z"/>
    <path class="fil22 str2" d="M447 302c1,-2 2,-5 3,-7 -2,-2 -5,-2 -6,-2 0,3 1,5 1,8 0,0 1,1 2,1 0,0 0,0 0,0z"/>
    <path class="fil22 str2" d="M454 288c-1,2 -2,4 -4,7 3,1 6,2 7,3 1,-2 2,-4 3,-6 -2,-1 -4,-3 -6,-4z"/>
    <path class="fil23 str2" d="M434 183c-18,9 -43,9 -48,-2 0,-1 0,-1 0,-1 1,-2 1,-4 2,-7 0,-3 1,-6 1,-8 -7,-2 -23,3 -26,6 -13,12 4,25 27,29 4,1 7,1 11,1 0,0 2,0 2,0 0,0 0,0 0,0 10,-2 19,-8 25,-14 3,-1 4,-3 6,-4l0 0z"/>
    <path class="fil24 str2" d="M402 217c-5,-1 -11,0 -15,3 2,1 1,3 1,4 4,-1 9,-2 13,-2 0,-1 0,-4 1,-5l0 0z"/>
    <path class="fil24 str2" d="M412 201c6,2 13,5 21,5l0 0c0,1 1,2 0,4 -1,1 -2,2 -3,3 -6,-1 -12,1 -16,3 -10,-1 -12,-11 -2,-15l0 0zm-10 3c0,2 0,4 0,7 0,0 1,0 2,1 1,1 7,8 10,8 0,0 0,0 0,0 7,-3 13,-6 16,-3 3,4 1,12 -2,16 -3,3 -9,6 -15,7 -9,3 -14,1 -19,-2 -1,-1 -2,-2 -3,-2 0,8 0,39 0,62 -6,37 -31,54 -5,70 1,0 2,1 3,1 1,0 2,-1 3,-1 5,-70 63,-27 69,1 1,2 5,2 6,-2 1,-17 -9,-49 -22,-60 0,-7 -1,-15 -2,-24 5,1 10,1 14,-1 5,-3 18,-14 21,-17 1,0 1,0 1,1 2,3 8,5 12,5 6,0 11,-9 3,-9 -3,0 -5,0 -8,-2 0,0 0,0 0,0 0,0 0,0 1,0 1,-1 4,0 6,0 2,0 5,-3 1,-3 -2,1 -7,0 -7,0 -2,-1 -5,-2 -14,1 0,0 0,0 0,0 -7,3 -15,9 -19,12 1,-7 1,-38 -2,-40 -3,-1 -6,1 -8,4 -1,-12 -2,-28 -5,-44 0,-1 0,-3 -1,-5 -2,1 -4,3 -7,4 -7,5 -15,9 -20,11 -3,1 -6,1 -8,1 0,0 -2,0 -2,0 -4,0 -7,0 -11,-1l0 1c5,-1 9,1 12,3l0 0z"/>
    <path class="fil24 str2" d="M388 270c0,0 1,1 1,1 0,0 -1,-1 -1,-1zm-16 -13c-8,-1 -13,2 -15,3 0,0 -4,2 -6,2 -3,1 0,4 2,3 2,0 4,-2 5,-2 1,0 1,0 1,0 0,0 0,0 0,0 -2,4 -4,4 -7,5 -7,2 0,8 5,7 4,-1 10,-5 11,-8 0,-2 3,-4 5,-5 5,4 12,25 18,25 0,-21 0,-43 0,-51 -1,-1 -2,-2 -3,-1 -3,9 -2,27 0,35 -2,-4 -7,-12 -16,-13l0 0z"/>
    <path class="fil4 str2" d="M390 200c0,1 0,1 0,1m1 35c0,8 0,39 0,62"/>
    <path class="fil4 str2" d="M438 184c3,18 5,36 6,50"/>
    <path class="fil4 str2" d="M403 201c0,0 -2,0 -2,0 -29,0 -53,-16 -38,-30"/>
    <path class="fil4 str2" d="M434 183c-18,9 -43,9 -48,-2 1,-4 5,-38 14,-40 3,0 10,2 21,13"/>
    <path class="fil4 str2" d="M416 149c3,-3 6,-4 10,-5 11,20 11,24 13,35"/>
    <path class="fil4 str2" d="M438 190c12,2 32,-2 28,-13"/>
    <path class="fil4 str2" d="M438 176c2,1 4,1 4,0"/>
    <path class="fil4 str2" d="M391 165c-4,-3 -25,2 -28,6"/>
    <path class="fil4 str2" d="M409 222c-19,-2 -45,8 -31,11 5,1 15,1 21,-2 1,-1 5,-3 11,-5 7,-3 17,-6 17,-1 -1,9 -10,11 -17,13 -1,1 -7,1 -9,0 -4,-1 -11,-5 -10,-5"/>
    <path class="fil4 str2" d="M389 233c1,2 3,4 5,5 5,3 10,5 19,2 6,-1 12,-4 15,-7 3,-4 5,-12 2,-16 -3,-3 -9,0 -16,3 0,0 0,0 0,0 -3,0 -9,-7 -10,-8 -1,-1 -2,-1 -2,-1"/>
    <path class="fil4 str2" d="M402 204c0,4 0,12 -1,18"/>
    <path class="fil4 str2" d="M414 216c-10,-1 -12,-11 -2,-15m21 5c0,0 0,0 0,0 0,1 1,2 0,4 -1,1 -2,2 -3,3"/>
    <path class="fil4 str2" d="M413 217c5,-3 13,-6 21,-2"/>
    <path class="fil4 str2" d="M411 200c7,4 16,7 28,6"/>
    <path class="fil4 str2" d="M418 205c2,2 -4,8 -6,5 -3,-4 4,-8 6,-5z"/>
    <path class="fil4 str2" d="M394 205c2,2 -4,8 -7,5 -2,-4 4,-8 7,-5z"/>
    <path class="fil4 str2" d="M403 204c-4,-2 -8,-4 -13,-2 -7,1 -12,6 -10,11 1,3 3,5 8,7"/>
    <path class="fil4 str2" d="M402 217c-4,-1 -11,0 -15,3"/>
    <path class="fil4 str2" d="M387 220c2,1 1,3 1,4"/>
    <path class="fil4 str2" d="M397 232c1,0 1,4 0,5"/>
    <path class="fil4 str2" d="M403 229c1,0 1,8 0,10"/>
    <path class="fil4 str2" d="M411 225c2,2 2,9 2,12"/>
    <path class="fil4 str2" d="M418 223c3,6 1,11 2,12"/>
    <path class="fil4 str2" d="M372 257c-8,-1 -13,2 -15,3 0,0 -4,2 -6,2 -3,1 0,4 2,3 2,0 4,-2 5,-2 1,0 1,0 1,0"/>
    <path class="fil4 str2" d="M376 262c-1,0 -7,0 -8,5 -1,3 -7,7 -11,8 -5,1 -12,-5 -5,-7 3,-1 5,-1 7,-5"/>
    <path class="fil4 str2" d="M436 241c5,-1 11,-13 16,-11 3,2 3,33 2,40"/>
    <path class="fil4 str2" d="M441 252c0,1 3,33 4,55"/>
    <path class="fil4 str2" d="M449 273c1,-2 17,-13 29,-16"/>
    <path class="fil4 str2" d="M478 265c-3,3 -16,14 -21,17 -4,2 -10,2 -14,1"/>
    <path class="fil4 str2" d="M473 258c9,-3 12,-2 14,-1 0,0 5,1 7,0 4,0 1,3 -1,3 -2,0 -5,-1 -6,0 -1,0 -1,0 -1,0"/>
    <path class="fil4 str2" d="M471 263c1,-1 6,-1 8,3 2,3 8,5 12,5 6,0 11,-9 3,-9 -3,0 -5,0 -8,-2"/>
    <path class="fil4 str2" d="M478 260c1,0 5,1 5,2"/>
    <path class="fil4 str2" d="M368 260c-1,1 -4,3 -4,5"/>
    <path class="fil4 str2" d="M392 237c-1,-1 -3,-3 -4,-2 -3,10 -2,31 1,36"/>
    <path class="fil4 str2" d="M390 274c-1,-2 -4,-16 -19,-17"/>
    <path class="fil4 str2" d="M372 262c5,1 13,26 19,25"/>
    <path class="fil4 str2" d="M445 307c13,11 23,43 22,60 -1,4 -5,4 -6,2 -6,-28 -64,-71 -69,-1 -1,0 -2,1 -3,1 -1,0 -2,-1 -3,-1 -26,-16 -1,-33 5,-70"/>
    <path class="fil4 str2" d="M386 368c-6,3 -30,11 -28,16 1,1 6,0 8,1 2,2 2,6 5,7 3,1 7,0 9,0 5,0 5,4 7,4 1,-1 1,-3 2,-8 0,-2 6,-19 3,-20"/>
    <path class="fil4 str2" d="M461 369c2,8 3,8 7,9 11,5 24,11 25,10 2,0 -1,-3 1,-5 1,-2 6,-1 6,-3 1,-2 -5,-3 -3,-6 1,-3 5,-4 4,-5 -2,-1 -7,-1 -14,-1 -5,0 -15,-1 -21,-1"/>
    <path class="fil4 str2" d="M388 173c8,6 32,6 46,0 1,0 4,-1 4,-1"/>
    <path class="fil22 str2" d="M391 233c2,0 4,-1 6,-1 1,-1 2,-1 2,-1 1,-1 2,-1 4,-2 1,-1 3,-2 7,-3 0,0 1,-1 1,-1 3,-1 5,-1 7,-2 5,-1 9,-1 9,2 -1,5 -4,8 -7,10 -3,1 -5,2 -7,2 -1,1 -2,1 -3,1 -1,1 -4,1 -7,1 -1,0 -1,0 -2,-1 -1,0 -3,-1 -4,-1 -3,-2 -6,-4 -6,-4zm10 -11c-4,0 -9,1 -13,2 -12,2 -19,7 -10,9 3,0 7,0 11,0 1,1 1,2 2,3 1,0 2,1 3,2 5,3 10,5 19,2 6,-1 12,-4 15,-7 3,-4 5,-12 2,-16 -3,-3 -9,0 -16,3 0,0 0,0 0,0 -3,0 -9,-7 -10,-8 -1,-1 -2,-1 -2,-1 0,2 0,4 0,6 -1,1 -1,4 -1,5z"/>
    <path class="fil23 str2" d="M388 173c8,6 32,6 46,0 1,0 4,-1 4,-1 -2,-7 -3,-12 -12,-28 -4,1 -7,2 -10,5 -8,-7 -14,-8 -16,-8 -5,1 -8,14 -11,24 0,2 -1,5 -1,8l0 0z"/>
    <path class="fil25 str2" d="M439 178c0,0 0,-1 0,-2 -1,-2 -1,-3 -1,-4 -1,0 -3,1 -4,1 -14,6 -38,6 -46,0 -1,3 -1,5 -2,7 0,0 0,0 0,1 5,11 30,11 48,2 -2,1 -4,3 -6,4 4,-3 8,-6 11,-9l0 0z"/>
    <path class="fil11 str2" d="M433 206c-8,0 -15,-3 -21,-5 -10,4 -8,14 2,15 4,-2 10,-4 16,-3 1,-1 2,-2 3,-3 0,0 0,0 0,0 0,-1 0,-2 0,-2 0,-1 0,-1 0,-2 0,0 0,0 0,0l0 0zm-15 -1c2,2 -4,8 -6,5 -3,-4 4,-8 6,-5z"/>
    <path class="fil25" d="M412 210c2,3 8,-3 6,-5 -2,-3 -9,1 -6,5z"/>
    <path class="fil11" d="M412 207c1,0 2,-1 1,-2 0,0 -2,1 -1,2z"/>
    <path class="fil11 str2" d="M402 211c0,-3 0,-5 0,-7 -3,-2 -7,-4 -12,-3 0,0 0,0 0,1 -7,1 -12,6 -10,11 1,3 3,5 8,7 4,-3 9,-4 13,-3 0,0 0,0 1,0 0,-2 0,-4 0,-6l0 0zm-8 -6c2,2 -4,8 -7,5 -2,-4 4,-8 7,-5z"/>
    <path class="fil25" d="M387 210c3,3 9,-3 7,-5 -3,-3 -9,1 -7,5z"/>
    <path class="fil22 str2" d="M389 369c-1,0 -2,-1 -3,-1 -6,3 -30,11 -28,16 1,1 6,0 8,1 2,2 2,6 5,7 3,1 7,0 9,0 5,0 5,4 7,4 1,-1 1,-3 2,-8 0,-2 6,-19 3,-20 -1,0 -2,1 -3,1l0 0z"/>
    <path class="fil22 str2" d="M461 369c2,8 3,8 7,9 11,5 24,11 25,10 2,0 -1,-3 1,-5 1,-2 6,-1 6,-3 1,-2 -5,-3 -3,-6 1,-3 5,-4 4,-5 -2,-1 -7,-1 -14,-1 -5,0 -15,-1 -20,-1 -1,4 -5,4 -6,2l0 0z"/>
    <path class="fil4 str2" d="M454 238c21,-1 33,1 19,20"/>
    <path class="fil4 str2" d="M468 273c-1,2 -18,40 -18,40"/>
    <path class="fil4 str2" d="M454 247c5,-2 24,3 24,6"/>
    <path class="fil4 str2" d="M454 257c3,0 12,2 13,4"/>
    <path class="fil4 str2" d="M475 240c-3,3 -11,21 -12,23"/>
    <path class="fil4 str2" d="M463 238c-4,7 -7,23 -9,32"/>
    <path class="fil4 str2" d="M456 282c-3,7 -8,18 -11,25"/>
    <path class="fil4 str2" d="M444 285c1,0 12,3 16,7"/>
    <path class="fil4 str2" d="M444 293c2,-1 10,3 13,5"/>
    <path class="fil4 str2" d="M444 301c1,0 9,3 10,5"/>
    <path class="fil4 str2" d="M454 268c1,0 2,0 2,1"/>
    <path class="fil4 str2" d="M461 279c1,0 3,1 4,1"/>
    <path class="fil4 str2" d="M444 290c0,-1 2,-6 3,-6"/>
    <path class="fil26 str2" d="M454 306c-1,-1 -5,-3 -7,-4 0,2 -1,3 -2,5 2,1 3,4 5,6 0,0 2,-3 4,-7l0 0z"/>
    <path class="fil22 str2" d="M445 307c1,-2 2,-3 2,-5 -1,0 -2,-1 -2,-1 0,2 0,4 0,6 0,0 0,0 0,0z"/>
    <path class="fil22 str2" d="M444 293c1,0 4,0 6,2 2,-3 3,-5 4,-7 -4,-1 -6,-1 -8,-3 -1,3 -2,4 -2,5 0,1 0,2 0,3l0 0z"/>
    <path class="fil27" d="M462 370c-1,-12 -14,-45 -40,-49 -11,-2 -23,12 -24,20 17,-28 58,5 63,28 0,1 1,1 1,1z"/>
    <path class="fil27" d="M391 287c0,-2 0,-4 0,-5 -1,-1 -6,-12 -16,-20 0,0 -1,0 -2,0 5,4 12,25 18,25z"/>
    <path class="fil27" d="M391 237c-1,1 -2,40 0,44 0,-18 0,-36 0,-44z"/>
    <path class="fil27" d="M410 245c7,-1 14,-6 18,-9 0,0 0,0 0,-1 4,-2 4,-6 5,-8 0,0 0,0 0,0 -1,-3 -1,-6 -2,-7 1,4 0,10 -3,13 -3,3 -9,6 -15,7 -9,3 -14,1 -19,-2 -1,0 -1,-1 -2,-1 0,0 1,1 1,2 3,5 9,7 17,6l0 0z"/>
    <path class="fil27" d="M441 253c0,4 1,17 2,30 1,0 3,0 4,1 2,0 6,0 9,-2 0,0 1,0 1,0 1,-1 3,-2 4,-3 2,-2 4,-4 7,-6 3,-3 8,-6 10,-8 -2,2 -8,4 -12,8 -8,5 -18,10 -20,9 0,0 0,0 0,0 -1,0 -4,-23 -5,-29z"/>
    <path class="fil27" d="M471 263c1,0 5,0 6,2l0 0c0,0 1,0 1,0 -2,-3 -6,-2 -7,-2z"/>
    <path class="fil27" d="M413 200c3,0 27,-1 27,-6 -1,-2 -1,-6 -2,-8 0,-1 0,-1 0,-1 -2,1 -4,3 -7,4 -7,5 -14,9 -20,11 1,0 1,0 2,0l0 0z"/>
    <path class="fil27" d="M389 222c2,-2 12,-2 12,-2 0,-2 0,-3 0,-3 -4,-1 -9,0 -14,3 1,1 1,1 2,2z"/>
    <path class="fil27" d="M400 203c0,0 1,0 1,0 2,0 7,0 10,-2 0,0 1,0 1,0 -1,-1 -1,-1 -1,-1 -1,0 -1,0 -1,0 -2,1 -5,1 -7,1 0,0 0,0 0,0 -1,0 -2,0 -3,0 -2,0 -4,0 -5,0 0,0 3,1 5,2z"/>
    <path class="fil27" d="M433 206c1,1 1,1 1,2 3,0 5,0 5,-1 -2,0 -4,0 -6,-1 0,0 0,0 0,0z"/>
    <path class="fil28" d="M433 206c0,0 0,0 0,0 -9,0 -15,-2 -21,-5 0,0 0,0 -1,1 5,3 17,5 22,6 0,0 0,-1 0,-2l0 0z"/>
    <path class="fil28" d="M402 213c-1,3 -20,3 -22,0 1,4 5,5 8,5 3,-1 10,-2 13,-2 1,-1 1,-1 1,-3l0 0z"/>
    <path class="fil11" d="M388 207c1,1 2,-1 2,-2 -1,0 -3,1 -2,2z"/>
    <path class="fil4 str2" d="M454 260c2,1 10,5 9,3"/>
    <path class="fil26 str2" d="M468 273c-3,2 -5,4 -7,6 1,0 3,1 4,1 1,-3 2,-6 3,-7l0 0z"/>
    <path class="fil26 str2" d="M465 280c-1,0 -3,-1 -4,-1 -1,1 -3,2 -4,3 0,0 -1,0 -1,0 -1,2 -1,3 -2,6 2,1 4,3 6,4 1,-4 3,-9 5,-12l0 0z"/>
    <path class="fil26 str2" d="M456 282c-3,2 -7,2 -9,2 0,0 -1,1 -1,1 2,2 4,2 8,3 1,-3 1,-4 2,-6l0 0z"/>
    <path class="fil26 str2" d="M446 285c0,0 1,-1 1,-1 -1,-1 -3,-1 -4,-1 1,2 1,5 1,7 0,-1 1,-2 2,-5l0 0z"/>
    <path class="fil26 str2" d="M454 288c-4,-1 -6,-1 -8,-3 -1,3 -2,4 -2,5 0,1 0,2 0,3 1,0 4,0 6,2 2,-3 3,-5 4,-7l0 0z"/>
    <path class="fil26 str2" d="M454 288c-1,2 -2,4 -4,7 3,1 6,2 7,3l3 -6c-2,-1 -4,-3 -6,-4z"/>
    <path class="fil26 str2" d="M457 298c-1,-1 -4,-2 -7,-3 -1,2 -2,5 -3,7 2,1 6,3 7,4l3 -8z"/>
    <path class="fil26 str2" d="M447 302c1,-2 2,-5 3,-7 -2,-2 -5,-2 -6,-2 0,3 1,5 1,8 0,0 1,1 2,1 0,0 0,0 0,0z"/>
    <path class="fil26 str2" d="M447 302c-1,0 -2,-1 -2,-1 0,0 0,0 0,0 0,2 0,4 0,6 0,0 0,0 0,0 1,-2 2,-3 2,-5z"/>
    <path class="fil29" d="M389 388c0,-2 6,-19 3,-20 -2,0 -2,1 -5,1 1,1 3,14 2,21 0,-1 0,-1 0,-2z"/>
    <path class="fil29" d="M462 370c1,5 2,5 6,8 7,3 14,6 19,8 -1,0 -5,-2 -9,-5 0,-1 0,-1 -1,-1 -4,-3 -6,-10 -10,-12 -1,2 -4,3 -5,2l0 0z"/>
    <path class="fil21" d="M404 148c-5,2 -8,24 -8,28 10,3 27,2 38,-3 1,0 3,-1 4,-2 0,0 0,0 0,0 -2,-5 -3,-9 -10,-22 -4,0 -6,1 -8,4 -3,2 -3,6 -3,6 0,-3 -6,-8 -13,-10 0,-1 0,-1 0,-1 0,0 0,0 0,0 0,0 0,0 0,0z"/>
    <path class="fil21" d="M433 184c-8,3 -14,5 -21,5 2,0 9,1 10,2 0,0 0,0 1,0 2,-2 4,-3 7,-5 1,-1 1,-1 2,-2 0,0 0,0 1,0 0,0 0,0 0,0z"/>
    <path class="fil4 str2" d="M396 177c6,1 6,11 17,12"/>
    <path class="fil21" d="M387 173c-7,4 -9,6 -9,12 0,-4 5,-4 8,-4 0,-1 1,-5 1,-8z"/>
    <path class="fil4 str2" d="M386 181c-4,0 -7,0 -8,4"/>
    <path class="fil30" d="M389 166c0,0 0,-1 0,-1 0,0 0,1 0,1zm29 28c-16,-2 -42,15 -57,-10 -1,-3 -1,-7 3,-11 6,-6 19,-8 25,-7 0,0 0,0 0,0 0,0 0,0 0,0 -1,3 -1,4 -1,7 0,0 1,0 1,1 0,-6 8,-30 15,-32 0,0 1,0 1,0 -2,-1 -4,-1 -5,-1 -5,1 -8,14 -11,24 -7,-2 -23,3 -26,6 -13,12 4,25 27,29 4,1 7,1 11,1 0,0 2,0 2,0 0,0 0,0 0,0 6,-1 11,-3 15,-7l0 0z"/>
    <path class="fil30" d="M417 149c2,-1 9,-3 9,-5 -4,1 -7,2 -9,5z"/>
    <path class="fil31" d="M396 177c-3,-1 -5,-3 -7,-3 0,-1 -1,-1 -1,-1 -1,3 -1,5 -2,7 0,0 0,0 0,1 3,7 14,10 27,8 -11,-1 -11,-11 -17,-12z"/>
    <path class="fil32" d="M376 232c1,-4 20,-7 25,-10 -4,0 -9,1 -13,2 -10,2 -17,6 -12,8l0 0z"/>
    <path class="fil33" d="M367 267c-3,5 -17,4 -18,3 0,2 4,5 8,4 4,0 9,-4 10,-7l0 0z"/>
    <path class="fil33" d="M350 265c8,-2 13,-7 21,-7 5,0 12,5 15,9 -3,-5 -7,-9 -14,-10 -8,-1 -13,2 -14,3 -1,0 -5,2 -7,3 -1,0 -1,0 -1,2z"/>
    <path class="fil33" d="M388 235c-3,9 -2,28 1,36 0,0 0,1 0,1 0,0 1,1 1,1 0,0 -5,-32 0,-38 -1,0 -1,0 -2,0z"/>
    <path class="fil33" d="M470 260c8,-3 24,-1 25,-2 0,0 2,0 -1,0 -2,0 -6,-1 -7,-1 0,0 0,0 0,0 -6,-2 -9,0 -17,3l0 0z"/>
    <path class="fil33" d="M498 263c2,5 -10,7 -10,7 1,1 2,1 3,1 4,-1 9,-5 7,-8z"/>
    <path class="fil4 str2" d="M439 178c1,0 2,-1 3,-2 -1,1 -2,0 -3,0 0,1 0,2 0,2z"/>
    <path class="fil21 str2" d="M439 178c1,0 2,-1 3,-2 -1,1 -2,2 -3,2zm0 -2c0,1 0,2 0,2 0,0 0,1 0,1 1,-1 2,-2 3,-2 8,-7 18,-11 22,-5 -4,-6 -14,-2 -22,4 -1,1 -2,0 -3,0z"/>
   </g>
   <path class="fil34 str2" d="M254 263c9,2 16,3 27,0 1,-4 0,-10 -1,-13 -1,1 -3,1 -3,1 -1,0 -2,0 -2,0 -11,-2 -18,-6 -24,-11 -3,3 1,22 3,23z"/>
   <path class="fil14 str2" d="M281 263c-11,3 -18,2 -27,0 -2,-1 -6,-20 -3,-23 -3,-1 -6,-3 -8,-4 -2,1 -4,3 -7,4 0,11 2,20 3,31 4,1 13,3 13,3 1,-1 3,21 3,21 0,1 -7,-1 -11,-2 0,0 0,1 1,2 4,3 13,4 20,4 0,-1 0,-1 0,-2 1,0 10,0 10,0 0,0 0,1 0,2 8,-1 15,-2 21,-3 0,0 0,0 0,-1 -4,1 -7,2 -10,1 -2,0 -2,-19 -2,-22 0,0 0,0 0,0 1,0 8,0 13,-2 1,-11 1,-22 0,-29 1,0 2,0 3,-2 0,0 0,0 0,0 0,-1 0,-3 -2,-5 -1,1 -1,2 -2,2 -2,3 -11,9 -16,12 1,3 2,9 1,13l0 0z"/>
   <path class="fil14 str2" d="M246 225c-1,-8 5,-35 -3,-44 -2,1 -3,1 -3,1 -4,-1 -33,23 -29,27 0,0 1,1 2,1 0,0 0,0 0,0 11,1 18,5 22,7 0,1 1,1 1,3 1,0 1,0 1,0 0,1 0,1 0,2 2,0 6,2 9,3l0 0z"/>
   <path class="fil14 str2" d="M305 199c0,-5 -11,-17 -21,-19 -6,7 -13,24 -15,34 0,-1 1,-1 1,-2 4,-1 6,-2 7,-2 4,1 -12,8 -12,11 0,0 1,0 2,0 6,-1 17,-1 15,2 -1,1 -15,0 -16,1 0,0 0,0 0,0 0,0 0,0 0,0 0,0 1,1 2,1l-1 2 0 0c0,0 0,0 0,0 1,-1 2,-2 3,-3 10,2 22,7 28,12 2,2 2,4 2,5 0,0 0,0 0,0 0,0 0,0 0,0 0,-2 2,-8 4,-16 0,0 0,-1 0,-1 2,-10 3,-19 1,-25l0 0zm-1 -4c-1,-1 -1,-1 -1,-1 0,0 0,1 1,1z"/>
   <path class="fil8" d="M269 79c0,9 -5,19 -14,17 -3,-1 -7,-5 -8,-9 0,0 0,0 0,0 -4,0 -10,0 -16,0 -10,0 -20,1 -23,4 -9,7 -5,30 2,38 2,5 24,3 29,2 2,7 8,23 0,27 -10,6 5,3 9,3 1,0 1,0 1,1 2,4 3,12 3,19 0,0 0,0 0,1 14,1 26,1 27,-1 -1,-7 1,-41 3,-73 24,2 14,-27 1,-21 1,-17 2,-32 2,-38 -4,-4 -9,-8 -14,-10 -1,0 -1,0 -1,0 -8,-1 -22,16 -19,18 0,0 0,0 0,0 -4,-1 7,-21 5,-22 -9,0 -16,3 -22,8l-7 4c3,5 5,13 6,17 0,1 0,1 -1,1 3,-3 6,-4 9,-4 5,0 8,4 11,8 2,-1 4,-2 7,-2 7,0 10,6 10,12l0 0zm17 16c0,1 -1,1 0,0z"/>
   <path class="fil8" d="M235 217c-4,-2 -11,-6 -22,-7 0,0 -1,1 -1,2 -4,5 -9,13 -11,17 0,1 -1,2 -1,2 2,18 22,17 36,9 3,-1 5,-3 7,-4 -4,-3 -8,-6 -14,-8 -3,1 -5,1 -7,1 1,0 2,-1 3,-1 4,-2 7,-4 9,-7 0,0 0,0 0,-1 0,0 0,-2 1,-3l0 0z"/>
   <path class="fil8" d="M263 229c-4,-1 -9,-2 -14,-3 -5,-2 -10,-4 -13,-5 -1,0 -2,0 -2,0 -2,3 -5,5 -9,7 1,0 2,0 4,0 6,2 10,5 14,8 2,1 5,3 8,4 6,5 13,9 24,11 0,0 1,0 2,0 0,0 2,0 3,-1 5,-3 14,-9 16,-12 1,0 1,-1 2,-2 -6,-5 -18,-10 -28,-12 -1,1 -2,2 -3,3 -1,1 -2,2 -2,2 -1,0 -2,0 -2,0l0 0z"/>
   <path class="fil8" d="M264 226c0,0 0,0 0,0 0,0 0,0 0,0zm1 0c0,0 -1,0 -1,0 0,0 1,0 1,0zm1 -2c0,0 0,0 0,0zm-2 -10c-5,2 -10,8 -10,9 0,1 0,1 -1,1 -1,1 -4,1 -4,2 2,0 3,0 4,1l8 1c0,0 1,1 2,1 0,0 1,0 2,0l2 -2c-1,0 -1,0 -2,-1 1,1 1,1 2,1l1 -2c-1,0 -2,-1 -2,-1 0,0 0,0 0,0 0,0 0,0 0,0 1,-1 15,0 16,-1 2,-3 -9,-3 -15,-2 -1,0 -2,0 -2,0 0,-3 16,-10 12,-11 -1,0 -3,1 -7,2 0,1 -1,1 -1,2 -1,0 -2,1 -2,1 -1,0 -1,-1 -2,-1 0,0 -1,0 -1,0l0 0z"/>
   <polyline class="fil4 str2" points="227,47 254,28 281,37 285,47 "/>
   <path class="fil4 str3" d="M253 397c-1,-1 -1,-10 0,-18m-15 -2c-1,6 -4,11 -6,12"/>
   <path class="fil4 str3" d="M275 95c15,-27 37,17 6,11"/>
   <path class="fil4 str3" d="M281 94c1,-5 7,-8 5,1 -1,2 -1,-1 3,0 4,0 -3,4 0,5 4,1 -4,4 -7,1"/>
   <path class="fil4 str3" d="M227 46c2,6 5,14 6,18 -9,7 -10,14 -2,23m21 95c0,-5 -1,-16 -3,-20 0,-2 -23,2 -10,-4 8,-4 2,-20 0,-27 -5,1 -27,3 -29,-2 -7,-8 -11,-31 -2,-38 5,-7 31,-4 39,-4 -2,-9 -1,-15 5,-18"/>
   <path class="fil4 str3" d="M252 182c14,1 26,1 27,-1 -1,-7 1,-41 3,-73m1 -21c1,-19 2,-35 2,-40"/>
   <path class="fil4 str3" d="M231 87c-11,-11 -2,-26 10,-26 5,0 8,4 11,8"/>
   <path class="fil1 str3" d="M259 67c18,1 11,32 -4,29 -11,-3 -15,-29 4,-29z"/>
   <path class="fil4 str3" d="M225 77c4,0 19,0 21,0"/>
   <path class="fil4 str3" d="M246 78c7,1 15,1 23,1"/>
   <circle class="fil25" cx="243" cy="80" r="3"/>
   <circle class="fil25" cx="264" cy="83" r="3"/>
   <path class="fil4 str3" d="M248 161c5,0 11,0 13,-4"/>
   <path class="fil4 str3" d="M247 304c-1,-6 -10,-36 -11,-64m61 3c2,19 -1,63 -3,65"/>
   <path class="fil35" d="M294 192c5,10 2,31 -4,40 3,1 10,5 10,8 0,0 0,3 0,0 1,-4 4,-15 5,-26 1,-5 1,-10 0,-13 -2,-8 -7,-16 -21,-21 2,4 7,4 10,12l0 0z"/>
   <path class="fil4 str3" d="M266 224c13,0 36,12 34,17 0,0 0,0 0,0 1,-4 10,-34 4,-45m-20 -3c-5,5 -10,16 -14,19"/>
   <path class="fil35" d="M246 205c0,-4 0,-9 0,-13 -1,7 -9,21 -13,23 1,1 4,3 4,5 0,0 0,0 0,0 4,0 8,-12 9,-15l0 0z"/>
   <path class="fil36" d="M211 208c0,2 0,1 0,0zm5 2c2,-8 18,-20 28,-25 0,-1 0,-2 -1,-3 -4,0 -10,4 -18,9 -7,5 -14,13 -14,17 0,2 4,1 5,2l0 0z"/>
   <path class="fil16" d="M204 232c4,-8 12,-19 13,-21 -1,0 -2,0 -3,-1 -5,6 -8,12 -13,19 0,1 -1,2 -1,2 1,6 4,9 9,12 -3,-4 -6,-10 -5,-11l0 0z"/>
   <path class="fil6" d="M234 217c-1,-1 -3,-2 -5,-3 0,4 -10,14 -14,17 3,-1 3,-2 7,-2 0,0 1,0 1,-1 2,-1 6,-3 7,-4 2,-2 4,-3 4,-7z"/>
   <path class="fil4 str3" d="M240 182c-4,-1 -39,26 -27,28 14,1 23,8 24,10 5,2 11,-16 10,-18"/>
   <path class="fil6" d="M290 232c1,5 -14,18 -17,18 1,0 2,0 2,0 1,1 2,1 3,1 0,0 1,-1 3,-2 2,0 4,-2 6,-3 3,-2 7,-7 10,-10 -1,-1 -4,-2 -7,-4l0 0z"/>
   <path class="fil4 str3" d="M298 236c-4,4 -17,16 -21,15 -24,-2 -32,-19 -52,-23"/>
   <path class="fil4 str3" d="M270 224c-1,1 -4,5 -5,5"/>
   <path class="fil6" d="M234 221c-2,3 -4,5 -7,6 3,1 5,2 7,3 2,-1 5,-6 3,-8 -1,0 -2,-1 -3,-1l0 0z"/>
   <path class="fil4 str3" d="M234 221c3,0 18,6 29,8 2,0 8,3 8,5"/>
   <path class="fil6" d="M243 236c-1,-1 -2,-1 -3,-2 -2,4 -19,11 -25,11 7,1 12,-1 18,-4 3,-1 6,-3 10,-5z"/>
   <path class="fil36" d="M242 237c-1,1 -3,2 -5,3 0,11 1,20 3,30 1,1 4,2 6,2 -4,-1 -5,-31 -4,-35z"/>
   <path class="fil4 str3" d="M213 210c-4,5 -10,15 -12,19 0,1 -1,2 -1,2 2,20 30,17 43,5"/>
   <path class="fil4 str3" d="M235 217c-1,6 -8,10 -13,12"/>
   <path class="fil4 str3" d="M215 232c1,-1 8,-3 14,-4"/>
   <path class="fil4 str3" d="M279 181c11,-4 26,13 26,18"/>
   <path class="fil4 str3" d="M239 182c1,0 6,-1 13,-1"/>
   <path class="fil4 str3" d="M300 241c-1,2 -6,2 -7,0l1 -1"/>
   <path class="fil4 str3" d="M211 208c-1,1 0,3 1,4"/>
   <path class="fil4 str3" d="M238 220c0,0 -3,1 -4,0"/>
   <path class="fil4 str3" d="M263 226c2,0 3,0 4,1"/>
   <path class="fil6" d="M264 226l0 0c0,0 0,0 0,0zm1 0c0,0 -1,0 -1,0 0,0 1,0 1,0zm0 0c0,0 -1,0 -1,0 0,0 1,0 1,0zm-12 -2c-1,1 -4,1 -4,2 2,0 3,0 4,1l8 1c0,0 1,1 2,1 0,0 1,0 2,0l2 -2c-1,0 -1,0 -2,-1 1,1 1,1 2,1l1 -2c0,0 -1,0 -1,0 -10,-2 -11,-1 -14,-1 0,0 0,0 0,0l0 0z"/>
   <path class="fil4 str3" d="M267 227l-2 2 -16 -3c0,0 5,-2 5,-3 0,-1 5,-7 10,-9 1,0 2,0 3,1m-4 2c3,-1 11,-8 14,-7 4,1 -12,8 -12,11 0,0 1,0 2,0 6,-1 17,-1 15,2 -1,1 -15,0 -16,1 0,0 0,0 0,0 0,0 1,1 2,1l-1 2c-1,0 -3,-1 -3,-1"/>
   <path class="fil4 str3" d="M248 302c-4,9 -14,34 -8,37"/>
   <path class="fil4 str3" d="M273 308c-3,12 -15,18 -19,28"/>
   <path class="fil4 str3" d="M294 308c2,5 0,15 -1,22"/>
   <path class="fil4 str3" d="M273 307c2,4 3,15 3,23"/>
   <path class="fil4 str3" d="M240 339c1,5 1,9 1,16m-1 11c0,0 0,0 0,0"/>
   <path class="fil4 str3" d="M254 336c3,7 4,12 3,16"/>
   <path class="fil4 str3" d="M276 342c-1,4 -3,10 -3,17"/>
   <path class="fil4 str3" d="M293 343c-1,4 -1,9 -2,15"/>
   <path class="fil4 str3" d="M296 405c2,-10 -25,-11 -26,0 0,2 24,2 26,0z"/>
   <path class="fil4 str3" d="M270 404c0,-5 9,-5 6,-21 0,-1 0,-1 0,-2"/>
   <path class="fil4 str3" d="M288 381c1,10 8,19 8,22"/>
   <path class="fil4 str3" d="M270 404c4,1 24,1 26,-1"/>
   <path class="fil4 str3" d="M257 357c0,-1 0,-4 0,-5"/>
   <path class="fil4 str3" d="M257 356c0,1 1,23 1,23 -1,0 -5,0 -9,0 -5,0 -11,-1 -16,-5 2,-1 6,-9 7,-12 0,0 1,-6 1,-7"/>
   <path class="fil4 str3" d="M232 389c-3,0 -14,4 -16,5 -9,6 5,10 14,9 7,-1 19,-6 23,-8"/>
   <path class="fil4 str3" d="M253 397c-1,4 -26,13 -38,6 -3,-1 -3,-4 -1,-7"/>
   <path class="fil4 str3" d="M221 392c3,0 6,2 8,11"/>
   <path class="fil4 str3" d="M253 387c-6,1 -10,9 -10,13"/>
   <path class="fil4 str3" d="M230 389c1,0 7,0 7,1"/>
   <path class="fil4 str3" d="M232 389c0,0 4,-1 5,0"/>
   <path class="fil4 str3" d="M269 378c4,5 23,4 27,1"/>
   <path class="fil4 str3" d="M292 353c-2,7 -1,21 4,26"/>
   <path class="fil4 str3" d="M273 358c0,5 -3,17 -4,20"/>
   <path class="fil4 str3" d="M293 330c3,6 3,10 -1,15"/>
   <path class="fil4 str3" d="M276 330c-1,2 -6,11 3,14"/>
   <path class="fil4 str3" d="M297 274c-5,1 -9,2 -13,0 0,3 0,22 2,22 3,1 7,0 10,-1"/>
   <path class="fil4 str3" d="M240 272c3,2 9,4 12,2 1,-1 3,21 3,21 0,1 -7,-1 -11,-2"/>
   <path class="fil4 str3" d="M251 240c-3,3 1,22 3,23 9,2 16,3 27,0 1,-4 0,-10 -1,-13"/>
   <path class="fil4 str3" d="M243 181c8,9 2,36 3,44"/>
   <path class="fil4 str3" d="M279 180c-4,4 -15,31 -14,34"/>
   <path class="fil4 str3" d="M284 180c-6,7 -13,24 -15,34"/>
   <path class="fil4 str3" d="M254 243c0,3 0,9 1,9 0,0 13,1 19,1 1,0 1,-2 1,-2"/>
   <path class="fil4 str3" d="M245 295c4,3 13,4 20,4m10 0c8,-1 15,-2 21,-3"/>
   <path class="fil4 str3" d="M247 302c9,2 14,3 19,4m10 0c5,-1 10,-2 20,-3"/>
   <path class="fil4 str3" d="M284 274c0,0 8,0 13,-2"/>
   <path class="fil4 str3" d="M252 274c0,0 -9,-2 -13,-3"/>
   <path class="fil4 str3" d="M270 307c0,1 0,1 3,3"/>
   <path class="fil37 str3" d="M265 297c0,1 1,10 1,10 0,0 10,1 10,0 0,0 -1,-9 -1,-10 0,0 -9,0 -10,0z"/>
   <path class="fil4 str3" d="M280 313c-1,-1 0,12 1,13 1,2 9,2 9,-1 0,-1 0,-13 0,-13 0,1 -10,1 -10,1z"/>
   <path class="fil4 str3" d="M247 308c1,2 7,5 10,5 1,0 1,0 0,1 -2,1 -9,12 -8,12 0,0 0,0 0,0 -2,1 -7,-1 -8,-1 -1,-1 5,-17 6,-17l0 0z"/>
   <path class="fil6" d="M270 45c7,0 10,8 14,13 0,-4 0,-7 0,-9 -3,-3 -6,-7 -10,-8 0,0 0,0 0,0 -4,0 -6,0 -8,0 -2,0 -3,1 -5,2l-5 6c0,1 -7,12 -2,10 0,0 9,-13 16,-14z"/>
   <path class="fil38 str6" d="M282 32c1,2 11,22 8,23 -1,0 -10,-14 -19,-16 -1,0 -1,0 -1,0 -8,-1 -22,16 -19,18 0,0 0,0 0,0 -4,-1 7,-21 5,-22 -21,1 -38,19 -43,26 -1,1 -1,1 -1,0 -10,-37 13,-34 34,-42 1,0 1,-2 1,-2 0,-4 -21,-7 -27,-5 -5,1 9,-8 22,-10 15,-2 25,14 26,14 -1,-1 11,-17 17,-14 -2,1 -11,10 -9,14 7,-9 49,-3 43,-2 -8,1 -28,3 -32,9 5,0 21,23 21,24 0,0 0,0 0,0 -1,-2 -24,-16 -26,-15l0 0z"/>
   <path class="fil14 str2" d="M265 214c-1,-3 10,-30 14,-34 0,1 0,1 0,1 -1,2 -13,2 -27,1l0 -1c0,0 0,0 0,0 0,0 -1,0 -3,0 6,8 2,37 4,43 1,0 1,0 1,-1 0,-1 5,-7 10,-9 0,0 1,0 1,0l0 0z"/>
   <path class="fil14 str2" d="M257 314c-2,1 -9,12 -8,12 0,0 0,0 0,0 -2,1 -7,-1 -8,-1 -1,-1 5,-17 6,-17 1,2 7,5 10,5 1,0 1,0 0,1l0 0zm9 -8c-5,-1 -10,-2 -18,-4 0,1 0,1 -1,2 -4,9 -13,32 -7,35 1,5 1,9 1,16 0,1 -1,7 -1,7 -1,3 -5,11 -7,12 2,1 3,3 5,3 4,1 8,2 11,2 2,0 3,0 4,0 2,0 5,0 5,0 0,0 -1,-22 -1,-23 0,-1 0,-3 0,-4 1,-4 0,-9 -3,-16 4,-10 15,-16 19,-26 0,-2 -2,-3 -3,-3 -2,0 -4,0 -4,0 0,0 0,-1 0,-1l0 0z"/>
   <path class="fil14 str2" d="M276 342c-1,4 -3,9 -3,16 0,6 -3,17 -4,20 1,2 4,3 7,3 4,1 8,1 12,0 3,0 6,-1 8,-2 -5,-5 -6,-18 -4,-24l1 -12c3,-4 3,-7 0,-13 1,-7 3,-17 1,-22 0,-1 0,-3 2,-5 -10,1 -15,2 -20,3 0,0 0,1 0,1 0,0 -1,0 -3,0 2,4 3,15 3,23 -1,2 -5,8 0,12l0 0zm5 -16c-1,-1 -2,-14 -1,-13 0,0 10,0 10,-1 0,0 0,12 0,13 0,3 -8,3 -9,1z"/>
   <path class="fil34 str2" d="M255 295c0,0 -2,-22 -3,-21 -3,2 -9,0 -12,-2 1,7 3,15 4,21 4,1 11,3 11,2z"/>
   <path class="fil34 str2" d="M284 274c0,3 0,22 2,22 3,1 6,0 10,-1 1,-5 1,-14 1,-21 -5,1 -9,2 -13,0 0,0 0,0 0,0l0 0z"/>
   <path class="fil39" d="M297 285c-1,5 -7,7 -12,7 0,2 1,4 1,4 2,1 7,0 10,-1 0,-3 0,-6 1,-10z"/>
   <path class="fil34 str2" d="M257 313c-3,0 -9,-3 -10,-5 -1,0 -7,16 -6,17 1,0 6,2 8,1 0,0 0,0 0,0 -1,0 6,-11 8,-12 1,-1 1,-1 0,-1l0 0z"/>
   <path class="fil34 str2" d="M280 313c-1,-1 0,12 1,13 1,2 9,2 9,-1 0,-1 0,-13 0,-13 0,1 -10,1 -10,1z"/>
   <path class="fil34 str2" d="M253 224c-2,-6 2,-35 -4,-43 -2,0 -4,0 -6,0 8,9 2,36 3,44 1,0 2,0 3,1 0,-1 3,-1 4,-2l0 0z"/>
   <path class="fil34 str2" d="M279 180c-4,4 -15,31 -14,34 1,0 1,1 2,1 0,0 1,-1 2,-1 2,-10 9,-27 15,-34 -1,0 -3,0 -5,0l0 0z"/>
   <path class="fil40 str2" d="M265 299c-7,0 -16,-1 -20,-4 1,3 1,5 2,7 0,0 1,0 1,0 8,2 13,3 18,4 0,-2 -1,-5 -1,-7z"/>
   <path class="fil15 str2" d="M275 299c0,1 1,5 1,7 5,-1 10,-2 20,-3 0,-2 0,-4 0,-7 -6,1 -13,2 -21,3z"/>
   <path class="fil34 str2" d="M231 389c0,0 -1,0 -1,0 -3,1 -6,2 -9,3 3,0 6,2 8,11 0,0 0,0 1,0 3,0 9,-2 13,-3 0,-4 4,-12 10,-13 0,-2 0,-5 0,-8 -1,0 -2,0 -4,0 -3,0 -7,-1 -11,-2 -1,6 -4,11 -6,12 0,0 -1,0 -1,0l0 0z"/>
   <path class="fil34 str2" d="M276 383c2,16 -5,16 -6,21 0,0 1,0 1,0 3,-10 22,-9 25,-1 0,0 0,0 0,0 0,0 0,0 0,0 0,-3 -7,-12 -8,-22 -4,1 -8,1 -12,0 0,1 0,1 0,2l0 0z"/>
   <path class="fil40 str2" d="M215 403c11,7 36,-1 38,-6 0,0 0,-1 0,-2 -2,1 -6,2 -10,5 -4,1 -10,3 -13,3 -1,0 -1,0 -1,0 -6,1 -16,-2 -16,-6 -1,3 0,5 2,6l0 0z"/>
   <path class="fil40 str2" d="M270 405c0,2 24,2 26,0 0,-1 0,-2 0,-2 -2,2 -22,1 -26,1 0,0 0,0 0,0 0,1 0,1 0,1z"/>
   <path class="fil41 str2" d="M229 403c-2,-9 -5,-11 -8,-11 -3,1 -4,2 -5,2 -2,1 -3,2 -3,3 0,4 10,7 16,6z"/>
   <path class="fil41 str2" d="M253 387c-6,1 -10,9 -10,13 4,-3 8,-4 10,-5 0,-2 -1,-4 0,-8z"/>
   <path class="fil41 str2" d="M287 397c-5,-1 -10,0 -13,3 -1,1 -3,2 -3,4 4,0 21,1 25,-1 -2,-3 -5,-4 -9,-6l0 0z"/>
   <path class="fil4 str2" d="M226 77c4,0 18,0 20,0 0,-1 0,-1 1,-2 0,-2 1,-3 2,-4 0,-1 2,-1 3,-2 -3,-4 -6,-8 -11,-8 -3,0 -6,1 -9,4 -3,3 -6,6 -6,10 0,0 0,0 0,0 0,0 0,0 0,0 -1,1 -1,1 0,2l0 0z"/>
   <path class="fil8 str2" d="M226 77c4,0 18,0 20,0 0,-1 0,-1 1,-2 0,-2 1,-3 2,-4 0,-1 2,-1 3,-2 -3,-4 -6,-8 -11,-8 -3,0 -6,1 -9,4 -3,3 -6,6 -6,10 0,0 0,0 0,0l0 0c0,0 0,0 0,0 -1,1 -1,1 0,2l0 0z"/>
   <path class="fil8 str2" d="M247 75c-1,1 -1,2 -1,3 7,1 15,1 23,1 0,-6 -3,-12 -10,-12 -3,0 -5,1 -7,2 -1,1 -3,1 -3,2 -1,1 -2,2 -2,4l0 0z"/>
   <path class="fil25" d="M252 274c0,0 -9,-2 -13,-3 0,0 1,0 1,1 3,2 9,4 12,2l0 0z"/>
   <path class="fil25" d="M284 274c4,2 8,1 13,0 0,-1 0,-1 0,-2 -5,2 -12,2 -13,2z"/>
   <path class="fil25" d="M234 220c1,1 3,0 4,0 0,0 0,0 0,0 -1,0 -1,0 -1,0 0,0 0,0 -1,0 0,-2 -1,-2 -1,-3 -1,1 -1,3 -1,3l0 0z"/>
   <path class="fil25" d="M212 212c0,-1 1,-2 1,-2l0 0c-1,0 -2,-1 -2,-1 0,0 0,-1 0,-1 -1,1 0,3 1,4 0,0 0,0 0,0l0 0z"/>
   <path class="fil25 str2" d="M296 238c0,1 -2,1 -2,2l-1 1c1,0 3,2 4,2 1,0 2,0 3,-2 0,0 0,0 0,0 0,-1 0,-3 -2,-5 -1,1 -1,2 -2,2l0 0z"/>
   <path class="fil36" d="M249 181c2,0 2,1 2,1 1,0 1,0 1,0 0,0 0,0 0,-1 -1,0 -1,0 -3,0z"/>
   <path class="fil36" d="M248 295c-1,-1 -2,-1 -3,-1l0 0c1,1 2,1 3,2 0,-1 0,-1 0,-1z"/>
   <path class="fil36" d="M248 303c-3,5 -14,32 -8,36 1,5 1,9 1,16 0,1 -1,7 -1,7 -1,3 -5,11 -7,12 15,3 13,-25 10,-32 0,-3 6,-2 6,-3 0,0 -6,1 -7,-1 -2,-2 -1,-8 0,-13 0,0 -1,0 -1,0 0,0 0,-1 0,-1 0,-2 2,-8 4,-11 0,-2 1,-3 2,-3 0,-2 0,-2 1,-2 0,0 0,2 1,2 0,-2 3,-6 3,-6 -1,-1 -3,-1 -4,-1 0,0 0,0 0,0z"/>
   <path class="fil36" d="M276 342c-1,4 -3,9 -3,16 0,6 -3,17 -4,20 0,2 9,4 11,3 -3,-7 -7,-22 0,-38 0,-1 -3,-2 -3,-2 -2,-2 -2,-6 -1,-7 5,-2 0,-13 -1,-18 0,4 1,10 1,14 -1,2 -3,8 0,12l0 0z"/>
   <path class="fil15" d="M245 184c2,-1 3,-1 6,-2 -2,0 -2,-1 -2,-1 -2,0 -4,0 -6,0 1,1 2,2 2,3l0 0z"/>
   <path class="fil42" d="M245 274c-2,0 -4,-1 -5,-2 1,8 3,15 4,21 1,0 3,1 4,1 -2,-6 -4,-16 -3,-20z"/>
   <path class="fil28" d="M248 296c-1,0 -2,0 -3,-1 1,3 1,5 2,7 1,0 4,1 5,1 -1,-1 -4,-4 -4,-7l0 0z"/>
   <path class="fil42" d="M247 308c-1,0 -7,16 -6,17 0,0 1,0 1,0 2,-5 4,-10 7,-15 -1,0 -2,0 -2,-2z"/>
   <path class="fil15" d="M226 394c4,-1 8,-2 10,-4 0,0 0,0 1,0 3,-3 5,-6 6,-12 -2,0 -3,0 -5,-1 -2,8 -3,10 -5,12 0,0 0,0 -1,0 -3,0 -5,1 -10,3 2,0 3,1 4,3 0,0 0,0 0,-1l0 0z"/>
   <path class="fil15" d="M271 403c2,-3 4,-4 7,-6 0,-1 6,-6 2,-15 -1,0 -3,0 -4,-1 2,11 0,15 -3,19 -2,1 -2,2 -2,3 0,0 0,0 0,0l0 0z"/>
   <path class="fil43" d="M215 401c2,-2 2,-2 10,-6 -1,-2 -3,-3 -4,-2 -2,0 -6,1 -7,3 0,0 -1,1 -1,1 0,2 1,3 2,4l0 0z"/>
   <path class="fil43" d="M271 403c2,1 5,1 8,1 -1,-1 -2,-4 -1,-5 -3,1 -5,1 -7,4z"/>
   <path class="fil28" d="M215 401c-1,-1 -2,-1 -2,-2 0,1 0,3 2,4 0,-1 0,-1 0,-2l0 0z"/>
   <path class="fil28" d="M270 405c1,1 5,1 9,1 0,-1 0,-1 0,-2 -2,0 -5,0 -8,0 -1,0 -1,0 -1,1z"/>
   <path class="fil16" d="M251 162c0,6 1,12 2,19 0,0 3,0 4,0 -2,-7 -3,-11 -2,-20 0,0 -4,1 -4,1z"/>
   <path class="fil16" d="M241 161c12,-1 7,-22 0,-28 2,8 6,22 -1,25 -7,4 -3,3 1,3z"/>
   <path class="fil16" d="M213 131c-2,-5 -14,-32 0,-39 2,-1 12,-4 16,-4 -9,0 -18,0 -21,4 -9,7 -5,28 2,36 0,1 2,1 3,3l0 0z"/>
   <path class="fil16" d="M226 77c1,0 3,0 5,0 0,-7 5,-13 10,-16 -3,0 -6,1 -8,4 -4,3 -8,7 -7,12l0 0z"/>
   <path class="fil6" d="M231 56c7,-6 13,-11 21,-11 2,-4 3,-8 3,-9 -10,1 -18,5 -26,11 1,3 1,6 2,9l0 0z"/>
   <path class="fil6" d="M281 108c-3,8 -6,68 -5,74 1,-1 2,-1 2,-1 -1,-8 1,-41 3,-73 0,0 0,0 0,0z"/>
   <path class="fil35" d="M251 182c3,10 0,36 2,42 0,0 0,0 1,0 -2,-2 0,-36 -1,-42 0,0 -2,0 -2,0z"/>
   <path class="fil35" d="M284 181c-6,7 -11,21 -14,31 0,0 0,0 0,0 4,-3 8,-14 13,-19 -2,-1 -7,8 -8,9 1,-6 8,-17 10,-20 0,-1 -1,-1 -1,-1l0 0z"/>
   <path class="fil35" d="M281 251c0,1 1,4 1,6 1,1 1,1 1,1 6,0 13,-6 14,-10 0,-1 0,-4 -1,-5 0,0 -2,0 -3,-2 -3,3 -9,8 -12,10z"/>
   <path class="fil35" d="M276 293c0,0 0,0 0,0 0,0 0,0 0,0zm8 -1c-3,0 -5,0 -5,0 -1,-1 -6,-9 -6,-10 -3,0 3,11 3,11 0,0 0,0 0,0 -2,1 -12,-8 -12,-5 -1,0 -1,0 0,0 0,2 5,5 7,6 0,1 -11,4 -16,3 3,1 6,1 10,1 0,-1 0,-1 0,-1 1,0 8,0 10,0 0,0 0,0 0,1 7,0 12,-1 12,-1 0,0 0,0 -1,0 0,0 0,0 0,0 -1,-1 -1,-3 -2,-5l0 0z"/>
   <path class="fil35" d="M294 304c-4,0 -8,1 -11,1 2,1 7,2 7,5 0,0 1,-3 1,-3 3,10 0,16 0,26 2,0 2,4 2,5 -2,4 -4,4 -4,4 0,1 3,1 2,2 -4,11 -8,26 -3,37 3,-1 5,-1 8,-2 -5,-5 -6,-18 -4,-24l0 -12c2,-4 4,-7 1,-13 1,-7 3,-17 1,-22 0,-1 0,-2 0,-4l0 0z"/>
   <path class="fil35" d="M254 336c4,-10 15,-16 19,-26 0,-3 -3,-3 -4,-3 -2,5 -10,10 -12,14 0,1 7,-6 2,0 -1,1 -6,11 -6,14 1,11 2,31 -4,44 2,0 7,0 9,0 0,0 -2,-22 -1,-23 0,-1 0,-3 0,-4 1,-4 0,-9 -3,-16l0 0z"/>
   <path class="fil39" d="M270 253c5,2 8,3 11,4 -1,-3 -1,-4 -1,-6 -1,1 -3,1 -5,0 0,2 0,2 0,2 0,0 -2,0 -5,0z"/>
   <path class="fil39" d="M269 252c1,0 4,0 5,0 0,0 0,-1 0,-1 -10,-2 -13,-3 -20,-7 0,0 0,0 0,1 4,4 10,5 15,7l0 0z"/>
   <path class="fil11" d="M266 302c1,-4 2,-4 7,-4 -4,0 -7,0 -7,0 0,0 0,4 0,4z"/>
   <path class="fil40" d="M275 299c-1,5 -4,8 -7,8 1,0 7,0 7,0 0,-3 0,-5 0,-8z"/>
   <path class="fil4 str3" d="M119 114c-4,2 -11,6 -11,6 -12,-4 -34,-21 -33,-18"/>
  </g>
 </g>
</svg>
