<?xml version="1.0" encoding="UTF-8"?>
<!DOCTYPE svg PUBLIC "-//W3C//DTD SVG 1.1//EN" "http://www.w3.org/Graphics/SVG/1.1/DTD/svg11.dtd">
<!-- Creator: CorelDRAW X7 -->
<svg xmlns="http://www.w3.org/2000/svg" xml:space="preserve" width="500px" height="500px" version="1.1" style="shape-rendering:geometricPrecision; text-rendering:geometricPrecision; image-rendering:optimizeQuality; fill-rule:evenodd; clip-rule:evenodd"
viewBox="0 0 596 596"
 xmlns:xlink="http://www.w3.org/1999/xlink">
 <defs>
  <style type="text/css">
   <![CDATA[
    .fil4 {fill:#FEFEFE}
    .fil0 {fill:#7690C9}
    .fil1 {fill:#7690C9}
    .fil3 {fill:#5371B5}
    .fil2 {fill:#5371B5}
    .fil5 {fill:#3F5EA7}
   ]]>
  </style>
 </defs>
 <g id="Слой_x0020_1">
  <metadata id="CorelCorpID_0Corel-Layer"/>
  <g id="_418490470224">
   <rect class="fil0" width="596" height="596"/>
   <g>
    <rect class="fil1" width="596" height="596" rx="68" ry="65"/>
    <path class="fil2" d="M152 308l184 -178c18,-18 48,-18 67,0l17 17c-20,24 -18,60 5,82 8,8 19,14 29,16 -20,25 -19,61 5,84l11 2c-25,-24 -27,-63 -4,-89 -12,-3 -23,-9 -32,-18 -25,-24 -22,-58 -1,-84l-23 -22c-20,-19 -52,-19 -72,0l-197 190c-20,19 -20,50 0,69l20 19 3 0 6 -6 -18 -18c-19,-18 -19,-47 0,-64z"/>
    <path class="fil2" d="M152 308l184 -178c18,-18 48,-18 67,0l17 17c-20,24 -18,60 5,82 9,9 19,14 30,17 -21,24 -20,60 4,83l11 2c-25,-24 -27,-63 -4,-89 -12,-3 -23,-9 -32,-18 -25,-24 -22,-58 -1,-84l-23 -22c-20,-19 -52,-19 -72,0l-197 190c-19,19 -19,51 0,70l20 19 3 -1 6 -6 -18 -18c-19,-17 -19,-47 0,-64z"/>
    <path class="fil2" d="M152 308l184 -178c18,-17 48,-17 67,0l17 17c-20,24 -18,60 5,83 9,8 19,13 30,16 -21,24 -20,60 4,83l11 2c-25,-24 -26,-63 -4,-89 -12,-3 -23,-9 -32,-17 -25,-25 -22,-58 -1,-85l-23 -22c-19,-19 -52,-19 -71,0l-197 191c-20,19 -20,50 0,69l19 19 3 -1 6 -6 -18 -18c-18,-17 -18,-46 0,-64z"/>
    <path class="fil2" d="M152 308l184 -177c19,-18 49,-18 67,0l17 16c-20,25 -18,60 5,83 9,8 19,13 30,16 -21,24 -19,61 4,83l12 3c-26,-25 -27,-64 -5,-90 -11,-3 -22,-8 -32,-17 -25,-24 -22,-58 -1,-85l-23 -21c-19,-19 -52,-19 -71,0l-197 190c-20,19 -20,50 0,69l20 19 3 -1 6 -6 -19 -17c-18,-18 -18,-47 0,-65z"/>
    <path class="fil2" d="M152 308l184 -177c19,-18 49,-18 67,0l17 16c-19,25 -18,60 6,83 8,8 18,13 29,16 -21,25 -19,61 4,84l12 2c-25,-25 -27,-63 -5,-90 -11,-2 -22,-8 -31,-17 -25,-24 -23,-58 -1,-84l-23 -22c-20,-19 -52,-19 -72,0l-197 190c-20,19 -20,50 0,69l20 19 3 -1 6 -5 -19 -18c-18,-18 -18,-47 0,-65z"/>
    <path class="fil2" d="M152 308l184 -177c19,-18 49,-18 67,0l18 16c-20,25 -19,60 5,83 8,8 19,14 29,16 -20,25 -19,61 4,84l12 2c-25,-25 -27,-63 -5,-89 -11,-3 -22,-9 -31,-18 -25,-24 -23,-58 -1,-84l-23 -22c-20,-19 -52,-19 -72,0l-197 190c-20,19 -20,50 0,69l20 19 3 0 6 -6 -19 -18c-18,-18 -18,-47 0,-65z"/>
    <path class="fil2" d="M153 309l184 -178c18,-18 48,-18 67,0l17 17c-20,24 -18,60 5,82 8,8 19,14 30,17 -21,24 -20,60 4,83l11 2c-25,-24 -27,-63 -4,-89 -12,-3 -23,-9 -32,-18 -25,-24 -22,-58 -1,-84l-23 -22c-20,-19 -52,-19 -72,0l-197 190c-19,19 -19,50 0,69l20 20 3 -1 6 -6 -18 -18c-19,-18 -19,-47 0,-64z"/>
    <path class="fil2" d="M153 309l184 -178c18,-18 48,-18 67,0l17 17c-20,24 -18,60 5,82 9,9 19,14 30,17 -21,24 -20,60 4,83l11 2c-25,-24 -26,-63 -4,-89 -12,-3 -23,-9 -32,-18 -25,-24 -22,-58 -1,-84l-23 -22c-20,-19 -52,-19 -72,0l-197 190c-19,19 -19,51 0,70l20 19 3 -1 6 -6 -18 -18c-19,-17 -19,-46 0,-64z"/>
    <path class="fil2" d="M153 309l184 -178c18,-17 49,-17 67,0l17 17c-20,24 -18,60 5,83 9,8 19,13 30,16 -21,24 -19,60 4,83l11 2c-25,-24 -26,-63 -4,-89 -12,-3 -23,-9 -32,-17 -25,-25 -22,-58 -1,-85l-23 -22c-19,-19 -52,-19 -71,0l-197 191c-20,19 -20,50 0,69l19 19 3 -1 6 -6 -18 -17c-18,-18 -18,-47 0,-65z"/>
    <path class="fil2" d="M153 309l184 -177c19,-18 49,-18 67,0l17 16c-20,25 -18,60 6,83 8,8 18,13 29,16 -21,24 -19,61 4,83l12 3c-26,-25 -27,-64 -5,-90 -11,-3 -22,-8 -31,-17 -26,-24 -23,-58 -2,-85l-22 -21c-20,-19 -52,-19 -72,0l-197 190c-20,19 -20,50 0,69l20 19 3 -1 6 -5 -19 -18c-18,-18 -18,-47 0,-65z"/>
    <path class="fil2" d="M153 309l184 -177c19,-18 49,-18 67,0l17 16c-19,25 -18,60 6,83 8,8 18,14 29,16 -21,25 -19,61 4,84l12 2c-25,-25 -27,-63 -5,-90 -11,-2 -22,-8 -31,-17 -25,-24 -23,-58 -1,-84l-23 -22c-20,-19 -52,-19 -72,0l-197 190c-20,19 -20,50 0,69l20 19 3 0 6 -6 -19 -18c-18,-18 -18,-47 0,-65z"/>
    <path class="fil2" d="M154 309l184 -177c18,-18 48,-18 67,0l17 16c-20,25 -18,61 5,83 8,8 19,14 29,16 -20,25 -19,61 5,84l11 2c-25,-25 -27,-63 -4,-89 -12,-3 -23,-9 -32,-18 -25,-24 -23,-58 -1,-84l-23 -22c-20,-19 -52,-19 -72,0l-197 190c-20,19 -20,50 0,69l20 19 3 0 6 -6 -18 -18c-19,-18 -19,-47 0,-65z"/>
    <path class="fil2" d="M154 310l184 -178c18,-18 48,-18 67,0l17 17c-20,24 -18,60 5,82 9,8 19,14 30,17 -21,24 -20,60 4,83l11 2c-25,-24 -27,-63 -4,-89 -12,-3 -23,-9 -32,-18 -25,-24 -22,-58 -1,-84l-23 -22c-20,-19 -52,-19 -72,0l-197 190c-19,19 -19,50 0,69l20 20 3 -1 6 -6 -18 -18c-19,-18 -19,-47 0,-64z"/>
    <path class="fil2" d="M154 310l184 -178c18,-17 48,-17 67,0l17 17c-20,24 -18,60 5,82 9,9 19,14 30,17 -21,24 -20,60 4,83l11 2c-25,-24 -26,-63 -4,-89 -12,-3 -23,-9 -32,-17 -25,-25 -22,-59 -1,-85l-23 -22c-19,-19 -52,-19 -71,0l-197 190c-20,19 -20,51 0,70l19 19 3 -1 6 -6 -18 -18c-19,-17 -19,-46 0,-64z"/>
    <path class="fil2" d="M154 310l184 -178c18,-17 49,-17 67,0l17 17c-20,24 -18,60 5,83 9,8 19,13 30,16 -21,24 -19,60 4,83l11 3c-25,-25 -26,-64 -4,-90 -12,-3 -22,-9 -32,-17 -25,-24 -22,-58 -1,-85l-23 -21c-19,-20 -52,-20 -71,0l-197 190c-20,19 -20,50 0,69l19 19 4 -1 6 -6 -19 -17c-18,-18 -18,-47 0,-65z"/>
    <path class="fil2" d="M154 310l184 -177c19,-18 49,-18 67,0l17 16c-20,25 -18,60 6,83 8,8 18,13 29,16 -21,24 -19,61 4,83l12 3c-26,-25 -27,-64 -5,-90 -11,-3 -22,-8 -31,-17 -25,-24 -23,-58 -2,-84l-22 -22c-20,-19 -52,-19 -72,0l-197 190c-20,19 -20,50 0,69l20 19 3 -1 6 -5 -19 -18c-18,-18 -18,-47 0,-65z"/>
    <path class="fil2" d="M154 310l184 -177c19,-18 49,-18 67,0l18 16c-20,25 -19,60 5,83 8,8 19,14 29,16 -20,25 -19,61 4,84l12 2c-25,-25 -27,-63 -5,-90 -11,-2 -22,-8 -31,-17 -25,-24 -23,-58 -1,-84l-23 -22c-20,-19 -52,-19 -72,0l-197 190c-20,19 -20,50 0,69l20 19 3 0 6 -6 -19 -18c-18,-18 -18,-47 0,-65z"/>
    <path class="fil2" d="M155 310l184 -177c18,-18 48,-18 67,0l17 17c-20,24 -18,60 5,82 8,8 19,14 30,16 -21,25 -20,61 4,84l11 2c-25,-25 -27,-63 -4,-89 -12,-3 -23,-9 -32,-18 -25,-24 -22,-58 -1,-84l-23 -22c-20,-19 -52,-19 -72,0l-197 190c-20,19 -20,50 0,69l20 19 3 0 6 -6 -18 -18c-19,-18 -19,-47 0,-65z"/>
    <path class="fil2" d="M155 311l184 -178c18,-18 48,-18 67,0l17 17c-20,24 -18,60 5,82 9,8 19,14 30,17 -21,24 -20,60 4,83l11 2c-25,-24 -26,-63 -4,-89 -12,-3 -23,-9 -32,-18 -25,-24 -22,-58 -1,-84l-23 -22c-20,-19 -52,-19 -72,0l-197 190c-19,19 -19,50 0,69l20 20 3 -1 6 -6 -18 -18c-19,-18 -19,-47 0,-64z"/>
    <path class="fil2" d="M155 311l184 -178c18,-17 49,-17 67,0l17 17c-20,24 -18,60 5,82 9,9 19,14 30,17 -21,24 -20,60 4,83l11 2c-25,-24 -26,-63 -4,-89 -12,-3 -23,-9 -32,-17 -25,-25 -22,-59 -1,-85l-23 -22c-19,-19 -52,-19 -71,0l-197 190c-20,19 -20,51 0,70l19 19 3 -1 6 -6 -18 -18c-18,-17 -18,-46 0,-64z"/>
    <path class="fil2" d="M155 311l184 -178c19,-17 49,-17 67,0l17 17c-20,25 -18,60 6,83 8,8 18,13 29,16 -21,24 -19,60 4,83l12 3c-26,-25 -27,-64 -5,-90 -11,-3 -22,-9 -32,-17 -25,-24 -22,-58 -1,-85l-22 -21c-20,-19 -52,-19 -72,0l-197 190c-20,19 -20,50 0,69l20 19 3 -1 6 -6 -19 -17c-18,-18 -18,-47 0,-65z"/>
    <path class="fil2" d="M155 311l184 -177c19,-18 49,-18 67,0l17 16c-19,25 -18,60 6,83 8,8 18,13 29,16 -21,25 -19,61 4,84l12 2c-25,-25 -27,-63 -5,-90 -11,-3 -22,-8 -31,-17 -25,-24 -23,-58 -1,-84l-23 -22c-20,-19 -52,-19 -72,0l-197 190c-20,19 -20,50 0,69l20 19 3 -1 6 -5 -19 -18c-18,-18 -18,-47 0,-65z"/>
    <path class="fil2" d="M156 311l183 -177c19,-18 49,-18 67,0l18 16c-20,25 -19,60 5,83 8,8 19,14 29,16 -20,25 -19,61 5,84l11 2c-25,-25 -27,-63 -5,-89 -11,-3 -22,-9 -31,-18 -25,-24 -23,-58 -1,-84l-23 -22c-20,-19 -52,-19 -72,0l-197 190c-20,19 -20,50 0,69l20 19 3 0 6 -6 -18 -18c-19,-18 -19,-47 0,-65z"/>
    <path class="fil2" d="M156 311l184 -177c18,-18 48,-18 67,0l17 17c-20,24 -18,60 5,82 9,8 19,14 30,16 -21,25 -20,61 4,84l11 2c-25,-24 -27,-63 -4,-89 -12,-3 -23,-9 -32,-18 -25,-24 -22,-58 -1,-84l-23 -22c-20,-19 -52,-19 -72,0l-197 190c-19,19 -19,50 0,69l20 19 3 0 6 -6 -18 -18c-19,-18 -19,-47 0,-65z"/>
    <path class="fil2" d="M156 312l184 -178c18,-18 48,-18 67,0l17 17c-20,24 -18,60 5,82 9,8 19,14 30,17 -21,24 -20,60 4,83l11 2c-25,-24 -26,-63 -4,-89 -12,-3 -23,-9 -32,-18 -25,-24 -22,-58 -1,-84l-23 -22c-19,-19 -52,-19 -71,0l-198 190c-19,19 -19,50 0,70l20 19 3 -1 6 -6 -18 -18c-19,-17 -19,-47 0,-64z"/>
    <path class="fil2" d="M156 312l184 -178c18,-17 49,-17 67,0l17 17c-20,24 -18,60 5,82 9,9 19,14 30,17 -21,24 -19,60 4,83l11 2c-25,-24 -26,-63 -4,-89 -12,-3 -23,-9 -32,-17 -25,-25 -22,-59 -1,-85l-23 -22c-19,-19 -52,-19 -71,0l-197 190c-20,20 -20,51 0,70l19 19 3 -1 7 -6 -19 -18c-18,-17 -18,-46 0,-64z"/>
    <path class="fil2" d="M156 312l184 -177c19,-18 49,-18 67,0l17 16c-20,25 -18,60 6,83 8,8 18,13 29,16 -21,24 -19,60 4,83l12 3c-26,-25 -27,-64 -5,-90 -11,-3 -22,-8 -31,-17 -25,-24 -23,-58 -2,-85l-22 -21c-20,-19 -52,-19 -72,0l-197 190c-20,19 -20,50 0,69l20 19 3 -1 6 -6 -19 -17c-18,-18 -18,-47 0,-65z"/>
    <path class="fil2" d="M156 312l184 -177c19,-18 49,-18 67,0l18 16c-20,25 -19,60 5,83 8,8 18,13 29,16 -20,25 -19,61 4,84l12 2c-25,-25 -27,-63 -5,-90 -11,-3 -22,-8 -31,-17 -25,-24 -23,-58 -1,-84l-23 -22c-20,-19 -52,-19 -72,0l-197 190c-20,19 -20,50 0,69l20 19 3 -1 6 -5 -19 -18c-18,-18 -18,-47 0,-65z"/>
    <path class="fil2" d="M157 312l184 -177c18,-18 48,-18 67,0l17 16c-20,25 -18,60 5,83 8,8 19,14 29,16 -20,25 -19,61 5,84l11 2c-25,-25 -27,-63 -4,-89 -12,-3 -23,-9 -32,-18 -25,-24 -23,-58 -1,-84l-23 -22c-20,-19 -52,-19 -72,0l-197 190c-20,19 -20,50 0,69l20 19 3 0 6 -6 -18 -18c-19,-18 -19,-47 0,-65z"/>
    <path class="fil2" d="M157 313l184 -178c18,-18 48,-18 67,0l17 17c-20,24 -18,60 5,82 9,8 19,14 30,16 -21,25 -20,61 4,84l11 2c-25,-24 -27,-63 -4,-89 -12,-3 -23,-9 -32,-18 -25,-24 -22,-58 -1,-84l-23 -22c-20,-19 -52,-19 -72,0l-197 190c-19,19 -19,50 0,69l20 19 3 0 6 -6 -18 -18c-19,-18 -19,-47 0,-64z"/>
    <path class="fil2" d="M157 313l184 -178c18,-18 48,-18 67,0l17 17c-20,24 -18,60 5,82 9,9 19,14 30,17 -21,24 -20,60 4,83l11 2c-25,-24 -26,-63 -4,-89 -12,-3 -23,-9 -32,-18 -25,-24 -22,-58 -1,-84l-23 -22c-19,-19 -52,-19 -71,0l-197 190c-20,19 -20,51 0,70l19 19 3 -1 6 -6 -18 -18c-18,-17 -18,-47 0,-64z"/>
    <path class="fil2" d="M157 313l184 -178c19,-17 49,-17 67,0l17 17c-20,24 -18,60 5,83 9,8 19,13 30,16 -21,24 -19,60 4,83l11 2c-25,-24 -26,-63 -4,-89 -12,-3 -22,-9 -32,-17 -25,-25 -22,-59 -1,-85l-23 -22c-19,-19 -52,-19 -71,0l-197 191c-20,19 -20,50 0,69l20 19 3 -1 6 -6 -19 -18c-18,-17 -18,-46 0,-64z"/>
    <path class="fil2" d="M157 313l184 -177c19,-18 49,-18 67,0l17 16c-19,25 -18,60 6,83 8,8 18,13 29,16 -21,24 -19,61 4,83l12 3c-26,-25 -27,-64 -5,-90 -11,-3 -22,-8 -31,-17 -25,-24 -23,-58 -1,-85l-23 -21c-20,-19 -52,-19 -72,0l-197 190c-20,19 -20,50 0,69l20 19 3 -1 6 -6 -19 -17c-18,-18 -18,-47 0,-65z"/>
    <path class="fil2" d="M157 313l184 -177c19,-18 49,-18 67,0l18 16c-20,25 -19,60 5,83 8,8 19,13 29,16 -20,25 -19,61 4,84l12 2c-25,-25 -27,-63 -5,-90 -11,-2 -22,-8 -31,-17 -25,-24 -23,-58 -1,-84l-23 -22c-20,-19 -52,-19 -72,0l-197 190c-20,19 -20,50 0,69l20 19 3 -1 6 -5 -19 -18c-18,-18 -18,-47 0,-65z"/>
    <path class="fil2" d="M158 313l184 -177c18,-18 48,-18 67,0l17 16c-20,25 -18,60 5,83 8,8 19,14 30,16 -21,25 -20,61 4,84l11 2c-25,-25 -27,-63 -4,-89 -12,-3 -23,-9 -32,-18 -25,-24 -22,-58 -1,-84l-23 -22c-20,-19 -52,-19 -72,0l-197 190c-19,19 -19,50 0,69l20 19 3 0 6 -6 -18 -18c-19,-18 -19,-47 0,-65z"/>
    <path class="fil2" d="M158 314l184 -178c18,-18 48,-18 67,0l17 17c-20,24 -18,60 5,82 9,8 19,14 30,16 -21,25 -20,61 4,84l11 2c-25,-24 -26,-63 -4,-89 -12,-3 -23,-9 -32,-18 -25,-24 -22,-58 -1,-84l-23 -22c-20,-19 -52,-19 -72,0l-197 190c-19,19 -19,50 0,69l20 20 3 -1 6 -6 -18 -18c-19,-18 -19,-47 0,-64z"/>
    <path class="fil2" d="M158 314l184 -178c18,-18 49,-18 67,0l17 17c-20,24 -18,60 5,82 9,9 19,14 30,17 -21,24 -20,60 4,83l11 2c-25,-24 -26,-63 -4,-89 -12,-3 -23,-9 -32,-18 -25,-24 -22,-58 -1,-84l-23 -22c-19,-19 -52,-19 -71,0l-197 190c-20,19 -20,51 0,70l19 19 3 -1 6 -6 -18 -18c-18,-17 -18,-47 0,-64z"/>
    <path class="fil2" d="M158 314l184 -178c19,-17 49,-17 67,0l17 17c-20,24 -18,60 6,83 8,8 18,13 29,16 -21,24 -19,60 4,83l12 2c-26,-24 -27,-63 -5,-89 -11,-3 -22,-9 -31,-17 -26,-25 -23,-58 -2,-85l-22 -22c-20,-19 -52,-19 -72,0l-197 191c-20,19 -20,50 0,69l20 19 3 -1 6 -6 -19 -17c-18,-18 -18,-47 0,-65z"/>
    <path class="fil2" d="M158 314l184 -177c19,-18 49,-18 67,0l17 16c-19,25 -18,60 6,83 8,8 18,13 29,16 -21,24 -19,61 4,83l12 3c-25,-25 -27,-64 -5,-90 -11,-3 -22,-8 -31,-17 -25,-24 -23,-58 -1,-85l-23 -21c-20,-19 -52,-19 -72,0l-197 190c-20,19 -20,50 0,69l20 19 3 -1 6 -5 -19 -18c-18,-18 -18,-47 0,-65z"/>
    <path class="fil2" d="M159 314l184 -177c18,-18 48,-18 66,0l18 16c-20,25 -18,60 5,83 8,8 19,13 29,16 -20,25 -19,61 5,84l11 2c-25,-25 -27,-63 -4,-90 -12,-2 -23,-8 -32,-17 -25,-24 -23,-58 -1,-84l-23 -22c-20,-19 -52,-19 -72,0l-197 190c-20,19 -20,50 0,69l20 19 3 0 6 -6 -18 -18c-19,-18 -19,-47 0,-65z"/>
    <path class="fil2" d="M159 314l184 -177c18,-18 48,-18 67,0l17 16c-20,25 -18,60 5,83 9,8 19,14 30,16 -21,25 -20,61 4,84l11 2c-25,-25 -27,-63 -4,-89 -12,-3 -23,-9 -32,-18 -25,-24 -22,-58 -1,-84l-23 -22c-20,-19 -52,-19 -72,0l-197 190c-19,19 -19,50 0,69l20 19 3 0 6 -6 -18 -18c-19,-18 -19,-47 0,-65z"/>
    <path class="fil2" d="M159 315l184 -178c18,-18 48,-18 67,0l17 17c-20,24 -18,60 5,82 9,8 19,14 30,17 -21,24 -20,60 4,83l11 2c-25,-24 -26,-63 -4,-89 -12,-3 -23,-9 -32,-18 -25,-24 -22,-58 -1,-84l-23 -22c-19,-19 -52,-19 -71,0l-198 190c-19,19 -19,50 0,69l20 20 3 -1 6 -6 -18 -18c-19,-18 -19,-47 0,-64z"/>
    <path class="fil2" d="M159 315l184 -178c18,-18 49,-18 67,0l17 17c-20,24 -18,60 5,82 9,9 19,14 30,17 -21,24 -19,60 4,83l11 2c-25,-24 -26,-63 -4,-89 -12,-3 -23,-9 -32,-18 -25,-24 -22,-58 -1,-84l-23 -22c-19,-19 -52,-19 -71,0l-197 190c-20,19 -20,51 0,70l19 19 4 -1 6 -6 -19 -18c-18,-17 -18,-46 0,-64z"/>
    <path class="fil2" d="M159 315l184 -178c19,-17 49,-17 67,0l17 17c-20,24 -18,60 6,83 8,8 18,13 29,16 -21,24 -19,60 4,83l12 2c-26,-24 -27,-63 -5,-89 -11,-3 -22,-9 -31,-17 -25,-24 -23,-58 -2,-85l-22 -22c-20,-19 -52,-19 -72,0l-197 191c-20,19 -20,50 0,69l20 19 3 -1 6 -6 -19 -17c-18,-18 -18,-47 0,-65z"/>
    <path class="fil2" d="M159 315l184 -177c19,-18 49,-18 67,0l18 16c-20,25 -19,60 5,83 8,8 18,13 29,16 -20,24 -19,61 4,83l12 3c-25,-25 -27,-64 -5,-90 -11,-3 -22,-8 -31,-17 -25,-24 -23,-58 -1,-85l-23 -21c-20,-19 -52,-19 -72,0l-197 190c-20,19 -20,50 0,69l20 19 3 -1 6 -5 -19 -18c-18,-18 -18,-47 0,-65z"/>
    <path class="fil2" d="M160 315l184 -177c18,-18 48,-18 67,0l17 16c-20,25 -18,60 5,83 8,8 19,14 29,16 -20,25 -19,61 5,84l11 2c-25,-25 -27,-63 -4,-90 -12,-2 -23,-8 -32,-17 -25,-24 -22,-58 -1,-84l-23 -22c-20,-19 -52,-19 -72,0l-197 190c-20,19 -20,50 0,69l20 19 3 0 6 -6 -18 -18c-19,-18 -19,-47 0,-65z"/>
    <path class="fil2" d="M160 315l184 -177c18,-18 48,-18 67,0l17 16c-20,25 -18,61 5,83 9,8 19,14 30,16 -21,25 -20,61 4,84l11 2c-25,-25 -26,-63 -4,-89 -12,-3 -23,-9 -32,-18 -25,-24 -22,-58 -1,-84l-23 -22c-20,-19 -52,-19 -72,0l-197 190c-19,19 -19,50 0,69l20 19 3 0 6 -6 -18 -18c-19,-18 -19,-47 0,-65z"/>
    <path class="fil2" d="M160 316l184 -178c18,-18 49,-18 67,0l17 17c-20,24 -18,60 5,82 9,8 19,14 30,17 -21,24 -20,60 4,83l11 2c-25,-24 -26,-63 -4,-89 -12,-3 -23,-9 -32,-18 -25,-24 -22,-58 -1,-84l-23 -22c-19,-19 -52,-19 -71,0l-197 190c-20,19 -20,50 0,69l19 20 3 -1 6 -6 -18 -18c-18,-18 -18,-47 0,-64z"/>
    <path class="fil2" d="M160 316l184 -178c19,-17 49,-17 67,0l17 17c-20,24 -18,60 5,82 9,9 19,14 30,17 -21,24 -19,60 4,83l12 2c-26,-24 -27,-63 -5,-89 -11,-3 -22,-9 -32,-17 -25,-25 -22,-59 -1,-85l-22 -22c-20,-19 -52,-19 -72,0l-197 190c-20,19 -20,51 0,70l20 19 3 -1 6 -6 -19 -18c-18,-17 -18,-46 0,-64z"/>
    <path class="fil2" d="M160 316l184 -178c19,-17 49,-17 67,0l17 17c-19,25 -18,60 6,83 8,8 18,13 29,16 -21,24 -19,60 4,83l12 3c-25,-25 -27,-64 -5,-90 -11,-3 -22,-9 -31,-17 -25,-24 -23,-58 -1,-85l-23 -21c-20,-19 -52,-19 -72,0l-197 190c-20,19 -20,50 0,69l20 19 3 -1 6 -6 -19 -17c-18,-18 -18,-47 0,-65z"/>
    <path class="fil2" d="M160 316l184 -177c19,-18 49,-18 67,0l18 16c-20,25 -19,60 5,83 8,8 19,13 29,16 -20,25 -19,61 4,84l12 2c-25,-25 -27,-63 -5,-90 -11,-3 -22,-8 -31,-17 -25,-24 -23,-58 -1,-84l-23 -22c-20,-19 -52,-19 -72,0l-197 190c-20,19 -20,50 0,69l20 19 3 -1 6 -5 -19 -18c-18,-18 -18,-47 0,-65z"/>
    <path class="fil2" d="M161 316l184 -177c18,-18 48,-18 67,0l17 16c-20,25 -18,60 5,83 9,8 19,14 30,16 -21,25 -20,61 4,84l11 2c-25,-25 -27,-63 -4,-90 -12,-2 -23,-8 -32,-17 -25,-24 -22,-58 -1,-84l-23 -22c-20,-19 -52,-19 -72,0l-197 190c-19,19 -19,50 0,69l20 19 3 0 6 -6 -18 -18c-19,-18 -19,-47 0,-65z"/>
    <path class="fil2" d="M161 316l184 -177c18,-18 48,-18 67,0l17 17c-20,24 -18,60 5,82 9,8 19,14 30,16 -21,25 -20,61 4,84l11 2c-25,-24 -26,-63 -4,-89 -12,-3 -23,-9 -32,-18 -25,-24 -22,-58 -1,-84l-23 -22c-20,-19 -52,-19 -72,0l-197 190c-19,19 -19,50 0,69l20 19 3 0 6 -6 -18 -18c-19,-18 -19,-47 0,-65z"/>
    <path class="fil2" d="M161 317l184 -178c18,-18 49,-18 67,0l17 17c-20,24 -18,60 5,82 9,8 19,14 30,17 -21,24 -19,60 4,83l11 2c-25,-24 -26,-63 -4,-89 -12,-3 -23,-9 -32,-18 -25,-24 -22,-58 -1,-84l-23 -22c-19,-19 -52,-19 -71,0l-197 190c-20,19 -20,50 0,70l19 19 3 -1 7 -6 -19 -18c-18,-18 -18,-47 0,-64z"/>
    <path class="fil2" d="M161 317l184 -178c19,-17 49,-17 67,0l17 17c-20,24 -18,60 6,82 8,9 18,14 29,17 -21,24 -19,60 4,83l12 2c-26,-24 -27,-63 -5,-89 -11,-3 -22,-9 -31,-17 -25,-25 -23,-59 -2,-85l-22 -22c-20,-19 -52,-19 -72,0l-197 190c-20,20 -20,51 0,70l20 19 3 -1 6 -6 -19 -18c-18,-17 -18,-46 0,-64z"/>
    <path class="fil2" d="M161 317l184 -178c19,-17 49,-17 67,0l18 17c-20,25 -19,60 5,83 8,8 18,13 29,16 -20,24 -19,60 4,83l12 3c-25,-25 -27,-64 -5,-90 -11,-3 -22,-9 -31,-17 -25,-24 -23,-58 -1,-85l-23 -21c-20,-19 -52,-19 -72,0l-197 190c-20,19 -20,50 0,69l20 19 3 -1 6 -6 -19 -17c-18,-18 -18,-47 0,-65z"/>
    <path class="fil2" d="M162 317l184 -177c18,-18 48,-18 67,0l17 16c-20,25 -18,60 5,83 8,8 19,13 29,16 -20,25 -19,61 5,84l11 2c-25,-25 -27,-63 -4,-90 -12,-3 -23,-8 -32,-17 -25,-24 -23,-58 -1,-84l-23 -22c-20,-19 -52,-19 -72,0l-197 190c-20,19 -20,50 0,69l20 19 3 -1 6 -5 -18 -18c-19,-18 -19,-47 0,-65z"/>
    <path class="fil2" d="M162 317l184 -177c18,-18 48,-18 67,0l17 16c-20,25 -18,60 5,83 9,8 19,14 30,16 -21,25 -20,61 4,84l11 2c-25,-25 -27,-63 -4,-89 -12,-3 -23,-9 -32,-18 -25,-24 -22,-58 -1,-84l-23 -22c-20,-19 -52,-19 -72,0l-197 190c-19,19 -19,50 0,69l20 19 3 0 6 -6 -18 -18c-19,-18 -19,-47 0,-65z"/>
    <path class="fil2" d="M162 318l184 -178c18,-18 48,-18 67,0l17 17c-20,24 -18,60 5,82 9,8 19,14 30,16 -21,25 -20,61 4,84l11 2c-25,-24 -26,-63 -4,-89 -12,-3 -23,-9 -32,-18 -25,-24 -22,-58 -1,-84l-23 -22c-19,-19 -52,-19 -71,0l-197 190c-20,19 -20,50 0,69l19 19 3 0 6 -6 -18 -18c-19,-18 -19,-47 0,-64z"/>
    <path class="fil2" d="M162 318l184 -178c19,-18 49,-18 67,0l17 17c-20,24 -18,60 5,82 9,8 19,14 30,17 -21,24 -19,60 4,83l11 2c-25,-24 -26,-63 -4,-89 -12,-3 -22,-9 -32,-18 -25,-24 -22,-58 -1,-84l-23 -22c-19,-19 -52,-19 -71,0l-197 190c-20,19 -20,51 0,70l19 19 4 -1 6 -6 -19 -18c-18,-17 -18,-47 0,-64z"/>
    <path class="fil2" d="M162 318l184 -178c19,-17 49,-17 67,0l17 17c-19,24 -18,60 6,82 8,9 18,14 29,17 -21,24 -19,60 4,83l12 2c-26,-24 -27,-63 -5,-89 -11,-3 -22,-9 -31,-17 -25,-25 -23,-59 -2,-85l-22 -22c-20,-19 -52,-19 -72,0l-197 191c-20,19 -20,50 0,69l20 19 3 -1 6 -6 -19 -18c-18,-17 -18,-46 0,-64z"/>
    <path class="fil2" d="M162 318l184 -177c19,-18 49,-18 67,0l18 16c-20,25 -19,60 5,83 8,8 19,13 29,16 -20,24 -19,60 4,83l12 3c-25,-25 -27,-64 -5,-90 -11,-3 -22,-8 -31,-17 -25,-24 -23,-58 -1,-85l-23 -21c-20,-19 -52,-19 -72,0l-197 190c-20,19 -20,50 0,69l20 19 3 -1 6 -6 -19 -17c-18,-18 -18,-47 0,-65z"/>
    <path class="fil2" d="M163 318l184 -177c18,-18 48,-18 67,0l17 16c-20,25 -18,60 5,83 8,8 19,13 30,16 -21,25 -20,61 4,84l11 2c-25,-25 -27,-63 -4,-90 -12,-2 -23,-8 -32,-17 -25,-24 -22,-58 -1,-84l-23 -22c-20,-19 -52,-19 -72,0l-197 190c-19,19 -19,50 0,69l20 19 3 -1 6 -5 -18 -18c-19,-18 -19,-47 0,-65z"/>
    <path class="fil2" d="M163 318l184 -177c18,-18 48,-18 67,0l17 16c-20,25 -18,60 5,83 9,8 19,14 30,16 -21,25 -20,61 4,84l11 2c-25,-25 -26,-63 -4,-89 -12,-3 -23,-9 -32,-18 -25,-24 -22,-58 -1,-84l-23 -22c-20,-19 -52,-19 -72,0l-197 190c-19,19 -19,50 0,69l20 19 3 0 6 -6 -18 -18c-19,-18 -19,-47 0,-65z"/>
    <path class="fil2" d="M163 319l184 -178c18,-18 49,-18 67,0l17 17c-20,24 -18,60 5,82 9,8 19,14 30,16 -21,25 -20,61 4,84l11 2c-25,-24 -26,-63 -4,-89 -12,-3 -23,-9 -32,-18 -25,-24 -22,-58 -1,-84l-23 -22c-19,-19 -52,-19 -71,0l-197 190c-20,19 -20,50 0,69l19 19 3 0 6 -6 -18 -18c-18,-18 -18,-47 0,-64z"/>
    <path class="fil2" d="M163 319l184 -178c19,-18 49,-18 67,0l17 17c-20,24 -18,60 6,82 8,9 18,14 29,17 -21,24 -19,60 4,83l12 2c-26,-24 -27,-63 -5,-89 -11,-3 -22,-9 -31,-18 -26,-24 -23,-58 -2,-84l-22 -22c-20,-19 -52,-19 -72,0l-197 190c-20,19 -20,51 0,70l20 19 3 -1 6 -6 -19 -18c-18,-17 -18,-47 0,-64z"/>
    <path class="fil2" d="M163 319l184 -178c19,-17 49,-17 67,0l17 17c-19,24 -18,60 6,83 8,8 18,13 29,16 -21,24 -19,60 4,83l12 2c-25,-24 -27,-63 -5,-89 -11,-3 -22,-9 -31,-17 -25,-25 -23,-58 -1,-85l-23 -22c-20,-19 -52,-19 -72,0l-197 191c-20,19 -20,50 0,69l20 19 3 -1 6 -6 -19 -18c-18,-17 -18,-46 0,-64z"/>
    <path class="fil2" d="M164 319l184 -177c18,-18 48,-18 66,0l18 16c-20,25 -19,60 5,83 8,8 19,13 29,16 -20,24 -19,61 5,83l11 3c-25,-25 -27,-64 -5,-90 -11,-3 -22,-8 -31,-17 -25,-24 -23,-58 -1,-85l-23 -21c-20,-19 -52,-19 -72,0l-197 190c-20,19 -20,50 0,69l20 19 3 -1 6 -6 -18 -17c-19,-18 -19,-47 0,-65z"/>
    <path class="fil2" d="M164 319l184 -177c18,-18 48,-18 67,0l17 16c-20,25 -18,60 5,83 9,8 19,13 30,16 -21,25 -20,61 4,84l11 2c-25,-25 -27,-63 -4,-90 -12,-2 -23,-8 -32,-17 -25,-24 -22,-58 -1,-84l-23 -22c-20,-19 -52,-19 -72,0l-197 190c-19,19 -19,50 0,69l20 19 3 -1 6 -5 -18 -18c-19,-18 -19,-47 0,-65z"/>
    <path class="fil2" d="M164 319l184 -177c18,-18 48,-18 67,0l17 16c-20,25 -18,60 5,83 9,8 19,14 30,16 -21,25 -20,61 4,84l11 2c-25,-25 -26,-63 -4,-89 -12,-3 -23,-9 -32,-18 -25,-24 -22,-58 -1,-84l-23 -22c-19,-19 -52,-19 -71,0l-198 190c-19,19 -19,50 0,69l20 19 3 0 6 -6 -18 -18c-19,-18 -19,-47 0,-65z"/>
    <path class="fil2" d="M164 320l184 -178c18,-18 49,-18 67,0l17 17c-20,24 -18,60 5,82 9,8 19,14 30,17 -21,24 -19,60 4,83l11 2c-25,-24 -26,-63 -4,-89 -12,-3 -23,-9 -32,-18 -25,-24 -22,-58 -1,-84l-23 -22c-19,-19 -52,-19 -71,0l-197 190c-20,19 -20,50 0,69l19 20 4 -1 6 -6 -19 -18c-18,-18 -18,-47 0,-64z"/>
    <path class="fil2" d="M164 320l184 -178c19,-18 49,-18 67,0l17 17c-20,24 -18,60 6,82 8,9 18,14 29,17 -21,24 -19,60 4,83l12 2c-26,-24 -27,-63 -5,-89 -11,-3 -22,-9 -31,-18 -25,-24 -23,-58 -2,-84l-22 -22c-20,-19 -52,-19 -72,0l-197 190c-20,19 -20,51 0,70l20 19 3 -1 6 -6 -19 -18c-18,-17 -18,-46 0,-64z"/>
    <path class="fil2" d="M164 320l184 -178c19,-17 49,-17 67,0l18 17c-20,24 -19,60 5,83 8,8 18,13 29,16 -20,24 -19,60 4,83l12 2c-25,-24 -27,-63 -5,-89 -11,-3 -22,-9 -31,-17 -25,-25 -23,-58 -1,-85l-23 -22c-20,-19 -52,-19 -72,0l-197 191c-20,19 -20,50 0,69l20 19 3 -1 6 -6 -19 -17c-18,-18 -18,-47 0,-65z"/>
    <path class="fil2" d="M165 320l184 -177c18,-18 48,-18 67,0l17 16c-20,25 -18,60 5,83 8,8 19,13 29,16 -20,24 -19,61 5,83l11 3c-25,-25 -27,-64 -4,-90 -12,-3 -23,-8 -32,-17 -25,-24 -22,-58 -1,-85l-23 -21c-20,-19 -52,-19 -72,0l-197 190c-20,19 -20,50 0,69l20 19 3 -1 6 -5 -18 -18c-19,-18 -19,-47 0,-65z"/>
    <path class="fil2" d="M165 320l184 -177c18,-18 48,-18 67,0l17 16c-20,25 -18,60 5,83 9,8 19,13 30,16 -21,25 -20,61 4,84l11 2c-25,-25 -27,-63 -4,-90 -12,-2 -23,-8 -32,-17 -25,-24 -22,-58 -1,-84l-23 -22c-20,-19 -52,-19 -72,0l-197 190c-19,19 -19,50 0,69l20 19 3 0 6 -6 -18 -18c-19,-18 -19,-47 0,-65z"/>
    <path class="fil2" d="M165 320l184 -177c18,-18 48,-18 67,0l17 16c-20,25 -18,61 5,83 9,8 19,14 30,16 -21,25 -20,61 4,84l11 2c-25,-25 -26,-63 -4,-89 -12,-3 -23,-9 -32,-18 -25,-24 -22,-58 -1,-84l-23 -22c-19,-19 -52,-19 -71,0l-197 190c-20,19 -20,50 0,69l19 19 3 0 6 -6 -18 -18c-18,-18 -18,-47 0,-65z"/>
    <path class="fil3" d="M433 140l163 156 0 235c0,36 -31,65 -68,65l-331 0 -90 -86c15,11 37,10 50,-3l59 -57 3 2 27 26c19,19 52,19 71,0l153 -147c-25,-25 -27,-63 -5,-89 -11,-3 -22,-9 -31,-18 -25,-24 -23,-58 -1,-84zm31 200c0,0 -8,17 -8,22 0,5 4,8 8,8 5,0 8,-3 8,-8 0,-5 -8,-22 -8,-22zm13 68c0,0 -4,10 -4,13 0,3 2,5 4,5 3,0 5,-2 5,-5 0,-3 -5,-13 -5,-13zm-26 -31c0,0 -6,12 -6,15 0,3 3,6 6,6 4,0 6,-3 6,-6 0,-3 -6,-15 -6,-15z"/>
    <path class="fil4" d="M434 224c9,9 20,15 31,18 -22,26 -20,64 5,89l-153 147c-19,19 -52,19 -71,0l-27 -26 -58 -56 -20 -19c-20,-19 -20,-50 0,-69l197 -190c20,-19 52,-19 72,0l23 22c-22,26 -24,60 1,84zm-9 5c8,8 18,14 29,16 -20,25 -19,61 4,84l-142 137c-18,18 -49,18 -67,0l-25 -24 -54 -52 -19 -18c-18,-18 -18,-47 0,-65l184 -177c19,-18 49,-18 67,0l18 16c-20,25 -19,60 5,83z"/>
    <path class="fil4" d="M170 390l54 52 -67 65c-15,14 -39,14 -54,0 -15,-15 -15,-38 0,-53l67 -64z"/>
    <g>
     <path class="fil5" d="M464 340c0,0 -8,17 -8,22 0,5 4,9 8,9 5,0 8,-4 8,-9 0,-5 -8,-22 -8,-22z"/>
     <path class="fil5" d="M477 408c0,0 -4,10 -4,13 0,3 2,5 4,5 3,0 5,-2 5,-5 0,-3 -5,-13 -5,-13z"/>
     <path class="fil5" d="M451 377c0,0 -6,12 -6,15 0,4 3,6 6,6 4,0 7,-2 7,-6 0,-3 -7,-15 -7,-15z"/>
    </g>
    <g>
     <path class="fil5" d="M464 340c0,0 -7,17 -7,22 0,5 3,9 8,9 4,0 8,-4 8,-9 0,-5 -9,-22 -9,-22z"/>
     <path class="fil5" d="M478 409c0,0 -5,9 -5,12 0,3 2,5 5,5 2,0 4,-2 4,-5 0,-3 -4,-12 -4,-12z"/>
     <path class="fil5" d="M451 377c0,0 -6,12 -6,15 0,4 3,7 6,7 4,0 7,-3 7,-7 0,-3 -7,-15 -7,-15z"/>
    </g>
    <g>
     <path class="fil5" d="M465 341c0,0 -8,16 -8,21 0,5 3,9 8,9 4,0 8,-4 8,-9 0,-5 -8,-21 -8,-21z"/>
     <path class="fil5" d="M478 409c0,0 -5,10 -5,12 0,3 2,6 5,6 2,0 5,-3 5,-6 0,-2 -5,-12 -5,-12z"/>
     <path class="fil5" d="M451 377c0,0 -6,12 -6,16 0,3 3,6 7,6 3,0 6,-3 6,-6 0,-4 -7,-16 -7,-16z"/>
    </g>
    <g>
     <path class="fil5" d="M465 341c0,0 -8,17 -8,21 0,5 4,9 8,9 4,0 8,-4 8,-9 0,-4 -8,-21 -8,-21z"/>
     <path class="fil5" d="M478 409c0,0 -5,10 -5,13 0,2 2,5 5,5 3,0 5,-3 5,-5 0,-3 -5,-13 -5,-13z"/>
     <path class="fil5" d="M452 377c0,0 -7,12 -7,16 0,3 3,6 7,6 3,0 6,-3 6,-6 0,-4 -6,-16 -6,-16z"/>
    </g>
    <g>
     <path class="fil5" d="M465 341c0,0 -8,17 -8,22 0,4 4,8 8,8 5,0 8,-4 8,-8 0,-5 -8,-22 -8,-22z"/>
     <path class="fil5" d="M478 409c0,0 -5,10 -5,13 0,3 3,5 5,5 3,0 5,-2 5,-5 0,-3 -5,-13 -5,-13z"/>
     <path class="fil5" d="M452 378c0,0 -6,12 -6,15 0,3 2,6 6,6 4,0 6,-3 6,-6 0,-3 -6,-15 -6,-15z"/>
    </g>
    <g>
     <path class="fil5" d="M465 341c0,0 -8,17 -8,22 0,5 4,8 8,8 5,0 8,-3 8,-8 0,-5 -8,-22 -8,-22z"/>
     <path class="fil5" d="M478 409c0,0 -4,10 -4,13 0,3 2,5 4,5 3,0 5,-2 5,-5 0,-3 -5,-13 -5,-13z"/>
     <path class="fil5" d="M452 378c0,0 -6,12 -6,15 0,3 3,6 6,6 4,0 7,-3 7,-6 0,-3 -7,-15 -7,-15z"/>
    </g>
    <g>
     <path class="fil5" d="M465 341c0,0 -8,17 -8,22 0,5 4,9 8,9 5,0 9,-4 9,-9 0,-5 -9,-22 -9,-22z"/>
     <path class="fil5" d="M478 409c0,0 -4,10 -4,13 0,3 2,5 5,5 2,0 4,-2 4,-5 0,-3 -5,-13 -5,-13z"/>
     <path class="fil5" d="M452 378c0,0 -6,12 -6,15 0,4 3,6 6,6 4,0 7,-2 7,-6 0,-3 -7,-15 -7,-15z"/>
    </g>
    <g>
     <path class="fil5" d="M465 341c0,0 -7,17 -7,22 0,5 3,9 8,9 4,0 8,-4 8,-9 0,-5 -9,-22 -9,-22z"/>
     <path class="fil5" d="M479 410c0,0 -5,9 -5,12 0,3 2,5 5,5 2,0 5,-2 5,-5 0,-3 -5,-12 -5,-12z"/>
     <path class="fil5" d="M452 378c0,0 -6,12 -6,15 0,4 3,7 7,7 3,0 6,-3 6,-7 0,-3 -7,-15 -7,-15z"/>
    </g>
    <g>
     <path class="fil5" d="M466 342c0,0 -8,16 -8,21 0,5 3,9 8,9 4,0 8,-4 8,-9 0,-5 -8,-21 -8,-21z"/>
     <path class="fil5" d="M479 410c0,0 -5,10 -5,12 0,3 2,6 5,6 3,0 5,-3 5,-6 0,-2 -5,-12 -5,-12z"/>
     <path class="fil5" d="M453 378c0,0 -7,12 -7,16 0,3 3,6 7,6 3,0 6,-3 6,-6 0,-4 -6,-16 -6,-16z"/>
    </g>
    <g>
     <path class="fil5" d="M466 342c0,0 -8,17 -8,21 0,5 4,9 8,9 4,0 8,-4 8,-9 0,-4 -8,-21 -8,-21z"/>
     <path class="fil5" d="M479 410c0,0 -5,10 -5,13 0,2 2,5 5,5 3,0 5,-3 5,-5 0,-3 -5,-13 -5,-13z"/>
     <path class="fil5" d="M453 378c0,0 -6,12 -6,16 0,3 2,6 6,6 3,0 6,-3 6,-6 0,-4 -6,-16 -6,-16z"/>
    </g>
    <g>
     <path class="fil5" d="M466 342c0,0 -8,17 -8,22 0,4 4,8 8,8 5,0 8,-4 8,-8 0,-5 -8,-22 -8,-22z"/>
     <path class="fil5" d="M479 410c0,0 -5,10 -5,13 0,3 3,5 5,5 3,0 5,-2 5,-5 0,-3 -5,-13 -5,-13z"/>
     <path class="fil5" d="M453 379c0,0 -6,12 -6,15 0,3 3,6 6,6 4,0 6,-3 6,-6 0,-3 -6,-15 -6,-15z"/>
    </g>
    <g>
     <path class="fil5" d="M466 342c0,0 -8,17 -8,22 0,5 4,8 8,8 5,0 8,-3 8,-8 0,-5 -8,-22 -8,-22z"/>
     <path class="fil5" d="M479 410c0,0 -4,10 -4,13 0,3 2,5 4,5 3,0 5,-2 5,-5 0,-3 -5,-13 -5,-13z"/>
     <path class="fil5" d="M453 379c0,0 -6,12 -6,15 0,4 3,6 6,6 4,0 7,-2 7,-6 0,-3 -7,-15 -7,-15z"/>
    </g>
    <g>
     <path class="fil5" d="M466 342c0,0 -7,17 -7,22 0,5 3,9 8,9 4,0 8,-4 8,-9 0,-5 -9,-22 -9,-22z"/>
     <path class="fil5" d="M479 410c0,0 -4,10 -4,13 0,3 2,5 5,5 2,0 4,-2 4,-5 0,-3 -5,-13 -5,-13z"/>
     <path class="fil5" d="M453 379c0,0 -6,12 -6,15 0,4 3,6 6,6 4,0 7,-2 7,-6 0,-3 -7,-15 -7,-15z"/>
    </g>
    <g>
     <path class="fil5" d="M466 343c0,0 -7,16 -7,21 0,5 3,9 8,9 4,0 8,-4 8,-9 0,-5 -9,-21 -9,-21z"/>
     <path class="fil5" d="M480 411c0,0 -5,10 -5,12 0,3 2,5 5,5 2,0 5,-2 5,-5 0,-2 -5,-12 -5,-12z"/>
     <path class="fil5" d="M453 379c0,0 -6,12 -6,15 0,4 3,7 7,7 3,0 6,-3 6,-7 0,-3 -7,-15 -7,-15z"/>
    </g>
    <g>
     <path class="fil5" d="M467 343c0,0 -8,17 -8,21 0,5 3,9 8,9 4,0 8,-4 8,-9 0,-4 -8,-21 -8,-21z"/>
     <path class="fil5" d="M480 411c0,0 -5,10 -5,13 0,2 2,5 5,5 3,0 5,-3 5,-5 0,-3 -5,-13 -5,-13z"/>
     <path class="fil5" d="M454 379c0,0 -7,12 -7,16 0,3 3,6 7,6 3,0 6,-3 6,-6 0,-4 -6,-16 -6,-16z"/>
    </g>
    <g>
     <path class="fil5" d="M467 343c0,0 -8,17 -8,21 0,5 4,9 8,9 5,0 8,-4 8,-9 0,-4 -8,-21 -8,-21z"/>
     <path class="fil5" d="M480 411c0,0 -5,10 -5,13 0,3 3,5 5,5 3,0 5,-2 5,-5 0,-3 -5,-13 -5,-13z"/>
     <path class="fil5" d="M454 380c0,0 -6,11 -6,15 0,3 2,6 6,6 3,0 6,-3 6,-6 0,-4 -6,-15 -6,-15z"/>
    </g>
    <g>
     <path class="fil5" d="M467 343c0,0 -8,17 -8,22 0,4 4,8 8,8 5,0 8,-4 8,-8 0,-5 -8,-22 -8,-22z"/>
     <path class="fil5" d="M480 411c0,0 -4,10 -4,13 0,3 2,5 4,5 3,0 5,-2 5,-5 0,-3 -5,-13 -5,-13z"/>
     <path class="fil5" d="M454 380c0,0 -6,12 -6,15 0,3 3,6 6,6 4,0 7,-3 7,-6 0,-3 -7,-15 -7,-15z"/>
    </g>
    <g>
     <path class="fil5" d="M467 343c0,0 -8,17 -8,22 0,5 4,9 8,9 5,0 8,-4 8,-9 0,-5 -8,-22 -8,-22z"/>
     <path class="fil5" d="M480 411c0,0 -4,10 -4,13 0,3 2,5 5,5 2,0 4,-2 4,-5 0,-3 -5,-13 -5,-13z"/>
     <path class="fil5" d="M454 380c0,0 -6,12 -6,15 0,4 3,6 6,6 4,0 7,-2 7,-6 0,-3 -7,-15 -7,-15z"/>
    </g>
    <g>
     <path class="fil5" d="M467 343c0,0 -7,17 -7,22 0,5 3,9 8,9 4,0 8,-4 8,-9 0,-5 -9,-22 -9,-22z"/>
     <path class="fil5" d="M481 411c0,0 -5,10 -5,13 0,3 2,5 5,5 2,0 4,-2 4,-5 0,-3 -4,-13 -4,-13z"/>
     <path class="fil5" d="M454 380c0,0 -6,12 -6,15 0,4 3,6 7,6 3,0 6,-2 6,-6 0,-3 -7,-15 -7,-15z"/>
    </g>
    <g>
     <path class="fil5" d="M468 344c0,0 -8,16 -8,21 0,5 3,9 8,9 4,0 8,-4 8,-9 0,-5 -8,-21 -8,-21z"/>
     <path class="fil5" d="M481 412c0,0 -5,10 -5,12 0,3 2,5 5,5 3,0 5,-2 5,-5 0,-2 -5,-12 -5,-12z"/>
     <path class="fil5" d="M454 380c0,0 -6,12 -6,15 0,4 3,7 7,7 3,0 6,-3 6,-7 0,-3 -7,-15 -7,-15z"/>
    </g>
    <g>
     <path class="fil5" d="M468 344c0,0 -8,17 -8,21 0,5 4,9 8,9 4,0 8,-4 8,-9 0,-4 -8,-21 -8,-21z"/>
     <path class="fil5" d="M481 412c0,0 -5,10 -5,13 0,2 2,5 5,5 3,0 5,-3 5,-5 0,-3 -5,-13 -5,-13z"/>
     <path class="fil5" d="M455 380c0,0 -7,12 -7,16 0,3 3,6 7,6 3,0 6,-3 6,-6 0,-4 -6,-16 -6,-16z"/>
    </g>
    <g>
     <path class="fil5" d="M468 344c0,0 -8,17 -8,22 0,4 4,8 8,8 5,0 8,-4 8,-8 0,-5 -8,-22 -8,-22z"/>
     <path class="fil5" d="M481 412c0,0 -5,10 -5,13 0,3 3,5 5,5 3,0 5,-2 5,-5 0,-3 -5,-13 -5,-13z"/>
     <path class="fil5" d="M455 381c0,0 -6,11 -6,15 0,3 3,6 6,6 4,0 6,-3 6,-6 0,-4 -6,-15 -6,-15z"/>
    </g>
    <g>
     <path class="fil5" d="M468 344c0,0 -8,17 -8,22 0,4 4,8 8,8 5,0 8,-4 8,-8 0,-5 -8,-22 -8,-22z"/>
     <path class="fil5" d="M481 412c0,0 -4,10 -4,13 0,3 2,5 4,5 3,0 5,-2 5,-5 0,-3 -5,-13 -5,-13z"/>
     <path class="fil5" d="M455 381c0,0 -6,12 -6,15 0,3 3,6 6,6 4,0 7,-3 7,-6 0,-3 -7,-15 -7,-15z"/>
    </g>
    <g>
     <path class="fil5" d="M468 344c0,0 -8,17 -8,22 0,5 4,9 9,9 4,0 8,-4 8,-9 0,-5 -9,-22 -9,-22z"/>
     <path class="fil5" d="M481 412c0,0 -4,10 -4,13 0,3 2,5 5,5 2,0 4,-2 4,-5 0,-3 -5,-13 -5,-13z"/>
     <path class="fil5" d="M455 381c0,0 -6,12 -6,15 0,4 3,6 6,6 4,0 7,-2 7,-6 0,-3 -7,-15 -7,-15z"/>
    </g>
    <g>
     <path class="fil5" d="M468 344c0,0 -7,17 -7,22 0,5 3,9 8,9 4,0 8,-4 8,-9 0,-5 -9,-22 -9,-22z"/>
     <path class="fil5" d="M482 413c0,0 -5,9 -5,12 0,3 2,5 5,5 2,0 5,-2 5,-5 0,-3 -5,-12 -5,-12z"/>
     <path class="fil5" d="M455 381c0,0 -6,12 -6,15 0,4 3,7 7,7 3,0 6,-3 6,-7 0,-3 -7,-15 -7,-15z"/>
    </g>
    <g>
     <path class="fil5" d="M469 345c0,0 -8,16 -8,21 0,5 3,9 8,9 4,0 8,-4 8,-9 0,-5 -8,-21 -8,-21z"/>
     <path class="fil5" d="M482 413c0,0 -5,10 -5,12 0,3 2,6 5,6 3,0 5,-3 5,-6 0,-2 -5,-12 -5,-12z"/>
     <path class="fil5" d="M456 381c0,0 -7,12 -7,16 0,3 3,6 7,6 3,0 6,-3 6,-6 0,-4 -6,-16 -6,-16z"/>
    </g>
    <g>
     <path class="fil5" d="M469 345c0,0 -8,17 -8,21 0,5 4,9 8,9 4,0 8,-4 8,-9 0,-4 -8,-21 -8,-21z"/>
     <path class="fil5" d="M482 413c0,0 -5,10 -5,13 0,2 2,5 5,5 3,0 5,-3 5,-5 0,-3 -5,-13 -5,-13z"/>
     <path class="fil5" d="M456 381c0,0 -6,12 -6,16 0,3 2,6 6,6 3,0 6,-3 6,-6 0,-4 -6,-16 -6,-16z"/>
    </g>
    <g>
     <path class="fil5" d="M469 345c0,0 -8,17 -8,22 0,4 4,8 8,8 5,0 8,-4 8,-8 0,-5 -8,-22 -8,-22z"/>
     <path class="fil5" d="M482 413c0,0 -4,10 -4,13 0,3 2,5 4,5 3,0 5,-2 5,-5 0,-3 -5,-13 -5,-13z"/>
     <path class="fil5" d="M456 382c0,0 -6,11 -6,15 0,3 3,6 6,6 4,0 6,-3 6,-6 0,-4 -6,-15 -6,-15z"/>
    </g>
    <g>
     <path class="fil5" d="M469 345c0,0 -8,17 -8,22 0,5 4,8 8,8 5,0 8,-3 8,-8 0,-5 -8,-22 -8,-22z"/>
     <path class="fil5" d="M482 413c0,0 -4,10 -4,13 0,3 2,5 4,5 3,0 5,-2 5,-5 0,-3 -5,-13 -5,-13z"/>
     <path class="fil5" d="M456 382c0,0 -6,12 -6,15 0,3 3,6 6,6 4,0 7,-3 7,-6 0,-3 -7,-15 -7,-15z"/>
    </g>
    <g>
     <path class="fil5" d="M469 345c0,0 -7,17 -7,22 0,5 3,9 8,9 4,0 8,-4 8,-9 0,-5 -9,-22 -9,-22z"/>
     <path class="fil5" d="M483 413c0,0 -5,10 -5,13 0,3 2,5 5,5 2,0 4,-2 4,-5 0,-3 -4,-13 -4,-13z"/>
     <path class="fil5" d="M456 382c0,0 -6,12 -6,15 0,4 3,6 6,6 4,0 7,-2 7,-6 0,-3 -7,-15 -7,-15z"/>
    </g>
    <g>
     <path class="fil5" d="M470 345c0,0 -8,17 -8,22 0,5 3,9 8,9 4,0 8,-4 8,-9 0,-5 -8,-22 -8,-22z"/>
     <path class="fil5" d="M483 414c0,0 -5,9 -5,12 0,3 2,5 5,5 2,0 5,-2 5,-5 0,-3 -5,-12 -5,-12z"/>
     <path class="fil5" d="M456 382c0,0 -6,12 -6,15 0,4 3,7 7,7 3,0 6,-3 6,-7 0,-3 -7,-15 -7,-15z"/>
    </g>
    <g>
     <path class="fil5" d="M470 346c0,0 -8,16 -8,21 0,5 3,9 8,9 4,0 8,-4 8,-9 0,-5 -8,-21 -8,-21z"/>
     <path class="fil5" d="M483 414c0,0 -5,10 -5,12 0,3 2,6 5,6 3,0 5,-3 5,-6 0,-2 -5,-12 -5,-12z"/>
     <path class="fil5" d="M457 382c0,0 -7,12 -7,16 0,3 3,6 7,6 3,0 6,-3 6,-6 0,-4 -6,-16 -6,-16z"/>
    </g>
    <g>
     <path class="fil5" d="M470 346c0,0 -8,17 -8,21 0,5 4,9 8,9 5,0 8,-4 8,-9 0,-4 -8,-21 -8,-21z"/>
     <path class="fil5" d="M483 414c0,0 -5,10 -5,13 0,2 3,5 5,5 3,0 5,-3 5,-5 0,-3 -5,-13 -5,-13z"/>
     <path class="fil5" d="M457 382c0,0 -6,12 -6,16 0,3 2,6 6,6 4,0 6,-3 6,-6 0,-4 -6,-16 -6,-16z"/>
    </g>
    <g>
     <path class="fil5" d="M470 346c0,0 -8,17 -8,22 0,4 4,8 8,8 5,0 8,-4 8,-8 0,-5 -8,-22 -8,-22z"/>
     <path class="fil5" d="M483 414c0,0 -4,10 -4,13 0,3 2,5 4,5 3,0 5,-2 5,-5 0,-3 -5,-13 -5,-13z"/>
     <path class="fil5" d="M457 383c0,0 -6,12 -6,15 0,3 3,6 6,6 4,0 7,-3 7,-6 0,-3 -7,-15 -7,-15z"/>
    </g>
    <g>
     <path class="fil5" d="M470 346c0,0 -8,17 -8,22 0,5 4,8 8,8 5,0 8,-3 8,-8 0,-5 -8,-22 -8,-22z"/>
     <path class="fil5" d="M483 414c0,0 -4,10 -4,13 0,3 2,5 5,5 2,0 4,-2 4,-5 0,-3 -5,-13 -5,-13z"/>
     <path class="fil5" d="M457 383c0,0 -6,12 -6,15 0,3 3,6 6,6 4,0 7,-3 7,-6 0,-3 -7,-15 -7,-15z"/>
    </g>
    <g>
     <path class="fil5" d="M470 346c0,0 -7,17 -7,22 0,5 3,9 8,9 4,0 8,-4 8,-9 0,-5 -9,-22 -9,-22z"/>
     <path class="fil5" d="M484 414c0,0 -5,10 -5,13 0,3 2,5 5,5 2,0 5,-2 5,-5 0,-3 -5,-13 -5,-13z"/>
     <path class="fil5" d="M457 383c0,0 -6,12 -6,15 0,4 3,6 7,6 3,0 6,-2 6,-6 0,-3 -7,-15 -7,-15z"/>
    </g>
    <g>
     <path class="fil5" d="M471 346c0,0 -8,17 -8,22 0,5 3,9 8,9 4,0 8,-4 8,-9 0,-5 -8,-22 -8,-22z"/>
     <path class="fil5" d="M484 415c0,0 -5,9 -5,12 0,3 2,5 5,5 3,0 5,-2 5,-5 0,-3 -5,-12 -5,-12z"/>
     <path class="fil5" d="M458 383c0,0 -7,12 -7,15 0,4 3,7 7,7 3,0 6,-3 6,-7 0,-3 -6,-15 -6,-15z"/>
    </g>
    <g>
     <path class="fil5" d="M471 347c0,0 -8,16 -8,21 0,5 4,9 8,9 4,0 8,-4 8,-9 0,-5 -8,-21 -8,-21z"/>
     <path class="fil5" d="M484 415c0,0 -5,10 -5,12 0,3 2,6 5,6 3,0 5,-3 5,-6 0,-2 -5,-12 -5,-12z"/>
     <path class="fil5" d="M458 383c0,0 -6,12 -6,16 0,3 2,6 6,6 3,0 6,-3 6,-6 0,-4 -6,-16 -6,-16z"/>
    </g>
    <g>
     <path class="fil5" d="M471 347c0,0 -8,17 -8,21 0,5 4,9 8,9 5,0 8,-4 8,-9 0,-4 -8,-21 -8,-21z"/>
     <path class="fil5" d="M484 415c0,0 -5,10 -5,13 0,2 3,5 5,5 3,0 5,-3 5,-5 0,-3 -5,-13 -5,-13z"/>
     <path class="fil5" d="M458 383c0,0 -6,12 -6,16 0,3 3,6 6,6 4,0 6,-3 6,-6 0,-4 -6,-16 -6,-16z"/>
    </g>
    <g>
     <path class="fil5" d="M471 347c0,0 -8,17 -8,22 0,4 4,8 8,8 5,0 8,-4 8,-8 0,-5 -8,-22 -8,-22z"/>
     <path class="fil5" d="M484 415c0,0 -4,10 -4,13 0,3 2,5 4,5 3,0 5,-2 5,-5 0,-3 -5,-13 -5,-13z"/>
     <path class="fil5" d="M458 384c0,0 -6,12 -6,15 0,3 3,6 6,6 4,0 7,-3 7,-6 0,-3 -7,-15 -7,-15z"/>
    </g>
    <g>
     <path class="fil5" d="M471 347c0,0 -7,17 -7,22 0,5 3,8 8,8 4,0 8,-3 8,-8 0,-5 -9,-22 -9,-22z"/>
     <path class="fil5" d="M484 415c0,0 -4,10 -4,13 0,3 2,5 5,5 2,0 4,-2 4,-5 0,-3 -5,-13 -5,-13z"/>
     <path class="fil5" d="M458 384c0,0 -6,12 -6,15 0,4 3,6 6,6 4,0 7,-2 7,-6 0,-3 -7,-15 -7,-15z"/>
    </g>
    <g>
     <path class="fil5" d="M471 347c0,0 -7,17 -7,22 0,5 3,9 8,9 4,0 8,-4 8,-9 0,-5 -9,-22 -9,-22z"/>
     <path class="fil5" d="M485 415c0,0 -5,10 -5,13 0,3 2,5 5,5 2,0 5,-2 5,-5 0,-3 -5,-13 -5,-13z"/>
     <path class="fil5" d="M458 384c0,0 -6,12 -6,15 0,4 3,6 7,6 3,0 6,-2 6,-6 0,-3 -7,-15 -7,-15z"/>
    </g>
    <g>
     <path class="fil5" d="M472 347c0,0 -8,17 -8,22 0,5 3,9 8,9 4,0 8,-4 8,-9 0,-5 -8,-22 -8,-22z"/>
     <path class="fil5" d="M485 416c0,0 -5,10 -5,12 0,3 2,5 5,5 3,0 5,-2 5,-5 0,-2 -5,-12 -5,-12z"/>
     <path class="fil5" d="M459 384c0,0 -7,12 -7,15 0,4 3,7 7,7 3,0 6,-3 6,-7 0,-3 -6,-15 -6,-15z"/>
    </g>
    <g>
     <path class="fil5" d="M472 348c0,0 -8,16 -8,21 0,5 4,9 8,9 5,0 8,-4 8,-9 0,-5 -8,-21 -8,-21z"/>
     <path class="fil5" d="M485 416c0,0 -5,10 -5,12 0,3 3,6 5,6 3,0 5,-3 5,-6 0,-2 -5,-12 -5,-12z"/>
     <path class="fil5" d="M459 384c0,0 -6,12 -6,16 0,3 2,6 6,6 3,0 6,-3 6,-6 0,-4 -6,-16 -6,-16z"/>
    </g>
    <g>
     <path class="fil5" d="M472 348c0,0 -8,17 -8,21 0,5 4,9 8,9 5,0 8,-4 8,-9 0,-4 -8,-21 -8,-21z"/>
     <path class="fil5" d="M485 416c0,0 -4,10 -4,13 0,2 2,5 4,5 3,0 5,-3 5,-5 0,-3 -5,-13 -5,-13z"/>
     <path class="fil5" d="M459 385c0,0 -6,11 -6,15 0,3 3,6 6,6 4,0 7,-3 7,-6 0,-4 -7,-15 -7,-15z"/>
    </g>
    <g>
     <path class="fil5" d="M472 348c0,0 -8,17 -8,22 0,4 4,8 8,8 5,0 8,-4 8,-8 0,-5 -8,-22 -8,-22z"/>
     <path class="fil5" d="M485 416c0,0 -4,10 -4,13 0,3 2,5 5,5 2,0 4,-2 4,-5 0,-3 -5,-13 -5,-13z"/>
     <path class="fil5" d="M459 385c0,0 -6,12 -6,15 0,3 3,6 6,6 4,0 7,-3 7,-6 0,-3 -7,-15 -7,-15z"/>
    </g>
    <g>
     <path class="fil5" d="M472 348c0,0 -7,17 -7,22 0,5 3,8 8,8 4,0 8,-3 8,-8 0,-5 -9,-22 -9,-22z"/>
     <path class="fil5" d="M486 416c0,0 -5,10 -5,13 0,3 2,5 5,5 2,0 4,-2 4,-5 0,-3 -4,-13 -4,-13z"/>
     <path class="fil5" d="M459 385c0,0 -6,12 -6,15 0,4 3,6 6,6 4,0 7,-2 7,-6 0,-3 -7,-15 -7,-15z"/>
    </g>
    <g>
     <path class="fil5" d="M473 348c0,0 -8,17 -8,22 0,5 3,9 8,9 4,0 8,-4 8,-9 0,-5 -8,-22 -8,-22z"/>
     <path class="fil5" d="M486 416c0,0 -5,10 -5,13 0,3 2,5 5,5 3,0 5,-2 5,-5 0,-3 -5,-13 -5,-13z"/>
     <path class="fil5" d="M459 385c0,0 -6,12 -6,15 0,4 3,6 7,6 3,0 6,-2 6,-6 0,-3 -7,-15 -7,-15z"/>
    </g>
    <g>
     <path class="fil5" d="M473 349c0,0 -8,16 -8,21 0,5 4,9 8,9 4,0 8,-4 8,-9 0,-5 -8,-21 -8,-21z"/>
     <path class="fil5" d="M486 417c0,0 -5,10 -5,12 0,3 2,5 5,5 3,0 5,-2 5,-5 0,-2 -5,-12 -5,-12z"/>
     <path class="fil5" d="M460 385c0,0 -7,12 -7,15 0,4 3,7 7,7 3,0 6,-3 6,-7 0,-3 -6,-15 -6,-15z"/>
    </g>
    <g>
     <path class="fil4" d="M464 340c0,0 -8,17 -8,22 0,5 4,8 8,8 5,0 8,-3 8,-8 0,-5 -8,-22 -8,-22z"/>
     <path class="fil4" d="M477 408c0,0 -4,10 -4,13 0,3 2,5 4,5 3,0 5,-2 5,-5 0,-3 -5,-13 -5,-13z"/>
     <path class="fil4" d="M451 377c0,0 -6,12 -6,15 0,3 3,6 6,6 4,0 6,-3 6,-6 0,-3 -6,-15 -6,-15z"/>
    </g>
   </g>
   <rect class="fil2" x="519" y="529" width="76.5159" height="67.0979"/>
  </g>
 </g>
</svg>
