<?xml version="1.0" encoding="UTF-8"?>
<!DOCTYPE svg PUBLIC "-//W3C//DTD SVG 1.1//EN" "http://www.w3.org/Graphics/SVG/1.1/DTD/svg11.dtd">
<!-- Creator: CorelDRAW X7 -->
<svg xmlns="http://www.w3.org/2000/svg" xml:space="preserve" width="275px" height="500px" version="1.1" style="shape-rendering:geometricPrecision; text-rendering:geometricPrecision; image-rendering:optimizeQuality; fill-rule:evenodd; clip-rule:evenodd"
viewBox="0 0 81 148"
 xmlns:xlink="http://www.w3.org/1999/xlink">
 <defs>
  <style type="text/css">
   <![CDATA[
    .str0 {stroke:#2B2A29;stroke-width:0.295592}
    .fil2 {fill:none}
    .fil0 {fill:#FEFEFE}
    .fil3 {fill:#2B2A29}
    .fil1 {fill:#C5DDE1}
   ]]>
  </style>
 </defs>
 <g id="Слой_x0020_1">
  <metadata id="CorelCorpID_0Corel-Layer"/>
  <g id="_416653831840">
   <path class="fil0" d="M16 97c1,3 2,4 6,4 4,-1 7,-1 11,-1 8,0 14,0 19,-1 7,0 11,0 11,0 2,0 3,-1 3,-4 0,0 0,-8 0,-18 7,-6 11,-24 12,-33 -10,5 -19,10 -26,18 -1,-1 -5,-1 -11,-1 -2,0 -4,0 -6,1 -6,-11 -11,-18 -17,-22 -3,7 -5,23 -3,30 0,0 1,0 1,0 0,4 0,8 0,13 0,4 0,9 0,14zm0 6c0,-2 1,-3 1,-4l0 0c0,0 -1,-1 -1,-2 0,-5 0,-10 0,-14 -8,12 -11,24 -7,36 2,9 8,15 16,17 -1,2 0,4 1,6 1,1 3,2 5,2 0,0 2,0 5,0l0 1c1,1 1,2 3,2 2,0 2,0 2,-2l0 -1 4 0c-1,0 -1,1 -1,1 0,1 0,2 2,2 2,1 4,-1 5,-3l2 0c2,0 5,0 6,-2 1,-1 1,-3 1,-5 -4,-17 -6,-29 -8,-38 -5,1 -11,1 -19,1l-7 30c-6,-2 -9,-8 -10,-16 -1,-5 -1,-7 0,-11zm19 -41c2,-1 4,-1 6,-1 7,-7 11,-14 13,-18 5,-14 3,-25 -5,-34 -3,-4 -5,-5 -10,-7 -10,-3 -18,-2 -25,5 -3,3 -5,6 -6,10 -1,2 0,3 1,4 3,1 4,0 7,-3 9,-9 18,-10 27,-2 10,9 7,24 -10,42l0 0c1,1 1,2 2,4z"/>
   <g>
    <path class="fil1" d="M26 130c-6,-3 -9,-8 -10,-16 -1,-5 -1,-7 0,-11 0,-2 1,-3 1,-4 0,0 0,0 -1,0 -2,5 -3,12 -2,17 2,6 4,12 12,15l0 -1z"/>
    <path class="fil1" d="M41 144c0,-3 0,-7 0,-13 -1,2 -1,6 -1,12 0,3 0,4 -3,4 1,0 1,0 2,0 2,0 2,-1 2,-2 0,0 0,-1 0,-1z"/>
    <path class="fil1" d="M44 144c-1,-2 -2,-7 -3,-13 0,6 0,10 0,13l3 0z"/>
    <path class="fil1" d="M52 99c-4,1 -11,1 -19,1l-1 2c5,4 11,6 20,6 2,8 3,16 2,23 -1,6 -4,11 -8,16 2,1 4,-1 5,-3l2 0c2,0 5,0 6,-2 1,-1 1,-3 1,-5 -4,-17 -6,-29 -8,-38z"/>
    <path class="fil1" d="M66 73c0,1 0,3 0,4 5,-4 8,-12 10,-23 1,-3 2,-7 2,-10 -4,14 -8,23 -12,28l0 1z"/>
    <path class="fil1" d="M31 63c1,-1 2,-1 3,-2 0,0 1,0 1,0 -1,-1 -1,-2 -2,-3 -5,-9 -10,-14 -15,-18 7,9 11,17 13,23z"/>
    <path class="fil1" d="M16 18c9,-9 18,-10 27,-2 2,2 4,4 5,7 -1,-5 -3,-7 -6,-9 -6,-5 -14,-7 -21,-2 -4,3 -8,10 -13,8 0,0 0,1 1,1 3,1 4,0 7,-3z"/>
    <path class="fil1" d="M54 38c-2,8 -7,15 -15,23 1,0 1,0 2,0 7,-7 11,-14 13,-18 4,-11 4,-20 0,-28 2,8 3,15 0,23z"/>
    <path class="fil2 str0" d="M33 58c17,-18 20,-33 10,-42 -9,-8 -18,-7 -27,2 -3,3 -4,4 -7,3"/>
    <path class="fil2 str0" d="M35 61c-6,-10 -11,-17 -17,-21"/>
    <path class="fil2 str0" d="M9 21c-1,-1 -2,-2 -1,-5 1,-3 3,-6 6,-9 7,-7 15,-9 25,-5 5,2 7,3 10,7 8,9 10,20 5,34 -2,4 -6,11 -13,18"/>
    <path class="fil2 str0" d="M33 62c11,-1 20,-1 22,0"/>
    <path class="fil2 str0" d="M18 40c-3,7 -5,23 -3,30 0,0 1,0 1,0"/>
    <path class="fil2 str0" d="M52 61c7,-7 16,-13 26,-17 -1,9 -5,27 -12,33"/>
    <path class="fil2 str0" d="M16 68c0,8 0,17 0,29 1,3 2,4 6,4 27,-2 41,-2 41,-2"/>
    <path class="fil2 str0" d="M63 99c2,0 3,-2 3,-4 0,0 0,-10 0,-22"/>
    <path class="fil2 str0" d="M66 95c4,-1 9,-1 15,0"/>
    <path class="fil2 str0" d="M80 100c-7,-2 -12,-4 -14,-3"/>
    <path class="fil2 str0" d="M74 104c-3,-4 -7,-6 -9,-6"/>
    <path class="fil2 str0" d="M17 99c-1,0 -4,1 -8,4"/>
    <path class="fil2 str0" d="M16 97c-3,0 -8,2 -16,5"/>
    <path class="fil2 str0" d="M16 95c-1,-1 -4,-1 -9,-2"/>
    <path class="fil2 str0" d="M52 99c2,9 4,21 8,38 0,2 0,4 -1,5 -1,2 -4,2 -6,2 0,0 -1,0 -2,0m-6 0c-2,0 -3,0 -4,0m-5 0c-3,0 -5,0 -5,0 -2,0 -4,-1 -5,-2 -1,-2 -2,-4 -1,-6 5,-24 8,-36 8,-36"/>
    <path class="fil2 str0" d="M26 130c-6,-3 -9,-8 -10,-16 -1,-5 -1,-7 0,-11 0,-2 1,-3 1,-4"/>
    <path class="fil2 str0" d="M16 83c-8,12 -11,24 -7,35 2,10 8,15 16,18"/>
    <path class="fil2 str0" d="M41 131c0,7 0,12 0,14 0,1 0,2 -2,2 -2,0 -2,-1 -3,-2 -3,-9 -5,-13 -5,-13"/>
    <path class="fil2 str0" d="M45 131c0,7 0,12 -1,14 0,1 0,2 2,2 2,1 4,-1 5,-3 3,-6 3,-11 3,-12"/>
    <path class="fil2 str0" d="M57 88c0,-4 3,-3 4,-3 2,1 3,5 -2,6 -2,0 -3,-1 -2,-3z"/>
    <path class="fil3 str0" d="M61 86c-1,-1 -4,-2 -4,2 0,2 0,3 2,3 5,-1 4,-5 2,-5z"/>
    <path class="fil3 str0" d="M21 86c1,0 4,-1 5,3 0,2 0,3 -2,2 -6,0 -4,-4 -3,-5z"/>
    <circle class="fil0" cx="59" cy="87" r="1"/>
    <circle class="fil0" cx="24" cy="87" r="1"/>
   </g>
  </g>
 </g>
</svg>
