<?xml version="1.0" encoding="UTF-8"?>
<!DOCTYPE svg PUBLIC "-//W3C//DTD SVG 1.1//EN" "http://www.w3.org/Graphics/SVG/1.1/DTD/svg11.dtd">
<!-- Creator: CorelDRAW X7 -->
<svg xmlns="http://www.w3.org/2000/svg" xml:space="preserve" width="500px" height="500px" version="1.1" style="shape-rendering:geometricPrecision; text-rendering:geometricPrecision; image-rendering:optimizeQuality; fill-rule:evenodd; clip-rule:evenodd"
viewBox="0 0 512 512"
 xmlns:xlink="http://www.w3.org/1999/xlink">
 <defs>
  <style type="text/css">
   <![CDATA[
    .fil2 {fill:#FEFEFE}
    .fil0 {fill:#E31E24}
    .fil1 {fill:#CF2124}
    .fil3 {fill:#CF2124}
   ]]>
  </style>
 </defs>
 <g id="Слой_x0020_1">
  <metadata id="CorelCorpID_0Corel-Layer"/>
  <g id="_418493836720">
   <rect class="fil0" width="512" height="512"/>
   <g>
    <path class="fil1" d="M371 125l0 0 0 0zm-7 156l1 0c0,0 -1,0 -1,0l0 0zm16 -16c-18,41 -48,55 -78,58 -35,4 -70,-8 -88,-25 -1,-1 -2,-1 -2,-2l-152 146 90 70c0,0 362,0 362,0l0 -252 -138 -133c39,39 35,101 6,138z"/>
   </g>
   <path class="fil2" d="M60 442l156 -150c-2,-1 -4,-3 -6,-5l-2 -2 -156 150 8 7z"/>
   <path class="fil3" d="M225 146c15,-14 34,-20 50,-24 33,-8 68,6 90,29 24,24 31,60 20,90 -5,12 -13,21 -20,30 -20,24 -79,41 -117,3 0,0 0,-1 0,-1 -34,-39 -20,-78 2,-100 29,-28 71,-16 87,4 17,20 19,48 1,67 -11,12 -37,24 -59,7 -21,-17 -16,-39 -2,-51 8,-7 23,-6 28,-2 5,4 10,14 8,18 -7,13 -14,9 -16,4 -2,-4 1,-10 0,-9 -16,-1 -16,18 -6,25 9,7 25,5 32,-5 11,-13 11,-31 -2,-43 -13,-12 -38,-15 -55,-2 -24,19 -26,55 -1,77 26,21 62,18 84,-4 24,-24 30,-64 4,-94 -26,-29 -74,-38 -115,-5 -34,27 -46,86 -1,128 42,39 104,28 137,2 2,-2 4,-4 6,-6 36,-35 44,-105 2,-146 -30,-29 -69,-48 -113,-37 -19,4 -35,11 -58,33 -26,25 -26,64 -23,76 9,-8 11,-21 16,-34 4,-10 10,-20 21,-30z"/>
   <path class="fil3" d="M195 193c-4,-2 10,-34 15,-46 0,0 -11,-5 -11,-5 -40,48 -27,120 20,164 18,17 53,29 88,25 30,-3 60,-16 78,-57 -1,0 -12,13 -15,15 -28,35 -88,43 -130,16 -34,-22 -57,-63 -45,-112z"/>
   <path class="fil2" d="M217 136c16,-14 34,-20 50,-24 33,-8 68,5 91,28 24,25 31,61 19,91 -4,11 -13,21 -20,30 -19,23 -79,41 -116,2 0,0 -1,0 -1,0 -34,-39 -20,-79 2,-100 30,-28 71,-16 88,4 17,20 19,47 0,67 -10,11 -37,23 -58,7 -22,-17 -17,-39 -3,-51 8,-7 23,-6 29,-2 5,4 9,14 7,18 -7,13 -14,9 -16,4 -2,-5 2,-10 0,-9 -16,-1 -16,18 -6,25 10,6 25,5 33,-5 10,-13 11,-31 -3,-43 -13,-12 -38,-15 -55,-2 -24,18 -26,55 -1,76 26,22 62,19 84,-3 24,-24 30,-65 4,-94 -26,-29 -74,-38 -115,-5 -33,27 -45,86 -1,128 42,39 105,28 137,1 2,-1 4,-3 6,-5 37,-36 44,-105 2,-147 -29,-28 -69,-47 -113,-37 -19,5 -34,11 -58,34 -26,25 -26,64 -22,75 8,-7 10,-20 15,-33 4,-11 11,-21 21,-30z"/>
   <path class="fil2" d="M190 184c-4,-2 10,-33 15,-45 0,0 -11,-5 -11,-5 -40,48 -28,120 20,164 18,17 53,29 88,25 30,-3 60,-17 78,-58 -1,1 -13,14 -16,16 -28,35 -87,43 -129,16 -34,-23 -57,-63 -45,-113z"/>
  </g>
 </g>
</svg>
